<svg width="100" height="100" viewBox="0 0 100 100" fill="none" xmlns="http://www.w3.org/2000/svg">
<path fill-rule="evenodd" clip-rule="evenodd" d="M50 95C74.8528 95 95 74.8528 95 50C95 25.1472 74.8528 5 50 5C25.1472 5 5 25.1472 5 50C5 74.8528 25.1472 95 50 95ZM46 16.5C46 15.1193 44.8807 14 43.5 14C42.1193 14 41 15.1193 41 16.5V31.0117C35.4332 31.2727 31 35.8686 31 41.5C31 47.1314 35.4332 51.7273 41 51.9883V65.0005H32.5C31.1193 65.0005 30 66.1198 30 67.5005C30 68.8812 31.1193 70.0005 32.5 70.0005H41V84.3571C41 85.7379 42.1193 86.8571 43.5 86.8571C44.8807 86.8571 46 85.7379 46 84.3571V70.0005H53V84.3571C53 85.7379 54.1193 86.8571 55.5 86.8571C56.8807 86.8571 58 85.7379 58 84.3571V69.9893C58.1658 69.9964 58.3325 70 58.5 70C64.8513 70 70 64.8513 70 58.5C70 52.1487 64.8513 47 58.5 47C58.4353 47 58.3706 47.0005 58.3061 47.0016C58.2762 47.0005 58.2461 47 58.2158 47H58V36H67.5C68.8807 36 70 34.8807 70 33.5C70 32.1193 68.8807 31 67.5 31H58V16.5C58 15.1193 56.8807 14 55.5 14C54.1193 14 53 15.1193 53 16.5V31H46V16.5ZM58.5 65C58.3318 65 58.165 64.9936 58 64.9811V52.0189C58.165 52.0064 58.3318 52 58.5 52C62.0899 52 65 54.9101 65 58.5C65 62.0899 62.0899 65 58.5 65ZM46 64.9999H45.9999V51.9999H52.9999V64.9999H46.7871V65.0002H49.012L49.0122 65.0005H46V64.9999ZM50.446 47H53V46.7861H52.9999V36.0718H53V36H52.9999V35.9999H45.9999V46.9999H50.4461L50.446 47ZM41 46.9776C38.1967 46.725 36 44.369 36 41.5C36 38.631 38.1967 36.275 41 36.0224V46.9776Z" fill="url(#paint0_linear_2_6112)"/>
<defs>
<linearGradient id="paint0_linear_2_6112" x1="5" y1="5" x2="95" y2="95" gradientUnits="userSpaceOnUse">
<stop stop-color="#F3B415"/>
<stop offset="1" stop-color="#F2B014"/>
</linearGradient>
</defs>
</svg>
