<svg width="169" height="178" viewBox="0 0 169 178" fill="none" xmlns="http://www.w3.org/2000/svg">
<rect x="4" y="4" width="161" height="170" rx="11" fill="#EDEDED" stroke="#B62345" stroke-width="8"/>
<path d="M31.4487 159.25C31.4487 157.001 33.3494 148.579 38.75 142.165L36.2169 139.767C32.1937 142.464 28.1705 139.917 25.3394 139.767C22.5083 139.618 21.5664 140.456 19.8262 141.416V140.217H16.25V148.909H19.8262C19.784 145.718 24.4454 146.961 27.5745 147.261C30.7036 147.56 30.3908 146.964 32.1937 146.212C29.9069 148.586 26.2334 150.857 23.2533 152.656C20.2732 154.454 20.2496 156.525 20.2732 159.25H31.4487Z" fill="url(#paint0_linear_1_93)"/>
<path d="M58.4487 159.25C58.4487 157.001 60.3494 148.579 65.75 142.165L63.2169 139.767C59.1937 142.464 55.1705 139.917 52.3394 139.767C49.5083 139.618 48.5664 140.456 46.8262 141.416V140.217H43.25V148.909H46.8262C46.784 145.718 51.4454 146.961 54.5745 147.261C57.7036 147.56 57.3908 146.964 59.1937 146.212C56.9069 148.586 53.2334 150.857 50.2533 152.656C47.2732 154.454 47.2496 156.525 47.2732 159.25H58.4487Z" fill="url(#paint1_linear_1_93)"/>
<path d="M85.4487 159.25C85.4487 157.001 87.3494 148.579 92.75 142.165L90.2169 139.767C86.1937 142.464 82.1705 139.917 79.3394 139.767C76.5083 139.618 75.5664 140.456 73.8262 141.416V140.217H70.25V148.909H73.8262C73.784 145.718 78.4454 146.961 81.5745 147.261C84.7036 147.56 84.3908 146.964 86.1937 146.212C83.9069 148.586 80.2334 150.857 77.2533 152.656C74.2732 154.454 74.2496 156.525 74.2732 159.25H85.4487Z" fill="url(#paint2_linear_1_93)"/>
<path d="M112.934 154.637H117.914V157H109.594V154.5C111.391 152.755 112.676 151.32 113.451 150.193C114.226 149.061 114.613 148.071 114.613 147.225C114.613 146.658 114.444 146.209 114.105 145.877C113.767 145.545 113.311 145.379 112.738 145.379C112.328 145.379 111.892 145.46 111.43 145.623C110.967 145.779 110.495 146.01 110.014 146.316L109.799 143.719C110.333 143.458 110.906 143.257 111.518 143.113C112.13 142.97 112.735 142.898 113.334 142.898C114.656 142.898 115.707 143.243 116.488 143.934C117.27 144.624 117.66 145.558 117.66 146.736C117.66 147.843 117.276 149.041 116.508 150.33C115.74 151.613 114.548 153.048 112.934 154.637ZM125.854 143.123H133.314V145.379H128.539V148.035C128.708 148.009 128.881 147.99 129.057 147.977C129.239 147.964 129.431 147.957 129.633 147.957C130.967 147.957 132.022 148.357 132.797 149.158C133.572 149.952 133.959 151.027 133.959 152.381C133.959 153.826 133.487 154.995 132.543 155.887C131.605 156.779 130.368 157.225 128.832 157.225C128.279 157.225 127.729 157.176 127.182 157.078C126.641 156.987 126.114 156.847 125.6 156.658L125.736 154.158C126.114 154.367 126.527 154.526 126.977 154.637C127.432 154.747 127.904 154.803 128.393 154.803C129.161 154.803 129.76 154.604 130.189 154.207C130.619 153.81 130.834 153.26 130.834 152.557C130.834 151.756 130.6 151.144 130.131 150.721C129.669 150.291 128.998 150.076 128.119 150.076C127.774 150.076 127.413 150.109 127.035 150.174C126.664 150.239 126.27 150.333 125.854 150.457V143.123ZM140.248 145.223C139.708 145.223 139.317 145.597 139.076 146.346C138.842 147.088 138.725 148.325 138.725 150.057C138.725 151.788 138.842 153.025 139.076 153.768C139.317 154.51 139.708 154.881 140.248 154.881C140.782 154.881 141.166 154.507 141.4 153.758C141.641 153.003 141.762 151.769 141.762 150.057C141.762 148.344 141.641 147.111 141.4 146.355C141.166 145.6 140.782 145.223 140.248 145.223ZM140.229 142.879C141.693 142.879 142.82 143.497 143.607 144.734C144.395 145.965 144.789 147.739 144.789 150.057C144.789 152.361 144.392 154.132 143.598 155.369C142.81 156.606 141.687 157.225 140.229 157.225C138.751 157.225 137.624 156.613 136.85 155.389C136.075 154.158 135.688 152.381 135.688 150.057C135.688 147.719 136.075 145.939 136.85 144.715C137.624 143.491 138.751 142.879 140.229 142.879ZM150.756 145.223C150.215 145.223 149.825 145.597 149.584 146.346C149.35 147.088 149.232 148.325 149.232 150.057C149.232 151.788 149.35 153.025 149.584 153.768C149.825 154.51 150.215 154.881 150.756 154.881C151.29 154.881 151.674 154.507 151.908 153.758C152.149 153.003 152.27 151.769 152.27 150.057C152.27 148.344 152.149 147.111 151.908 146.355C151.674 145.6 151.29 145.223 150.756 145.223ZM150.736 142.879C152.201 142.879 153.327 143.497 154.115 144.734C154.903 145.965 155.297 147.739 155.297 150.057C155.297 152.361 154.9 154.132 154.105 155.369C153.318 156.606 152.195 157.225 150.736 157.225C149.258 157.225 148.132 156.613 147.357 155.389C146.583 154.158 146.195 152.381 146.195 150.057C146.195 147.719 146.583 145.939 147.357 144.715C148.132 143.491 149.258 142.879 150.736 142.879Z" fill="#05070E"/>
<path d="M65.75 120.5C65.75 126.713 60.7132 131.75 54.5 131.75C48.2868 131.75 43.25 126.713 43.25 120.5C43.25 114.287 48.2868 109.25 54.5 109.25C60.7132 109.25 65.75 114.287 65.75 120.5Z" fill="url(#paint3_linear_1_93)"/>
<path d="M53 112V129" stroke="#EDEDED" stroke-linecap="round"/>
<path d="M56.5 112V129" stroke="#EDEDED" stroke-linecap="round"/>
<line x1="59.2676" y1="116.5" x2="52.4997" y2="116.5" stroke="#EDEDED" stroke-linecap="round"/>
<line x1="56.8574" y1="120.5" x2="52.5003" y2="120.5" stroke="#EDEDED" stroke-linecap="round"/>
<line x1="56.75" y1="125.5" x2="50.5" y2="125.5" stroke="#EDEDED" stroke-linecap="round"/>
<path d="M52.5 116.5C53.6046 116.5 54.5 117.395 54.5 118.5C54.5 119.605 53.6046 120.5 52.5 120.5C51.3954 120.5 50.5 119.605 50.5 118.5C50.5 117.395 51.3954 116.5 52.5 116.5Z" stroke="#EDEDED" stroke-linejoin="round"/>
<path d="M57 120.5C58.3807 120.5 59.5 121.619 59.5 123C59.5 124.381 58.3807 125.5 57 125.5C55.6193 125.5 54.5 124.381 54.5 123C54.5 121.619 55.6193 120.5 57 120.5Z" stroke="#EDEDED" stroke-linejoin="round"/>
<rect x="53.5" y="121" width="2.5" height="4" fill="#F2B114"/>
<rect x="53.5" y="117" width="2.5" height="3" fill="#F2B214"/>
<path fill-rule="evenodd" clip-rule="evenodd" d="M73.9596 124.331C72.187 124.331 70.75 125.768 70.75 127.54C70.75 129.313 72.187 130.75 73.9596 130.75H89.2828C91.0554 130.75 92.4924 129.313 92.4924 127.54C92.4924 125.768 91.0554 124.331 89.2828 124.331H73.9596ZM80.4759 129.083V129.508H78.6191V129.083H79.305C79.6897 128.492 80.0744 127.908 80.4591 127.331C80.8494 126.75 81.2369 126.164 81.6217 125.573C82.0064 126.164 82.3911 126.75 82.7758 127.331C83.1661 127.908 83.5537 128.492 83.9384 129.083H84.6242V129.508H82.7675V129.083H83.2358C83.1187 128.904 83.0017 128.726 82.8846 128.551C82.8244 128.456 82.7634 128.361 82.7017 128.265H80.539L80.3504 128.551L79.9991 129.083H80.4759ZM81.5297 126.74C81.5352 126.729 81.5436 126.711 81.5548 126.686C81.5715 126.661 81.591 126.62 81.6133 126.562L81.6969 126.74L82.2573 127.594H80.986C81.0641 127.469 81.1477 127.331 81.2369 127.18C81.3317 127.026 81.4293 126.879 81.5297 126.74ZM87.82 129.508V129.064H86.607V127.754H87.0539H87.2774C87.3341 127.75 87.4121 127.748 87.5114 127.748L89.0755 129.508H90.629V129.064H89.6288L88.4371 127.715C88.9478 127.655 89.3344 127.531 89.5969 127.344C89.8664 127.156 90.0012 126.922 90.0012 126.641C90.0012 126.45 89.9161 126.287 89.7458 126.152C89.5756 126.017 89.3628 125.907 89.1074 125.821C88.8521 125.734 88.5754 125.673 88.2775 125.635C87.9867 125.594 87.7207 125.573 87.4795 125.573H85.2451V126.017H85.7239V129.064H85.2451V129.508H87.82ZM86.607 126.017H87.5434C87.7632 126.017 87.969 126.034 88.1605 126.068C88.3591 126.102 88.5293 126.147 88.6712 126.203C88.806 126.263 88.9124 126.33 88.9904 126.405C89.0755 126.48 89.1181 126.559 89.1181 126.641C89.1181 126.712 89.0932 126.787 89.0436 126.866C88.9939 126.945 88.9088 127.016 88.7882 127.08C88.6676 127.143 88.5045 127.198 88.2988 127.243C88.1002 127.284 87.8448 127.304 87.5327 127.304H86.607V126.017ZM76.2949 129.446C76.0071 129.487 75.7123 129.508 75.4105 129.508H72.8203V129.064H73.2941V126.017H72.8203V125.573H75.2209C75.5649 125.573 75.8772 125.592 76.158 125.629C76.4458 125.667 76.6915 125.725 76.895 125.804C77.0916 125.882 77.246 125.985 77.3583 126.113C77.4706 126.236 77.5268 126.384 77.5268 126.557C77.5268 126.789 77.4215 126.993 77.2109 127.169C77.0074 127.346 76.695 127.465 76.2738 127.529C76.4704 127.552 76.6599 127.589 76.8424 127.642C77.0319 127.694 77.1969 127.761 77.3373 127.844C77.4706 127.926 77.5794 128.022 77.6637 128.131C77.7479 128.239 77.79 128.361 77.79 128.496C77.79 128.665 77.7233 128.813 77.59 128.94C77.4566 129.064 77.2811 129.167 77.0635 129.249C76.8389 129.335 76.5827 129.401 76.2949 129.446ZM75.1893 127.748H74.168V129.064H75.3368C75.5544 129.064 75.7579 129.05 75.9474 129.024C76.137 128.998 76.3054 128.957 76.4528 128.901C76.5932 128.848 76.7055 128.783 76.7898 128.704C76.874 128.625 76.9161 128.531 76.9161 128.423C76.9161 128.307 76.867 128.206 76.7687 128.119C76.6704 128.033 76.5441 127.962 76.3897 127.906C76.2282 127.853 76.0422 127.814 75.8316 127.788C75.621 127.761 75.4069 127.748 75.1893 127.748ZM75.2841 126.017H74.168V127.304H75.3052C75.7193 127.304 76.0457 127.243 76.2844 127.119C76.53 126.995 76.6529 126.832 76.6529 126.63C76.6529 126.514 76.6143 126.416 76.5371 126.338C76.4669 126.255 76.3651 126.19 76.2317 126.141C76.1124 126.1 75.972 126.07 75.8106 126.051C75.6491 126.029 75.4736 126.017 75.2841 126.017Z" fill="url(#paint4_linear_1_93)"/>
<path fill-rule="evenodd" clip-rule="evenodd" d="M73.9596 117.291C72.187 117.291 70.75 118.728 70.75 120.5C70.75 122.273 72.187 123.71 73.9596 123.71H89.2828C91.0554 123.71 92.4924 122.273 92.4924 120.5C92.4924 118.728 91.0554 117.291 89.2828 117.291H73.9596ZM80.4759 122.042V122.467H78.6191V122.042H79.305C79.6897 121.451 80.0744 120.867 80.4591 120.29C80.8494 119.71 81.2369 119.124 81.6217 118.533C82.0064 119.124 82.3911 119.71 82.7758 120.29C83.1661 120.867 83.5537 121.451 83.9384 122.042H84.6242V122.467H82.7675V122.042H83.2358C83.1187 121.863 83.0017 121.686 82.8846 121.51C82.8244 121.416 82.7634 121.32 82.7017 121.225H80.539L80.3504 121.51L79.9991 122.042H80.4759ZM81.5297 119.699C81.5352 119.688 81.5436 119.67 81.5548 119.645C81.5715 119.62 81.591 119.579 81.6133 119.522L81.6969 119.699L82.2573 120.554H80.986C81.0641 120.428 81.1477 120.29 81.2369 120.14C81.3317 119.986 81.4293 119.839 81.5297 119.699ZM87.82 122.467V122.023H86.607V120.713H87.0539H87.2774C87.3341 120.71 87.4121 120.708 87.5114 120.708L89.0755 122.467H90.629V122.023H89.6288L88.4371 120.674C88.9478 120.614 89.3344 120.491 89.5969 120.303C89.8664 120.116 90.0012 119.882 90.0012 119.601C90.0012 119.41 89.9161 119.247 89.7458 119.112C89.5756 118.977 89.3628 118.866 89.1074 118.78C88.8521 118.694 88.5754 118.632 88.2775 118.595C87.9867 118.553 87.7207 118.533 87.4795 118.533H85.2451V118.977H85.7239V122.023H85.2451V122.467H87.82ZM86.607 118.977H87.5434C87.7632 118.977 87.969 118.994 88.1605 119.027C88.3591 119.061 88.5293 119.106 88.6712 119.162C88.806 119.222 88.9124 119.29 88.9904 119.365C89.0755 119.439 89.1181 119.518 89.1181 119.601C89.1181 119.672 89.0932 119.747 89.0436 119.825C88.9939 119.904 88.9088 119.975 88.7882 120.039C88.6676 120.103 88.5045 120.157 88.2988 120.202C88.1002 120.243 87.8448 120.264 87.5327 120.264H86.607V118.977ZM76.2949 122.405C76.0071 122.446 75.7123 122.467 75.4105 122.467H72.8203V122.023H73.2941V118.977H72.8203V118.533H75.2209C75.5649 118.533 75.8772 118.551 76.158 118.589C76.4458 118.626 76.6915 118.684 76.895 118.763C77.0916 118.842 77.246 118.945 77.3583 119.072C77.4706 119.196 77.5268 119.344 77.5268 119.516C77.5268 119.749 77.4215 119.953 77.2109 120.129C77.0074 120.305 76.695 120.425 76.2738 120.489C76.4704 120.511 76.6599 120.549 76.8424 120.601C77.0319 120.654 77.1969 120.721 77.3373 120.803C77.4706 120.886 77.5794 120.981 77.6637 121.09C77.7479 121.199 77.79 121.32 77.79 121.455C77.79 121.624 77.7233 121.772 77.59 121.899C77.4566 122.023 77.2811 122.126 77.0635 122.209C76.8389 122.295 76.5827 122.36 76.2949 122.405ZM75.1893 120.708H74.168V122.023H75.3368C75.5544 122.023 75.7579 122.01 75.9474 121.984C76.137 121.957 76.3054 121.916 76.4528 121.86C76.5932 121.808 76.7055 121.742 76.7898 121.663C76.874 121.585 76.9161 121.491 76.9161 121.382C76.9161 121.266 76.867 121.165 76.7687 121.079C76.6704 120.993 76.5441 120.921 76.3897 120.865C76.2282 120.813 76.0422 120.773 75.8316 120.747C75.621 120.721 75.4069 120.708 75.1893 120.708ZM75.2841 118.977H74.168V120.264H75.3052C75.7193 120.264 76.0457 120.202 76.2844 120.078C76.53 119.955 76.6529 119.792 76.6529 119.589C76.6529 119.473 76.6143 119.376 76.5371 119.297C76.4669 119.215 76.3651 119.149 76.2317 119.1C76.1124 119.059 75.972 119.029 75.8106 119.01C75.6491 118.988 75.4736 118.977 75.2841 118.977Z" fill="url(#paint5_linear_1_93)"/>
<path fill-rule="evenodd" clip-rule="evenodd" d="M73.9596 110.25C72.187 110.25 70.75 111.687 70.75 113.46C70.75 115.232 72.187 116.669 73.9596 116.669H89.2828C91.0554 116.669 92.4924 115.232 92.4924 113.46C92.4924 111.687 91.0554 110.25 89.2828 110.25H73.9596ZM80.4759 115.002V115.427H78.6191V115.002H79.305C79.6897 114.411 80.0744 113.827 80.4591 113.25C80.8494 112.669 81.2369 112.083 81.6217 111.492C82.0064 112.083 82.3911 112.669 82.7758 113.25C83.1661 113.827 83.5537 114.411 83.9384 115.002H84.6242V115.427H82.7675V115.002H83.2358C83.1187 114.823 83.0017 114.645 82.8846 114.47C82.8244 114.375 82.7634 114.28 82.7017 114.184H80.539L80.3504 114.47L79.9991 115.002H80.4759ZM81.5297 112.659C81.5352 112.648 81.5436 112.63 81.5548 112.605C81.5715 112.58 81.591 112.538 81.6133 112.481L81.6969 112.659L82.2573 113.513H80.986C81.0641 113.388 81.1477 113.25 81.2369 113.099C81.3317 112.945 81.4293 112.798 81.5297 112.659ZM87.82 115.427V114.983H86.607V113.673H87.0539H87.2774C87.3341 113.669 87.4121 113.667 87.5114 113.667L89.0755 115.427H90.629V114.983H89.6288L88.4371 113.634C88.9478 113.574 89.3344 113.45 89.5969 113.263C89.8664 113.075 90.0012 112.841 90.0012 112.56C90.0012 112.369 89.9161 112.206 89.7458 112.071C89.5756 111.936 89.3628 111.826 89.1074 111.739C88.8521 111.653 88.5754 111.591 88.2775 111.554C87.9867 111.513 87.7207 111.492 87.4795 111.492H85.2451V111.936H85.7239V114.983H85.2451V115.427H87.82ZM86.607 111.936H87.5434C87.7632 111.936 87.969 111.953 88.1605 111.987C88.3591 112.021 88.5293 112.065 88.6712 112.122C88.806 112.182 88.9124 112.249 88.9904 112.324C89.0755 112.399 89.1181 112.478 89.1181 112.56C89.1181 112.631 89.0932 112.706 89.0436 112.785C88.9939 112.864 88.9088 112.935 88.7882 112.998C88.6676 113.062 88.5045 113.117 88.2988 113.161C88.1002 113.203 87.8448 113.223 87.5327 113.223H86.607V111.936ZM76.2949 115.365C76.0071 115.406 75.7123 115.427 75.4105 115.427H72.8203V114.983H73.2941V111.936H72.8203V111.492H75.2209C75.5649 111.492 75.8772 111.511 76.158 111.548C76.4458 111.586 76.6915 111.644 76.895 111.723C77.0916 111.801 77.246 111.904 77.3583 112.032C77.4706 112.155 77.5268 112.303 77.5268 112.476C77.5268 112.708 77.4215 112.912 77.2109 113.088C77.0074 113.265 76.695 113.384 76.2738 113.448C76.4704 113.471 76.6599 113.508 76.8424 113.561C77.0319 113.613 77.1969 113.68 77.3373 113.763C77.4706 113.845 77.5794 113.941 77.6637 114.05C77.7479 114.158 77.79 114.28 77.79 114.415C77.79 114.583 77.7233 114.731 77.59 114.859C77.4566 114.983 77.2811 115.086 77.0635 115.168C76.8389 115.254 76.5827 115.32 76.2949 115.365ZM75.1893 113.667H74.168V114.983H75.3368C75.5544 114.983 75.7579 114.969 75.9474 114.943C76.137 114.917 76.3054 114.876 76.4528 114.82C76.5932 114.767 76.7055 114.701 76.7898 114.623C76.874 114.544 76.9161 114.45 76.9161 114.342C76.9161 114.226 76.867 114.124 76.7687 114.038C76.6704 113.952 76.5441 113.881 76.3897 113.825C76.2282 113.772 76.0422 113.733 75.8316 113.707C75.621 113.68 75.4069 113.667 75.1893 113.667ZM75.2841 111.936H74.168V113.223H75.3052C75.7193 113.223 76.0457 113.161 76.2844 113.038C76.53 112.914 76.6529 112.751 76.6529 112.549C76.6529 112.433 76.6143 112.335 76.5371 112.257C76.4669 112.174 76.3651 112.109 76.2317 112.06C76.1124 112.019 75.972 111.989 75.8106 111.97C75.6491 111.947 75.4736 111.936 75.2841 111.936Z" fill="url(#paint6_linear_1_93)"/>
<path d="M31.4487 130.25C31.4487 128.001 33.3494 119.579 38.75 113.165L36.2169 110.767C32.1937 113.464 28.1705 110.917 25.3394 110.767C22.5083 110.618 21.5664 111.456 19.8262 112.416V111.217H16.25V119.909H19.8262C19.784 116.718 24.4454 117.961 27.5745 118.261C30.7036 118.56 30.3908 117.964 32.1937 117.212C29.9069 119.586 26.2334 121.857 23.2533 123.656C20.2732 125.454 20.2496 127.525 20.2732 130.25H31.4487Z" fill="url(#paint7_linear_1_93)"/>
<path d="M113.578 114.123H115.834V128H112.973V117.678L111.195 119.416L109.779 117.258L113.578 114.123ZM129.74 116.223C129.2 116.223 128.809 116.597 128.568 117.346C128.334 118.088 128.217 119.325 128.217 121.057C128.217 122.788 128.334 124.025 128.568 124.768C128.809 125.51 129.2 125.881 129.74 125.881C130.274 125.881 130.658 125.507 130.893 124.758C131.133 124.003 131.254 122.769 131.254 121.057C131.254 119.344 131.133 118.111 130.893 117.355C130.658 116.6 130.274 116.223 129.74 116.223ZM129.721 113.879C131.186 113.879 132.312 114.497 133.1 115.734C133.887 116.965 134.281 118.739 134.281 121.057C134.281 123.361 133.884 125.132 133.09 126.369C132.302 127.606 131.179 128.225 129.721 128.225C128.243 128.225 127.117 127.613 126.342 126.389C125.567 125.158 125.18 123.381 125.18 121.057C125.18 118.719 125.567 116.939 126.342 115.715C127.117 114.491 128.243 113.879 129.721 113.879ZM140.248 116.223C139.708 116.223 139.317 116.597 139.076 117.346C138.842 118.088 138.725 119.325 138.725 121.057C138.725 122.788 138.842 124.025 139.076 124.768C139.317 125.51 139.708 125.881 140.248 125.881C140.782 125.881 141.166 125.507 141.4 124.758C141.641 124.003 141.762 122.769 141.762 121.057C141.762 119.344 141.641 118.111 141.4 117.355C141.166 116.6 140.782 116.223 140.248 116.223ZM140.229 113.879C141.693 113.879 142.82 114.497 143.607 115.734C144.395 116.965 144.789 118.739 144.789 121.057C144.789 123.361 144.392 125.132 143.598 126.369C142.81 127.606 141.687 128.225 140.229 128.225C138.751 128.225 137.624 127.613 136.85 126.389C136.075 125.158 135.688 123.381 135.688 121.057C135.688 118.719 136.075 116.939 136.85 115.715C137.624 114.491 138.751 113.879 140.229 113.879ZM150.756 116.223C150.215 116.223 149.825 116.597 149.584 117.346C149.35 118.088 149.232 119.325 149.232 121.057C149.232 122.788 149.35 124.025 149.584 124.768C149.825 125.51 150.215 125.881 150.756 125.881C151.29 125.881 151.674 125.507 151.908 124.758C152.149 124.003 152.27 122.769 152.27 121.057C152.27 119.344 152.149 118.111 151.908 117.355C151.674 116.6 151.29 116.223 150.756 116.223ZM150.736 113.879C152.201 113.879 153.327 114.497 154.115 115.734C154.903 116.965 155.297 118.739 155.297 121.057C155.297 123.361 154.9 125.132 154.105 126.369C153.318 127.606 152.195 128.225 150.736 128.225C149.258 128.225 148.132 127.613 147.357 126.389C146.583 125.158 146.195 123.381 146.195 121.057C146.195 118.719 146.583 116.939 147.357 115.715C148.132 114.491 149.258 113.879 150.736 113.879Z" fill="#05070E"/>
<path d="M29.3434 102.5C28.5622 102.5 27.8245 102.326 27.1726 102.018C26.5208 102.326 25.7831 102.5 25.0019 102.5C23.0057 102.5 21.6096 101.356 20.5711 99.7535C18.3797 96.3727 18.3599 93.3451 18.6036 90.713C18.8473 88.081 20.7522 86.25 23.4024 86.25C25.0714 86.25 26.5415 87.0426 27.4012 88.2451C27.869 87.5907 28.5176 87.0577 29.2806 86.7077C29.9198 86.4147 30.6392 86.25 31.3999 86.25C34.0501 86.25 36.0585 88.2522 36.1985 90.713C36.4263 94.7183 35.9395 97.1739 33.9128 99.7535C32.3133 101.789 31.3396 102.5 29.3434 102.5Z" fill="url(#paint8_linear_1_93)"/>
<path d="M23.1631 81.1841C23.4435 85.2429 24.851 86.8039 26.6527 85.3127C28.3851 83.4675 26.8792 81.7788 23.1631 81.1841Z" fill="#41BC7D"/>
<path d="M30.1029 80.5C31.621 80.5026 32.285 80.6627 32.2486 81.9825C30.2131 83.2021 28.9726 84.9357 28.081 87H26.5C27.1644 84.5309 28.2709 82.4702 30.1029 80.5Z" fill="#41BC7D"/>
<circle cx="75.25" cy="95" r="5" fill="url(#paint9_linear_1_93)"/>
<ellipse cx="87.375" cy="95" rx="5.125" ry="5" fill="url(#paint10_linear_1_93)"/>
<path d="M82.149 83.3565C81.6286 83.2361 81.3283 83.1944 80.7115 83.3565C80.3326 86.086 80.0018 87.6195 78.5 90.385C79.0752 90.7038 79.3532 90.8907 79.7163 91.25C80.5139 89.8122 80.825 88.9922 81.1538 87.5736C81.1538 87.5736 81.3559 87.5058 81.4856 87.5736C82.0279 89.0831 82.3441 89.9236 83.2548 91.25C83.5867 90.8157 83.8064 90.6041 84.25 90.2768C82.6641 87.6965 82.2206 86.1739 82.149 83.3565Z" fill="#41BC7D"/>
<path d="M75.458 87.2979C79.2899 86.7363 80.669 85.2868 79.1225 83.6854C77.2452 82.1754 75.752 83.7276 75.458 87.2979Z" fill="#41BC7D"/>
<path d="M65.25 86.5C65.25 92.5751 60.3811 97.5 54.375 97.5C48.3689 97.5 43.5 92.5751 43.5 86.5H65.25Z" fill="#41BC7D"/>
<path d="M64 86.5C64 91.7467 59.6907 96 54.375 96C49.0593 96 44.75 91.7467 44.75 86.5H64Z" fill="url(#paint11_linear_1_93)"/>
<path d="M54.2637 90.5C53.5706 91.612 53.6431 92.285 54.3947 92.236C55.1951 92.0817 55.121 91.3567 54.2637 90.5Z" fill="#09120D"/>
<path d="M57.9004 89.3359C58.1888 90.6141 58.7134 91.0419 59.2137 90.4788C59.6746 89.8065 59.1124 89.3429 57.9004 89.3359Z" fill="#09120D"/>
<path d="M50.7012 89.2998C49.4461 89.6763 49.0558 90.2294 49.6523 90.6893C50.355 91.1024 50.7784 90.5094 50.7012 89.2998Z" fill="#09120D"/>
<path d="M125.854 85.123H133.314V87.3789H128.539V90.0352C128.708 90.0091 128.881 89.9896 129.057 89.9766C129.239 89.9635 129.431 89.957 129.633 89.957C130.967 89.957 132.022 90.3574 132.797 91.1582C133.572 91.9525 133.959 93.0267 133.959 94.3809C133.959 95.8262 133.487 96.9948 132.543 97.8867C131.605 98.7786 130.368 99.2246 128.832 99.2246C128.279 99.2246 127.729 99.1758 127.182 99.0781C126.641 98.987 126.114 98.847 125.6 98.6582L125.736 96.1582C126.114 96.3665 126.527 96.526 126.977 96.6367C127.432 96.7474 127.904 96.8027 128.393 96.8027C129.161 96.8027 129.76 96.6042 130.189 96.207C130.619 95.8099 130.834 95.2598 130.834 94.5566C130.834 93.7559 130.6 93.1439 130.131 92.7207C129.669 92.291 128.998 92.0762 128.119 92.0762C127.774 92.0762 127.413 92.1087 127.035 92.1738C126.664 92.2389 126.27 92.3333 125.854 92.457V85.123ZM140.248 87.2227C139.708 87.2227 139.317 87.597 139.076 88.3457C138.842 89.0879 138.725 90.3249 138.725 92.0566C138.725 93.7884 138.842 95.0254 139.076 95.7676C139.317 96.5098 139.708 96.8809 140.248 96.8809C140.782 96.8809 141.166 96.5065 141.4 95.7578C141.641 95.0026 141.762 93.7689 141.762 92.0566C141.762 90.3444 141.641 89.1107 141.4 88.3555C141.166 87.6003 140.782 87.2227 140.248 87.2227ZM140.229 84.8789C141.693 84.8789 142.82 85.4974 143.607 86.7344C144.395 87.9648 144.789 89.7389 144.789 92.0566C144.789 94.3613 144.392 96.1322 143.598 97.3691C142.81 98.6061 141.687 99.2246 140.229 99.2246C138.751 99.2246 137.624 98.6126 136.85 97.3887C136.075 96.1582 135.688 94.3809 135.688 92.0566C135.688 89.7194 136.075 87.9388 136.85 86.7148C137.624 85.4909 138.751 84.8789 140.229 84.8789ZM150.756 87.2227C150.215 87.2227 149.825 87.597 149.584 88.3457C149.35 89.0879 149.232 90.3249 149.232 92.0566C149.232 93.7884 149.35 95.0254 149.584 95.7676C149.825 96.5098 150.215 96.8809 150.756 96.8809C151.29 96.8809 151.674 96.5065 151.908 95.7578C152.149 95.0026 152.27 93.7689 152.27 92.0566C152.27 90.3444 152.149 89.1107 151.908 88.3555C151.674 87.6003 151.29 87.2227 150.756 87.2227ZM150.736 84.8789C152.201 84.8789 153.327 85.4974 154.115 86.7344C154.903 87.9648 155.297 89.7389 155.297 92.0566C155.297 94.3613 154.9 96.1322 154.105 97.3691C153.318 98.6061 152.195 99.2246 150.736 99.2246C149.258 99.2246 148.132 98.6126 147.357 97.3887C146.583 96.1582 146.195 94.3809 146.195 92.0566C146.195 89.7194 146.583 87.9388 147.357 86.7148C148.132 85.4909 149.258 84.8789 150.736 84.8789Z" fill="#05070E"/>
<circle cx="53.75" cy="64.75" r="8.75" fill="url(#paint12_linear_1_93)"/>
<path d="M53.8824 51.5C53.6906 52.7331 53.7218 53.587 53.8824 55.2298C57.0332 55.6682 58.3465 56.2236 59.9175 57.75C60.0441 56.8401 60.0095 56.4322 59.9175 55.7339C58.0919 54.1753 55.9773 52.916 53.8824 51.5Z" fill="#41BC7D"/>
<path d="M27.25 73.5C32.3586 73.5 36.5 69.4706 36.5 64.5C36.5 63.0449 36.5 62.2914 37.0385 61.3163C37.1013 61.2024 37.1716 61.0855 37.25 60.9641C37.4098 60.6379 37.5 60.2676 37.5 59.875C37.5 58.5633 36.5 57.5 35.25 57.5L35.2221 57.5002C33.7509 57.5082 33.0362 57.3016 31.8894 56.7121C31.7439 56.6374 31.5914 56.5564 31.4295 56.4689C30.1742 55.8492 28.754 55.5 27.25 55.5C22.1414 55.5 18 59.5294 18 64.5C18 66.0312 18.222 66.6745 17.6201 67.8195C17.5833 67.8896 17.5433 67.9616 17.5 68.0359C17.3402 68.3621 17.25 68.7324 17.25 69.125C17.25 70.4367 18.2574 71.5 19.5 71.5C20.75 71.5 21.125 71.375 21.875 71.8255C23.3899 72.8796 25.2455 73.5 27.25 73.5Z" fill="url(#paint13_linear_1_93)"/>
<path d="M27.875 51.5L28.2498 54.75C28.2498 54.75 31.3359 54.8501 33.9999 56.875C35.4998 56.9657 35.5001 57.0075 36.625 56.875C36.7418 55.9918 35.9395 54.2668 33.875 53.625C31.8613 53.1027 27.875 51.5 27.875 51.5Z" fill="#41BC7D"/>
<path d="M71.7027 58.5133C77.5688 61.1744 80.7338 61.1899 86.0251 57L87.1185 57.6486C84.0877 62.201 81.952 64.1593 74.7639 63.0533L74.108 63.7019C71.898 63.0254 71.3591 61.7614 70.5 59.3781L71.7027 58.5133Z" fill="url(#paint14_linear_1_93)"/>
<path d="M74.9826 63.9181C81.951 64.5667 84.2786 62.8633 87.8838 57.6486H88.8678C87.4959 63.0958 86.5168 65.9876 79.4652 67.0528L78.6999 68.2419C75.8314 67.4288 75.2094 66.5214 73.8893 64.999L74.9826 63.9181Z" fill="url(#paint15_linear_1_93)"/>
<path d="M91.2731 57.2162C95.3184 66.0799 88.8678 72.7818 79.1372 69.3228L79.4652 67.9176C86.6653 66.0177 88.3839 63.4182 89.7424 57.6486L91.2731 57.2162Z" fill="url(#paint16_linear_1_93)"/>
<path d="M90.3214 54.75L90.75 56.5716C88.7784 57.1475 87.7939 57.138 86.25 56.5716L87 54.75H90.3214Z" fill="#41BC7D"/>
<path d="M129.359 56.123H131.615V70H128.754V59.6777L126.977 61.416L125.561 59.2578L129.359 56.123ZM140.248 58.2227C139.708 58.2227 139.317 58.597 139.076 59.3457C138.842 60.0879 138.725 61.3249 138.725 63.0566C138.725 64.7884 138.842 66.0254 139.076 66.7676C139.317 67.5098 139.708 67.8809 140.248 67.8809C140.782 67.8809 141.166 67.5065 141.4 66.7578C141.641 66.0026 141.762 64.7689 141.762 63.0566C141.762 61.3444 141.641 60.1107 141.4 59.3555C141.166 58.6003 140.782 58.2227 140.248 58.2227ZM140.229 55.8789C141.693 55.8789 142.82 56.4974 143.607 57.7344C144.395 58.9648 144.789 60.7389 144.789 63.0566C144.789 65.3613 144.392 67.1322 143.598 68.3691C142.81 69.6061 141.687 70.2246 140.229 70.2246C138.751 70.2246 137.624 69.6126 136.85 68.3887C136.075 67.1582 135.688 65.3809 135.688 63.0566C135.688 60.7194 136.075 58.9388 136.85 57.7148C137.624 56.4909 138.751 55.8789 140.229 55.8789ZM150.756 58.2227C150.215 58.2227 149.825 58.597 149.584 59.3457C149.35 60.0879 149.232 61.3249 149.232 63.0566C149.232 64.7884 149.35 66.0254 149.584 66.7676C149.825 67.5098 150.215 67.8809 150.756 67.8809C151.29 67.8809 151.674 67.5065 151.908 66.7578C152.149 66.0026 152.27 64.7689 152.27 63.0566C152.27 61.3444 152.149 60.1107 151.908 59.3555C151.674 58.6003 151.29 58.2227 150.756 58.2227ZM150.736 55.8789C152.201 55.8789 153.327 56.4974 154.115 57.7344C154.903 58.9648 155.297 60.7389 155.297 63.0566C155.297 65.3613 154.9 67.1322 154.105 68.3691C153.318 69.6061 152.195 70.2246 150.736 70.2246C149.258 70.2246 148.132 69.6126 147.357 68.3887C146.583 67.1582 146.195 65.3809 146.195 63.0566C146.195 60.7194 146.583 58.9388 147.357 57.7148C148.132 56.4909 149.258 55.8789 150.736 55.8789Z" fill="#05070E"/>
<path d="M45.3613 26.123H52.8223V28.3789H48.0469V31.0352C48.2161 31.0091 48.3887 30.9896 48.5645 30.9766C48.7467 30.9635 48.9388 30.957 49.1406 30.957C50.4753 30.957 51.5299 31.3574 52.3047 32.1582C53.0794 32.9525 53.4668 34.0267 53.4668 35.3809C53.4668 36.8262 52.9948 37.9948 52.0508 38.8867C51.1133 39.7786 49.8763 40.2246 48.3398 40.2246C47.7865 40.2246 47.2363 40.1758 46.6895 40.0781C46.1491 39.987 45.6217 39.847 45.1074 39.6582L45.2441 37.1582C45.6217 37.3665 46.0352 37.526 46.4844 37.6367C46.9401 37.7474 47.4121 37.8027 47.9004 37.8027C48.6686 37.8027 49.2676 37.6042 49.6973 37.207C50.127 36.8099 50.3418 36.2598 50.3418 35.5566C50.3418 34.7559 50.1074 34.1439 49.6387 33.7207C49.1764 33.291 48.5059 33.0762 47.627 33.0762C47.2819 33.0762 46.9206 33.1087 46.543 33.1738C46.1719 33.2389 45.778 33.3333 45.3613 33.457V26.123ZM59.7559 28.2227C59.2155 28.2227 58.8249 28.597 58.584 29.3457C58.3496 30.0879 58.2324 31.3249 58.2324 33.0566C58.2324 34.7884 58.3496 36.0254 58.584 36.7676C58.8249 37.5098 59.2155 37.8809 59.7559 37.8809C60.2897 37.8809 60.6738 37.5065 60.9082 36.7578C61.1491 36.0026 61.2695 34.7689 61.2695 33.0566C61.2695 31.3444 61.1491 30.1107 60.9082 29.3555C60.6738 28.6003 60.2897 28.2227 59.7559 28.2227ZM59.7363 25.8789C61.2012 25.8789 62.3275 26.4974 63.1152 27.7344C63.903 28.9648 64.2969 30.7389 64.2969 33.0566C64.2969 35.3613 63.8997 37.1322 63.1055 38.3691C62.3177 39.6061 61.1947 40.2246 59.7363 40.2246C58.2585 40.2246 57.1322 39.6126 56.3574 38.3887C55.5827 37.1582 55.1953 35.3809 55.1953 33.0566C55.1953 30.7194 55.5827 28.9388 56.3574 27.7148C57.1322 26.4909 58.2585 25.8789 59.7363 25.8789Z" fill="#05070E"/>
<path d="M107.211 26.123H109.467V40H106.605V29.6777L104.828 31.416L103.412 29.2578L107.211 26.123ZM126.811 26.3379L126.625 28.8379C126.137 28.623 125.661 28.4603 125.199 28.3496C124.737 28.2389 124.307 28.1836 123.91 28.1836C123.298 28.1836 122.823 28.3073 122.484 28.5547C122.152 28.8021 121.986 29.1504 121.986 29.5996C121.986 30.0163 122.126 30.3678 122.406 30.6543C122.686 30.9408 123.259 31.2891 124.125 31.6992C125.57 32.3958 126.505 33.0339 126.928 33.6133C127.357 34.1927 127.572 34.9544 127.572 35.8984C127.572 37.2331 127.133 38.2878 126.254 39.0625C125.375 39.8372 124.174 40.2246 122.65 40.2246C122.123 40.2246 121.57 40.1725 120.99 40.0684C120.411 39.9707 119.783 39.821 119.105 39.6191L119.35 37.1191C119.936 37.4056 120.489 37.6172 121.01 37.7539C121.531 37.8906 122.032 37.959 122.514 37.959C123.145 37.959 123.637 37.8158 123.988 37.5293C124.346 37.2363 124.525 36.8327 124.525 36.3184C124.525 35.5957 123.786 34.86 122.309 34.1113C122.126 34.0202 121.99 33.9518 121.898 33.9062C120.727 33.3138 119.945 32.7409 119.555 32.1875C119.164 31.6341 118.969 30.9245 118.969 30.0586C118.969 28.7565 119.395 27.7344 120.248 26.9922C121.107 26.25 122.296 25.8789 123.812 25.8789C124.275 25.8789 124.753 25.918 125.248 25.9961C125.743 26.0677 126.264 26.1816 126.811 26.3379ZM132.543 38.584V44.3555H129.506V32.3242C129.506 32.2266 129.49 31.7708 129.457 30.957C129.438 30.4232 129.421 29.9837 129.408 29.6387H132.338C132.357 29.8079 132.374 30.0098 132.387 30.2441C132.4 30.4785 132.413 30.8105 132.426 31.2402C132.758 30.6217 133.152 30.166 133.607 29.873C134.07 29.5736 134.61 29.4238 135.229 29.4238C136.394 29.4238 137.289 29.8861 137.914 30.8105C138.546 31.735 138.861 33.0729 138.861 34.8242C138.861 36.5885 138.549 37.9297 137.924 38.8477C137.305 39.7656 136.394 40.2246 135.189 40.2246C134.604 40.2246 134.102 40.0944 133.686 39.834C133.269 39.5736 132.888 39.1569 132.543 38.584ZM132.543 35.2637C132.543 36.1035 132.68 36.7546 132.953 37.2168C133.227 37.6725 133.611 37.9004 134.105 37.9004C134.613 37.9004 135.001 37.64 135.268 37.1191C135.535 36.5983 135.668 35.8333 135.668 34.8242C135.668 33.7956 135.535 33.0176 135.268 32.4902C135.007 31.9629 134.62 31.6992 134.105 31.6992C133.611 31.6992 133.227 31.9303 132.953 32.3926C132.68 32.8483 132.543 33.4961 132.543 34.3359V35.2637ZM140.795 29.6387H143.812V40H140.795V29.6387ZM140.795 25.1758H143.812V27.8809H140.795V25.1758ZM154.887 32.9199V40H151.84V33.6035C151.84 33.0371 151.745 32.6237 151.557 32.3633C151.374 32.0964 151.085 31.9629 150.688 31.9629C150.238 31.9629 149.893 32.1452 149.652 32.5098C149.418 32.8743 149.301 33.4049 149.301 34.1016V40H146.264V31.8848C146.264 31.2858 146.254 30.8301 146.234 30.5176C146.221 30.2051 146.199 29.9121 146.166 29.6387H148.939C148.979 29.9512 149.005 30.2376 149.018 30.498C149.037 30.752 149.047 30.9928 149.047 31.2207C149.281 30.6608 149.656 30.2214 150.17 29.9023C150.691 29.5833 151.283 29.4238 151.947 29.4238C152.904 29.4238 153.633 29.7201 154.135 30.3125C154.636 30.9049 154.887 31.7741 154.887 32.9199Z" fill="#05070E"/>
<path fill-rule="evenodd" clip-rule="evenodd" d="M34.5684 29.5609L34.786 23.9024L34.9203 23.9075L34.9169 23.9023H29.3452L34.5684 29.5609ZM27.9843 23.9023H21.6657L22.3194 29.5673L27.9843 23.9024L27.9843 23.9023ZM28.6631 24.6378L23.3351 29.9658H33.5813L28.6631 24.6378ZM17 30.9658H21.6308L26.2889 39.8147L17 30.9658ZM28.043 41.0002C28.0546 40.9642 28.0704 40.9289 28.0907 40.8951L34.0483 30.9658H22.7609L28.043 41.0002ZM30.2057 39.3137L38.9687 30.9658H35.1804L35.2054 30.9808L34.9482 31.4096L30.2057 39.3137ZM35.5536 29.9658H38.8732L35.7384 25.1614L35.5536 29.9658ZM17.0956 29.9658L20.7181 24.4139L21.3587 29.9658H17.0956Z" fill="#B1C9F8" fill-opacity="0.99"/>
<path d="M79.2624 30.6956C79.2916 30.7312 79.2749 30.7855 79.231 30.7993C77.9234 31.2118 77.0072 32.3265 77 33.5791C76.9928 34.8613 78.0077 36.7903 79.933 36.5448C81.5075 36.344 85.6705 34.907 87.1357 34.3898C87.2075 34.3645 87.2564 34.4661 87.1929 34.508C84.2249 36.4691 80.9958 38.8659 80.725 40.0786C80.4401 41.3545 81.4258 43.172 82.8275 43.5883C84.193 43.9938 84.5145 43.6907 85.4606 42.9398C85.4967 42.9112 85.5506 42.9288 85.5637 42.973C85.9544 44.2869 87.054 45.2214 88.3065 45.2494C89.5887 45.278 91.5347 44.2955 91.3212 42.3667C91.1476 40.7986 89.8443 36.6628 89.3628 35.1705C89.3393 35.0977 89.4428 35.0502 89.4827 35.1154C91.3326 38.143 93.6019 41.4055 94.8016 41.7195C96.0666 42.0506 97.9191 41.1318 98.3861 39.7464C98.8411 38.3968 98.5498 38.0646 97.8337 37.0921C97.8064 37.055 97.826 37.0017 97.8706 36.9902C99.1981 36.6476 100.172 35.583 100.246 34.3325C100.321 33.0525 99.4097 31.0724 97.474 31.2156C95.8291 31.3373 91.2588 32.5603 89.9227 32.925C89.8528 32.9441 89.8108 32.8491 89.8704 32.8079C92.8307 30.7641 96.1011 28.238 96.3486 27.0007C96.605 25.7187 95.579 23.9236 94.1684 23.5387C92.7942 23.1637 92.4796 23.4738 91.5505 24.2456C91.515 24.275 91.4607 24.2586 91.4466 24.2148C91.0267 22.9098 89.9066 22 88.6537 22C87.3712 22 85.4476 23.0255 85.704 24.9491C85.9158 26.5381 87.3529 30.7514 87.8464 32.1693C87.8712 32.2404 87.7713 32.2877 87.7287 32.2256C85.7149 29.2889 83.2677 26.1657 82.0451 25.9141C80.7643 25.6505 78.9631 26.6661 78.5701 28.0743C78.1873 29.4461 78.4957 29.7624 79.2624 30.6956Z" fill="#41BC7D"/>
<defs>
<linearGradient id="paint0_linear_1_93" x1="16.25" y1="139.75" x2="35.1363" y2="159.124" gradientUnits="userSpaceOnUse">
<stop stop-color="#FEC73B"/>
<stop offset="1" stop-color="#F29E20"/>
</linearGradient>
<linearGradient id="paint1_linear_1_93" x1="43.25" y1="139.75" x2="62.1363" y2="159.124" gradientUnits="userSpaceOnUse">
<stop stop-color="#FEC73B"/>
<stop offset="1" stop-color="#F29E20"/>
</linearGradient>
<linearGradient id="paint2_linear_1_93" x1="70.25" y1="139.75" x2="89.1363" y2="159.124" gradientUnits="userSpaceOnUse">
<stop stop-color="#FEC73B"/>
<stop offset="1" stop-color="#F29E20"/>
</linearGradient>
<linearGradient id="paint3_linear_1_93" x1="43.25" y1="109.25" x2="65.75" y2="131.75" gradientUnits="userSpaceOnUse">
<stop stop-color="#F3B415"/>
<stop offset="1" stop-color="#F2B014"/>
</linearGradient>
<linearGradient id="paint4_linear_1_93" x1="70.5429" y1="124.46" x2="74.5228" y2="136.869" gradientUnits="userSpaceOnUse">
<stop stop-color="#FC6868"/>
<stop offset="1" stop-color="#E82A2A"/>
</linearGradient>
<linearGradient id="paint5_linear_1_93" x1="70.5429" y1="117.42" x2="74.5228" y2="129.829" gradientUnits="userSpaceOnUse">
<stop stop-color="#FC6868"/>
<stop offset="1" stop-color="#E82A2A"/>
</linearGradient>
<linearGradient id="paint6_linear_1_93" x1="70.5429" y1="110.38" x2="74.5228" y2="122.788" gradientUnits="userSpaceOnUse">
<stop stop-color="#FC6868"/>
<stop offset="1" stop-color="#E82A2A"/>
</linearGradient>
<linearGradient id="paint7_linear_1_93" x1="16.25" y1="110.75" x2="35.1363" y2="130.124" gradientUnits="userSpaceOnUse">
<stop stop-color="#FEC73B"/>
<stop offset="1" stop-color="#F29E20"/>
</linearGradient>
<linearGradient id="paint8_linear_1_93" x1="19.2998" y1="87.8521" x2="35.0856" y2="100.072" gradientUnits="userSpaceOnUse">
<stop stop-color="#DC2041"/>
<stop offset="1" stop-color="#BB203F"/>
</linearGradient>
<linearGradient id="paint9_linear_1_93" x1="71.5266" y1="92.1277" x2="78.9734" y2="100" gradientUnits="userSpaceOnUse">
<stop stop-color="#DC2041"/>
<stop offset="1" stop-color="#BB203F"/>
</linearGradient>
<linearGradient id="paint10_linear_1_93" x1="83.6676" y1="91.7021" x2="91.1174" y2="99.1201" gradientUnits="userSpaceOnUse">
<stop stop-color="#DC2041"/>
<stop offset="1" stop-color="#BB203F"/>
</linearGradient>
<linearGradient id="paint11_linear_1_93" x1="44.75" y1="86.5" x2="63.9794" y2="96.0414" gradientUnits="userSpaceOnUse">
<stop stop-color="#C8293F"/>
<stop offset="1" stop-color="#BB213F"/>
</linearGradient>
<linearGradient id="paint12_linear_1_93" x1="46.4244" y1="59.6628" x2="62.5" y2="70.2442" gradientUnits="userSpaceOnUse">
<stop stop-color="#EF951F"/>
<stop offset="1" stop-color="#B93D08"/>
<stop offset="1" stop-color="#C84D04"/>
</linearGradient>
<linearGradient id="paint13_linear_1_93" x1="21" y1="57.125" x2="33.125" y2="71.75" gradientUnits="userSpaceOnUse">
<stop stop-color="#FFEA2F"/>
<stop offset="1" stop-color="#F0A11E"/>
</linearGradient>
<linearGradient id="paint14_linear_1_93" x1="78.1532" y1="55.8108" x2="89.6869" y2="70.7472" gradientUnits="userSpaceOnUse">
<stop stop-color="#FFDF21"/>
<stop offset="1" stop-color="#F0A611"/>
</linearGradient>
<linearGradient id="paint15_linear_1_93" x1="78.1532" y1="55.8108" x2="89.6869" y2="70.7472" gradientUnits="userSpaceOnUse">
<stop stop-color="#FFDF21"/>
<stop offset="1" stop-color="#F0A611"/>
</linearGradient>
<linearGradient id="paint16_linear_1_93" x1="78.1532" y1="55.8108" x2="89.6869" y2="70.7472" gradientUnits="userSpaceOnUse">
<stop stop-color="#FFDF21"/>
<stop offset="1" stop-color="#F0A611"/>
</linearGradient>
</defs>
</svg>
