<svg width="100" height="100" viewBox="0 0 100 100" fill="none" xmlns="http://www.w3.org/2000/svg">
<path d="M49 94C69.4345 94 86 77.8823 86 58C86 52.1797 86 49.1657 88.1538 45.2653C88.4053 44.8097 88.6863 44.3421 89 43.8565C89.6391 42.5516 90 41.0703 90 39.5C90 34.2533 86 30 81 30L80.8885 30.0007C75.0036 30.0327 72.1447 29.2062 67.5575 26.8486C66.9754 26.5494 66.3655 26.2256 65.718 25.8757C60.6967 23.397 55.016 22 49 22C28.5655 22 12 38.1177 12 58C12 64.1247 12.8879 66.698 10.4806 71.2778C10.3331 71.5584 10.1732 71.8466 10 72.1435C9.36093 73.4484 9 74.9297 9 76.5C9 81.7467 13.0294 86 18 86C23 86 24.5 85.5 27.5 87.3019C33.5597 91.5185 40.982 94 49 94Z" fill="url(#paint0_linear_2_6119)"/>
<path d="M51.5 6L52.9993 19C52.9993 19 65.3438 19.4004 75.9994 27.5C81.9992 27.8626 82.0005 28.03 86.5001 27.5C86.9673 23.9672 83.7582 17.0673 75.5001 14.5C67.4453 12.411 51.5 6 51.5 6Z" fill="#41BC7D"/>
<defs>
<linearGradient id="paint0_linear_2_6119" x1="24" y1="28.5" x2="72.5" y2="87" gradientUnits="userSpaceOnUse">
<stop stop-color="#FFEA2F"/>
<stop offset="1" stop-color="#F0A11E"/>
</linearGradient>
</defs>
</svg>
