<svg width="100" height="100" viewBox="0 0 100 100" fill="none" xmlns="http://www.w3.org/2000/svg">
<path fill-rule="evenodd" clip-rule="evenodd" d="M76.0064 41.2534H76.0569L76.0588 41.2051L76.0064 41.2534ZM76.0872 40.4648L77.0667 15L77.6033 15.0206L77.5899 15H77.0667H52.5813L76.0872 40.4648ZM49.8595 15H22.5729L25.3957 39.4638L49.8595 15ZM51.2171 16.4708L74.0934 41.2534H26.4345L51.2171 16.4708ZM78.0584 41.2534H94.7196L78.9858 17.1395L78.0584 41.2534ZM5 41.2534L20.7956 17.0447L23.5889 41.2534H5ZM49.958 82.0816L26.846 43.2534H75.5278L49.958 82.0816ZM48.6946 84L48.7355 83.938L24.5185 43.2534H5.92182L48.6946 84ZM51.1978 83.8354L77.8873 43.3068L77.8062 43.2534H93.7978L51.1978 83.8354Z" fill="#B1C9F8" fill-opacity="0.99"/>
</svg>
