<svg width="100" height="100" viewBox="0 0 100 100" fill="none" xmlns="http://www.w3.org/2000/svg">
<path d="M57.3737 94C54.2486 94 51.298 93.3054 48.6906 92.0731C46.0832 93.3054 43.1326 94 40.0075 94C32.0229 94 26.4383 89.4225 22.2845 83.0141C13.5189 69.4907 13.4397 57.3803 14.4144 46.8521C15.389 36.3239 23.0089 29 33.6095 29C40.2858 29 46.1659 32.1703 49.6046 36.9805C51.4759 34.3628 54.0703 32.2307 57.1226 30.831C59.679 29.6586 62.5567 29 65.5997 29C76.2003 29 84.2339 37.0086 84.7939 46.8521C85.7053 62.8732 83.7581 72.6955 75.6512 83.0141C69.2532 91.1576 65.3583 94 57.3737 94Z" fill="url(#paint0_linear_2_6116)"/>
<path d="M32.6533 8.73584C33.775 24.9713 39.4051 31.2153 46.6118 25.2502C53.5416 17.8696 47.5176 11.1146 32.6533 8.73584Z" fill="#41BC7D"/>
<path d="M60.4115 6C66.484 6.01032 69.14 6.65062 68.9943 11.9298C60.8525 16.8082 55.8903 23.7426 52.3242 32H46C48.6577 22.1236 53.0836 13.881 60.4115 6Z" fill="#41BC7D"/>
<defs>
<linearGradient id="paint0_linear_2_6116" x1="17.199" y1="35.4085" x2="80.3424" y2="84.2879" gradientUnits="userSpaceOnUse">
<stop stop-color="#DC2041"/>
<stop offset="1" stop-color="#BB203F"/>
</linearGradient>
</defs>
</svg>
