<svg width="100" height="100" viewBox="0 0 100 100" fill="none" xmlns="http://www.w3.org/2000/svg">
<path fill-rule="evenodd" clip-rule="evenodd" d="M11 65.3223C8.79086 65.3223 7 67.1131 7 69.3223V86.999C7 89.2082 8.79086 90.999 11 90.999H89.9697C92.1788 90.999 93.9697 89.2082 93.9697 86.999V69.3223C93.9697 67.1131 92.1788 65.3223 89.9697 65.3223H11ZM45.9034 84.3319V86.0303H38.4766V84.3319H41.2198C42.7587 81.967 44.2976 79.6308 45.8365 77.3232C47.3977 75.0013 48.9478 72.6579 50.4867 70.293C52.0255 72.6579 53.5644 75.0013 55.1033 77.3232C56.6646 79.6308 58.2146 81.967 59.7535 84.3319H62.4968V86.0303H55.0699V84.3319H56.9433C56.475 83.6153 56.0066 82.9058 55.5383 82.2035C55.2976 81.8246 55.0537 81.4437 54.8066 81.0606H46.1561L45.4016 82.2035L43.9965 84.3319H45.9034ZM50.1187 74.9583C50.141 74.9153 50.1744 74.8436 50.2191 74.7433C50.286 74.643 50.364 74.4781 50.4532 74.2488L50.7877 74.9583L53.0292 78.3766H47.9442C48.2564 77.875 48.5909 77.3232 48.9478 76.7212C49.3269 76.1049 49.7172 75.5173 50.1187 74.9583ZM75.28 86.0303V84.2543H70.4281V79.016H72.2157H73.1094C73.3364 79.001 73.6485 78.9935 74.0457 78.9935L80.302 86.0303H86.5158V84.2543H82.5152L77.7484 78.8586C79.7913 78.6188 81.3377 78.1242 82.3875 77.3748C83.4657 76.6254 84.0048 75.6886 84.0048 74.5645C84.0048 73.8002 83.6643 73.1482 82.9833 72.6086C82.3024 72.069 81.4512 71.6269 80.4297 71.2822C79.4083 70.9375 78.3017 70.6902 77.11 70.5403C75.9467 70.3754 74.8827 70.293 73.9181 70.293H64.9805V72.069H66.8957V84.2543H64.9805V86.0303H75.28ZM70.4281 72.069H74.1734C75.053 72.069 75.8758 72.1365 76.6419 72.2714C77.4363 72.4063 78.1173 72.5861 78.6848 72.8109C79.2239 73.0508 79.6495 73.3205 79.9616 73.6203C80.302 73.9201 80.4723 74.2348 80.4723 74.5645C80.4723 74.8493 80.373 75.1491 80.1744 75.4638C79.9757 75.7786 79.6353 76.0633 79.1529 76.3181C78.6706 76.5729 78.018 76.7903 77.1952 76.9701C76.4007 77.135 75.3793 77.2174 74.1309 77.2174H70.4281V72.069ZM29.1796 85.783C28.0284 85.9479 26.8491 86.0303 25.6418 86.0303H15.2812V84.2543H17.1765V72.069H15.2812V70.293H24.8837C26.2595 70.293 27.509 70.3679 28.6321 70.5178C29.7832 70.6677 30.7659 70.9 31.5802 71.2147C32.3663 71.5295 32.984 71.9416 33.4333 72.4512C33.8825 72.9458 34.1071 73.5379 34.1071 74.2273C34.1071 75.1566 33.686 75.9734 32.8437 76.6778C32.0294 77.3823 30.78 77.8619 29.0953 78.1167C29.8815 78.2066 30.6396 78.3565 31.3696 78.5663C32.1277 78.7762 32.7875 79.0459 33.349 79.3757C33.8825 79.7054 34.3177 80.0876 34.6546 80.5223C34.9916 80.9569 35.16 81.444 35.16 81.9836C35.16 82.658 34.8933 83.2501 34.3598 83.7597C33.8264 84.2543 33.1244 84.6664 32.254 84.9962C31.3556 85.3409 30.3307 85.6032 29.1796 85.783ZM24.7574 78.9935H20.6721V84.2543H25.347C26.2174 84.2543 27.0316 84.2018 27.7897 84.0969C28.5478 83.992 29.2217 83.8271 29.8113 83.6023C30.3728 83.3925 30.8221 83.1302 31.159 82.8154C31.4959 82.5007 31.6644 82.126 31.6644 81.6913C31.6644 81.2267 31.4679 80.822 31.0748 80.4773C30.6817 80.1326 30.1763 79.8478 29.5586 79.623C28.9128 79.4132 28.1688 79.2558 27.3265 79.1509C26.4841 79.0459 25.6278 78.9935 24.7574 78.9935ZM25.1364 72.069H20.6721V77.2174H25.2207C26.8772 77.2174 28.1828 76.9701 29.1375 76.4755C30.1201 75.9809 30.6115 75.3289 30.6115 74.5196C30.6115 74.055 30.4571 73.6653 30.1482 73.3505C29.8675 73.0208 29.4603 72.7585 28.9269 72.5636C28.4496 72.3988 27.888 72.2789 27.2422 72.2039C26.5964 72.114 25.8945 72.069 25.1364 72.069Z" fill="url(#paint0_linear_2_6110)"/>
<path fill-rule="evenodd" clip-rule="evenodd" d="M11 37.1621C8.79086 37.1621 7 38.953 7 41.1621V58.8389C7 61.048 8.79086 62.8389 11 62.8389H89.9697C92.1788 62.8389 93.9697 61.048 93.9697 58.8389V41.1621C93.9697 38.953 92.1788 37.1621 89.9697 37.1621H11ZM45.9034 56.1698V57.8682H38.4766V56.1698H41.2198C42.7587 53.8049 44.2976 51.4687 45.8365 49.1611C47.3977 46.8392 48.9478 44.4958 50.4867 42.1309C52.0255 44.4958 53.5644 46.8392 55.1033 49.1611C56.6646 51.4687 58.2146 53.8049 59.7535 56.1698H62.4968V57.8682H55.0699V56.1698H56.9433C56.475 55.4532 56.0066 54.7437 55.5383 54.0414C55.2976 53.6625 55.0537 53.2816 54.8066 52.8985H46.1561L45.4016 54.0414L43.9965 56.1698H45.9034ZM50.1187 46.7962C50.141 46.7532 50.1744 46.6815 50.2191 46.5812C50.286 46.4809 50.364 46.316 50.4532 46.0867L50.7877 46.7962L53.0292 50.2145H47.9442C48.2564 49.7129 48.5909 49.1611 48.9478 48.5591C49.3269 47.9428 49.7172 47.3552 50.1187 46.7962ZM75.28 57.8682V56.0922H70.4281V50.8539H72.2157H73.1094C73.3364 50.8389 73.6485 50.8314 74.0457 50.8314L80.302 57.8682H86.5158V56.0922H82.5152L77.7484 50.6965C79.7913 50.4567 81.3377 49.9621 82.3875 49.2127C83.4657 48.4633 84.0048 47.5265 84.0048 46.4024C84.0048 45.638 83.6643 44.9861 82.9833 44.4465C82.3024 43.9069 81.4512 43.4648 80.4297 43.1201C79.4083 42.7753 78.3017 42.528 77.11 42.3782C75.9467 42.2133 74.8827 42.1309 73.9181 42.1309H64.9805V43.9069H66.8957V56.0922H64.9805V57.8682H75.28ZM70.4281 43.9069H74.1734C75.053 43.9069 75.8758 43.9744 76.6419 44.1093C77.4363 44.2442 78.1173 44.424 78.6848 44.6488C79.2239 44.8886 79.6495 45.1584 79.9616 45.4582C80.302 45.7579 80.4723 46.0727 80.4723 46.4024C80.4723 46.6872 80.373 46.987 80.1744 47.3017C79.9757 47.6165 79.6353 47.9012 79.1529 48.156C78.6706 48.4108 78.018 48.6281 77.1952 48.808C76.4007 48.9729 75.3793 49.0553 74.1309 49.0553H70.4281V43.9069ZM29.1796 57.6209C28.0284 57.7858 26.8491 57.8682 25.6418 57.8682H15.2812V56.0922H17.1765V43.9069H15.2812V42.1309H24.8837C26.2595 42.1309 27.509 42.2058 28.6321 42.3557C29.7832 42.5056 30.7659 42.7379 31.5802 43.0526C32.3663 43.3674 32.984 43.7795 33.4333 44.2891C33.8825 44.7837 34.1071 45.3758 34.1071 46.0652C34.1071 46.9945 33.686 47.8113 32.8437 48.5157C32.0294 49.2202 30.78 49.6998 29.0953 49.9546C29.8815 50.0445 30.6396 50.1944 31.3696 50.4042C32.1277 50.6141 32.7875 50.8838 33.349 51.2136C33.8825 51.5433 34.3177 51.9255 34.6546 52.3602C34.9916 52.7948 35.16 53.2819 35.16 53.8215C35.16 54.4959 34.8933 55.088 34.3598 55.5976C33.8264 56.0922 33.1244 56.5043 32.254 56.8341C31.3556 57.1788 30.3307 57.4411 29.1796 57.6209ZM24.7574 50.8314H20.6721V56.0922H25.347C26.2174 56.0922 27.0316 56.0397 27.7897 55.9348C28.5478 55.8299 29.2217 55.665 29.8113 55.4402C30.3728 55.2303 30.8221 54.9681 31.159 54.6533C31.4959 54.3386 31.6644 53.9639 31.6644 53.5292C31.6644 53.0646 31.4679 52.6599 31.0748 52.3152C30.6817 51.9705 30.1763 51.6857 29.5586 51.4609C28.9128 51.251 28.1688 51.0937 27.3265 50.9888C26.4841 50.8838 25.6278 50.8314 24.7574 50.8314ZM25.1364 43.9069H20.6721V49.0553H25.2207C26.8772 49.0553 28.1828 48.808 29.1375 48.3134C30.1201 47.8188 30.6115 47.1668 30.6115 46.3575C30.6115 45.8928 30.4571 45.5032 30.1482 45.1884C29.8675 44.8587 29.4603 44.5964 28.9269 44.4015C28.4496 44.2367 27.888 44.1168 27.2422 44.0418C26.5964 43.9519 25.8945 43.9069 25.1364 43.9069Z" fill="url(#paint1_linear_2_6110)"/>
<path fill-rule="evenodd" clip-rule="evenodd" d="M11 9C8.79086 9 7 10.7909 7 13V30.6768C7 32.8859 8.79086 34.6768 11 34.6768H89.9697C92.1788 34.6768 93.9697 32.8859 93.9697 30.6768V13C93.9697 10.7909 92.1788 9 89.9697 9H11ZM45.9034 28.0077V29.7061H38.4766V28.0077H41.2198C42.7587 25.6428 44.2976 23.3065 45.8365 20.999C47.3977 18.6771 48.9478 16.3337 50.4867 13.9688C52.0255 16.3337 53.5644 18.6771 55.1033 20.999C56.6646 23.3065 58.2146 25.6428 59.7535 28.0077H62.4968V29.7061H55.0699V28.0077H56.9433C56.475 27.2911 56.0066 26.5816 55.5383 25.8793C55.2976 25.5004 55.0537 25.1195 54.8066 24.7364H46.1561L45.4016 25.8793L43.9965 28.0077H45.9034ZM50.1187 18.6341C50.141 18.5911 50.1744 18.5194 50.2191 18.4191C50.286 18.3187 50.364 18.1539 50.4532 17.9246L50.7877 18.6341L53.0292 22.0524H47.9442C48.2564 21.5508 48.5909 20.999 48.9478 20.397C49.3269 19.7807 49.7172 19.193 50.1187 18.6341ZM75.28 29.7061V27.93H70.4281V22.6918H72.2157H73.1094C73.3364 22.6768 73.6485 22.6693 74.0457 22.6693L80.302 29.7061H86.5158V27.93H82.5152L77.7484 22.5344C79.7913 22.2946 81.3377 21.8 82.3875 21.0506C83.4657 20.3012 84.0048 19.3644 84.0048 18.2403C84.0048 17.4759 83.6643 16.824 82.9833 16.2844C82.3024 15.7448 81.4512 15.3027 80.4297 14.958C79.4083 14.6132 78.3017 14.3659 77.11 14.2161C75.9467 14.0512 74.8827 13.9688 73.9181 13.9688H64.9805V15.7448H66.8957V27.93H64.9805V29.7061H75.28ZM70.4281 15.7448H74.1734C75.053 15.7448 75.8758 15.8123 76.6419 15.9472C77.4363 16.0821 78.1173 16.2619 78.6848 16.4867C79.2239 16.7265 79.6495 16.9963 79.9616 17.2961C80.302 17.5958 80.4723 17.9106 80.4723 18.2403C80.4723 18.5251 80.373 18.8249 80.1744 19.1396C79.9757 19.4543 79.6353 19.7391 79.1529 19.9939C78.6706 20.2487 78.018 20.466 77.1952 20.6459C76.4007 20.8108 75.3793 20.8932 74.1309 20.8932H70.4281V15.7448ZM29.1796 29.4588C28.0284 29.6237 26.8491 29.7061 25.6418 29.7061H15.2812V27.93H17.1765V15.7448H15.2812V13.9688H24.8837C26.2595 13.9688 27.509 14.0437 28.6321 14.1936C29.7832 14.3434 30.7659 14.5758 31.5802 14.8905C32.3663 15.2053 32.984 15.6174 33.4333 16.127C33.8825 16.6216 34.1071 17.2136 34.1071 17.9031C34.1071 18.8323 33.686 19.6492 32.8437 20.3536C32.0294 21.0581 30.78 21.5377 29.0953 21.7925C29.8815 21.8824 30.6396 22.0323 31.3696 22.2421C32.1277 22.4519 32.7875 22.7217 33.349 23.0515C33.8825 23.3812 34.3177 23.7634 34.6546 24.198C34.9916 24.6327 35.16 25.1198 35.16 25.6594C35.16 26.3338 34.8933 26.9259 34.3598 27.4354C33.8264 27.93 33.1244 28.3422 32.254 28.672C31.3556 29.0167 30.3307 29.279 29.1796 29.4588ZM24.7574 22.6693H20.6721V27.93H25.347C26.2174 27.93 27.0316 27.8776 27.7897 27.7727C28.5478 27.6678 29.2217 27.5029 29.8113 27.2781C30.3728 27.0682 30.8221 26.806 31.159 26.4912C31.4959 26.1765 31.6644 25.8018 31.6644 25.3671C31.6644 24.9025 31.4679 24.4978 31.0748 24.1531C30.6817 23.8084 30.1763 23.5236 29.5586 23.2988C28.9128 23.0889 28.1688 22.9316 27.3265 22.8266C26.4841 22.7217 25.6278 22.6693 24.7574 22.6693ZM25.1364 15.7448H20.6721V20.8932H25.2207C26.8772 20.8932 28.1828 20.6459 29.1375 20.1513C30.1201 19.6567 30.6115 19.0047 30.6115 18.1954C30.6115 17.7307 30.4571 17.341 30.1482 17.0263C29.8675 16.6966 29.4603 16.4343 28.9269 16.2394C28.4496 16.0746 27.888 15.9547 27.2422 15.8797C26.5964 15.7898 25.8945 15.7448 25.1364 15.7448Z" fill="url(#paint2_linear_2_6110)"/>
<defs>
<linearGradient id="paint0_linear_2_6110" x1="6.17172" y1="65.841" x2="22.0913" y2="115.476" gradientUnits="userSpaceOnUse">
<stop stop-color="#FC6868"/>
<stop offset="1" stop-color="#E82A2A"/>
</linearGradient>
<linearGradient id="paint1_linear_2_6110" x1="6.17172" y1="37.6808" x2="22.0913" y2="87.3159" gradientUnits="userSpaceOnUse">
<stop stop-color="#FC6868"/>
<stop offset="1" stop-color="#E82A2A"/>
</linearGradient>
<linearGradient id="paint2_linear_2_6110" x1="6.17172" y1="9.51872" x2="22.0913" y2="59.1538" gradientUnits="userSpaceOnUse">
<stop stop-color="#FC6868"/>
<stop offset="1" stop-color="#E82A2A"/>
</linearGradient>
</defs>
</svg>
