<svg width="100" height="100" viewBox="0 0 100 100" fill="none" xmlns="http://www.w3.org/2000/svg">
<path d="M93 30C93 54.3005 73.5244 74 49.5 74C25.4756 74 6 54.3005 6 30H93Z" fill="#41BC7D"/>
<path d="M88 30C88 50.9868 70.763 68 49.5 68C28.237 68 11 50.9868 11 30H88Z" fill="url(#paint0_linear_2_6120)"/>
<path d="M49.0566 46C46.2842 50.4479 46.5744 53.14 49.5809 52.9442C52.7824 52.3267 52.4859 49.4269 49.0566 46Z" fill="#09120D"/>
<path d="M63.5996 41.3428C64.7533 46.4555 66.8517 48.1666 68.8529 45.9143C70.6965 43.2251 68.4476 41.3706 63.5996 41.3428Z" fill="#09120D"/>
<path d="M34.8047 41.2002C29.7845 42.7062 28.2232 44.9185 30.6091 46.7584C33.4199 48.4107 35.1137 46.0384 34.8047 41.2002Z" fill="#09120D"/>
<defs>
<linearGradient id="paint0_linear_2_6120" x1="11" y1="30" x2="87.9178" y2="68.1657" gradientUnits="userSpaceOnUse">
<stop stop-color="#C8293F"/>
<stop offset="1" stop-color="#BB213F"/>
</linearGradient>
</defs>
</svg>
