<svg width="100" height="100" viewBox="0 0 100 100" fill="none" xmlns="http://www.w3.org/2000/svg">
<path d="M12.0496 38.7825C12.1666 38.925 12.0997 39.1419 11.9238 39.1974C6.69377 40.847 3.02862 45.306 3.00016 50.3163C2.97102 55.4452 7.03061 63.1613 14.7321 62.1792C21.0301 61.3762 37.6821 55.6278 43.5426 53.5592C43.8299 53.4578 44.0258 53.8643 43.7716 54.0322C31.8997 61.8765 18.9833 71.4635 17.9 76.3143C16.7603 81.4181 20.7032 88.6882 26.3102 90.3531C31.7722 91.9751 33.058 90.7628 36.8422 87.7593C36.9866 87.6447 37.2024 87.7153 37.255 87.8919C38.8177 93.1477 43.216 96.8858 48.2262 96.9976C53.3548 97.112 61.1389 93.1821 60.2848 85.4668C59.5905 79.1945 54.377 62.6511 52.4511 56.6822C52.3572 56.391 52.7714 56.2006 52.9309 56.4617C60.3304 68.5719 69.4075 81.6221 74.2064 82.8781C79.2663 84.2025 86.6764 80.5273 88.5445 74.9857C90.3643 69.5874 89.1994 68.2586 86.3349 64.3684C86.2256 64.2199 86.3039 64.0069 86.4824 63.9608C91.7926 62.5905 95.6889 58.3319 95.9828 53.3301C96.2837 48.2101 92.6387 40.2897 84.8959 40.8625C78.3163 41.3491 60.0351 46.2412 54.691 47.7001C54.4112 47.7764 54.2431 47.3965 54.4818 47.2317C66.3227 39.0565 79.4043 28.9521 80.3943 24.0027C81.42 18.8748 77.3161 11.6944 71.6735 10.1547C66.1767 8.65481 64.9182 9.89538 61.2018 12.9824C61.06 13.1002 60.8427 13.0345 60.7862 12.859C59.1067 7.63937 54.6263 4.00017 49.6149 4C44.485 3.99983 36.7904 8.10212 37.8161 15.7965C38.6634 22.1523 44.4115 39.0058 46.3858 44.6771C46.4848 44.9616 46.085 45.1509 45.9146 44.9024C37.8598 33.1555 28.071 20.663 23.1802 19.6563C18.0572 18.6019 10.8523 22.6644 9.28047 28.2972C7.7493 33.7843 8.98299 35.0495 12.0496 38.7825Z" fill="#41BC7D"/>
</svg>
