<?xml version="1.0" encoding="UTF-8" standalone="no"?>
<svg
   xmlns:dc="http://purl.org/dc/elements/1.1/"
   xmlns:cc="http://creativecommons.org/ns#"
   xmlns:rdf="http://www.w3.org/1999/02/22-rdf-syntax-ns#"
   xmlns:svg="http://www.w3.org/2000/svg"
   xmlns="http://www.w3.org/2000/svg"
   viewBox="0 0 853.33331 800"
   height="800"
   width="853.33331"
   xml:space="preserve"
   id="svg2"
   version="1.1"><metadata
     id="metadata8"><rdf:RDF><cc:Work
         rdf:about=""><dc:format>image/svg+xml</dc:format><dc:type
           rdf:resource="http://purl.org/dc/dcmitype/StillImage" /></cc:Work></rdf:RDF></metadata><defs
     id="defs6"><clipPath
       id="clipPath18"
       clipPathUnits="userSpaceOnUse"><path
         id="path16"
         d="M 0,0 H 640 V 600 H 0 Z" /></clipPath><mask
       id="mask20"
       height="1"
       width="1"
       y="0"
       x="0"
       maskUnits="userSpaceOnUse"><g
         id="g28"><g
           id="g26"
           clip-path="url(#clipPath18)"><g
             id="g24"><path
               id="path22"
               style="fill:#000000;fill-opacity:1;fill-rule:nonzero;stroke:none"
               d="M 0,600 H 640 V 0 H 0 Z" /></g></g></g></mask><clipPath
       id="clipPath36"
       clipPathUnits="userSpaceOnUse"><path
         id="path34"
         d="M 0,0 H 640 V 600 H 0 Z" /></clipPath><clipPath
       id="clipPath40"
       clipPathUnits="userSpaceOnUse"><path
         style="clip-rule:evenodd"
         id="path38"
         d="m 43,193 c 0,8.28427 6.715729,15 15,15 h 139 c 8.28427,0 15,-6.71573 15,-15 V 45 c 0,-8.284302 -6.71573,-15 -15,-15 H 58 c -8.284271,0 -15,6.715698 -15,15 z" /></clipPath><clipPath
       id="clipPath44"
       clipPathUnits="userSpaceOnUse"><path
         style="clip-rule:evenodd"
         id="path42"
         d="M 98,89.5 C 98,88.119293 96.880714,87 95.5,87 94.119286,87 93,88.119293 93,89.5 c 0,1.380707 1.119286,2.5 2.5,2.5 1.380714,0 2.5,-1.119293 2.5,-2.5 z" /></clipPath><clipPath
       id="clipPath48"
       clipPathUnits="userSpaceOnUse"><path
         style="clip-rule:evenodd"
         id="path46"
         d="m 103,85 c 0,-1.65686 -1.34315,-3 -3,-3 -1.656853,0 -3,1.34314 -3,3 0,1.65686 1.343147,3 3,3 1.65685,0 3,-1.34314 3,-3 z" /></clipPath><clipPath
       id="clipPath52"
       clipPathUnits="userSpaceOnUse"><path
         style="clip-rule:evenodd"
         id="path50"
         d="m 502,57 c 0,5.522827 4.47714,10 10,10 h 49 c 5.52283,0 10,-4.477173 10,-10 V 40 c 0,-5.522827 -4.47717,-10 -10,-10 h -49 c -5.52286,0 -10,4.477173 -10,10 z" /></clipPath><clipPath
       id="clipPath56"
       clipPathUnits="userSpaceOnUse"><path
         style="clip-rule:evenodd"
         id="path54"
         d="m 231,111 c 0,5.52286 4.47716,10 10,10 h 204 c 5.52283,0 10,-4.47714 10,-10 V 81 c 0,-5.522827 -4.47717,-10 -10,-10 H 241 c -5.52284,0 -10,4.477173 -10,10 z" /></clipPath><clipPath
       id="clipPath60"
       clipPathUnits="userSpaceOnUse"><path
         style="clip-rule:evenodd"
         id="path58"
         d="m 231,187 c 0,5.52286 4.47716,10 10,10 h 204 c 5.52283,0 10,-4.47714 10,-10 v -30 c 0,-5.52286 -4.47717,-10 -10,-10 H 241 c -5.52284,0 -10,4.47714 -10,10 z" /></clipPath><clipPath
       id="clipPath64"
       clipPathUnits="userSpaceOnUse"><path
         style="clip-rule:evenodd"
         id="path62"
         d="m 43,453 c 0,5.52283 4.477154,10 10,10 h 535 c 5.52283,0 10,-4.47717 10,-10 V 233 c 0,-5.52283 -4.47717,-10 -10,-10 H 52.999992 C 47.477146,223 43,227.47717 43,233 Z" /></clipPath><clipPath
       id="clipPath68"
       clipPathUnits="userSpaceOnUse"><path
         style="clip-rule:evenodd"
         id="path66"
         d="m 43,565 c 0,5.52283 4.477154,10 10,10 h 535 c 5.52283,0 10,-4.47717 10,-10 v -70 c 0,-5.52286 -4.47717,-10 -10,-10 H 52.999992 C 47.477146,485 43,489.47714 43,495 Z" /></clipPath></defs><g
     transform="matrix(1.3333333,0,0,-1.3333333,0,800)"
     id="g10"><g
       id="g12"><g
         id="g14" /><g
         mask="url(#mask20)"
         id="g30"><g
           id="g32" /><g
           id="g388"><g
             id="g386"
             clip-path="url(#clipPath36)"><g
               id="g72"
               transform="translate(-8,-3)"><path
                 id="path70"
                 style="fill:#0b1123;fill-opacity:1;fill-rule:evenodd;stroke:none"
                 d="M 648,233.384 V 0 H 0 V 233.384 614 H 648 Z M 57,462.7663 V 233.384 h 543 v 229.3823 z" /></g><g
               id="g84"><g
                 id="g76"
                 transform="translate(43,30)"><path
                   id="path74"
                   style="fill:#ededed;fill-opacity:1;fill-rule:nonzero;stroke:none"
                   d="m 0,163 c 0,8.28427 6.715729,15 15,15 h 139 c 8.28427,0 15,-6.71573 15,-15 V 15 C 169,6.715729 162.28427,0 154,0 H 15 C 6.715729,0 0,6.715729 0,15 Z" /></g><g
                 id="g82"
                 clip-path="url(#clipPath40)"><g
                   id="g80"
                   transform="translate(43,30)"><path
                     id="path78"
                     style="fill:#b62345;fill-opacity:1;fill-rule:nonzero;stroke:none"
                     d="m 15,170 h 139 v 16 H 15 Z m 146,-7 V 15 h 16 V 163 Z M 154,8 H 15 V -8 H 154 Z M 8,15 V 163 H -8 V 15 Z M 15,8 C 11.134007,8 8,11.134003 8,15 H -8 C -8,2.297455 2.297451,-8 15,-8 Z m 146,7 c 0,-3.865997 -3.134,-7 -7,-7 V -8 c 12.70254,0 23,10.29744 23,23 z m -7,155 c 3.866,0 7,-3.134 7,-7 h 16 c 0,12.70254 -10.29746,23 -23,23 z M 15,186 C 2.297453,186 -8,175.70256 -8,163 H 8 c 0,3.866 3.134005,7 7,7 z" /></g></g></g><g
               id="g88"
               transform="translate(59.25,48.61792)"><path
                 id="path86"
                 d="m 15.198675,0.13208 c 0,2.248665 1.900763,10.670815 7.301325,17.084791 l -2.533113,2.397864 c -4.023179,-2.696953 -8.046358,-0.149397 -10.877483,0 -2.831126,0.149398 -3.773037,-0.688811 -5.513245,-1.648531 v 1.198932 H 0 v -8.69226 h 3.576159 c -0.042195,3.191434 4.619205,1.948268 7.748344,1.648534 3.129139,-0.299733 2.816268,0.296412 4.619205,1.049066 C 13.656923,10.796467 9.983443,8.524608 7.003311,6.72621 4.023179,4.927812 3.999563,2.857496 4.023179,0.13208 Z" /></g><g
               id="g92"
               transform="translate(86.25,48.61792)"><path
                 id="path90"
                 d="m 15.198675,0.13208 c 0,2.248665 1.900763,10.670815 7.301325,17.084791 l -2.533113,2.397864 c -4.023179,-2.696953 -8.046358,-0.149397 -10.877483,0 -2.831126,0.149398 -3.773037,-0.688811 -5.513245,-1.648531 v 1.198932 H 0 v -8.69226 h 3.576159 c -0.042195,3.191434 4.619205,1.948268 7.748344,1.648534 3.129139,-0.299733 2.816268,0.296412 4.619205,1.049066 C 13.656923,10.796467 9.983443,8.524608 7.003311,6.72621 4.023179,4.927812 3.999563,2.857496 4.023179,0.13208 Z" /></g><g
               id="g96"
               transform="translate(113.25,48.61792)"><path
                 id="path94"
                 d="m 15.198675,0.13208 c 0,2.248665 1.900763,10.670815 7.301325,17.084791 l -2.533113,2.397864 c -4.023179,-2.696953 -8.046358,-0.149397 -10.877483,0 -2.831126,0.149398 -3.773037,-0.688811 -5.513245,-1.648531 v 1.198932 H 0 v -8.69226 h 3.576159 c -0.042195,3.191434 4.619205,1.948268 7.748344,1.648534 3.129139,-0.299733 2.816268,0.296412 4.619205,1.049066 C 13.656923,10.796467 9.983443,8.524608 7.003311,6.72621 4.023179,4.927812 3.999563,2.857496 4.023179,0.13208 Z" /></g><g
               id="g100"
               transform="translate(151,61.654297)"><path
                 id="path98"
                 style="fill:#343a4e;fill-opacity:1;fill-rule:nonzero;stroke:none"
                 d="m 0.695312,-10.654297 z m 4.238282,2.363281 h 4.980468 v -2.363281 H 1.59375 v 2.5 c 1.796875,1.744791 3.082682,3.180338 3.857422,4.306641 0.77474,1.132812 1.162109,2.122396 1.162109,2.96875 0,0.566406 -0.169271,1.015625 -0.507812,1.347656 C 5.766927,0.800781 5.311198,0.966797 4.738281,0.966797 4.328125,0.966797 3.891927,0.885417 3.429688,0.722656 2.967448,0.566406 2.495443,0.335286 2.013672,0.029297 L 1.798828,2.626953 c 0.533854,0.260417 1.106771,0.462239 1.71875,0.605469 0.611979,0.143229 1.217448,0.214844 1.816406,0.214844 1.321615,0 2.373047,-0.345052 3.154297,-1.035157 0.78125,-0.690104 1.171875,-1.624348 1.171875,-2.802734 0,-1.106771 -0.384114,-2.304687 -1.152344,-3.59375 -0.768229,-1.282553 -1.959635,-2.7181 -3.574218,-4.306641 z m 11.542968,-2.363281 z m 1.376954,13.876953 h 7.460937 V 0.966797 h -4.775391 v -2.65625 c 0.169272,0.026041 0.341797,0.045573 0.517579,0.058594 0.182291,0.01302 0.374349,0.019531 0.576171,0.019531 1.334635,0 2.389323,-0.400391 3.164063,-1.201172 0.77474,-0.794271 1.162109,-1.86849 1.162109,-3.222656 0,-1.445313 -0.472005,-2.613932 -1.416015,-3.50586 -0.9375,-0.891927 -2.174479,-1.33789 -3.710938,-1.33789 -0.553385,0 -1.103515,0.04883 -1.65039,0.146484 -0.540366,0.09115 -1.067709,0.231119 -1.582032,0.419922 l 0.136719,2.5 c 0.377604,-0.208334 0.791016,-0.367838 1.240234,-0.478516 0.455729,-0.110677 0.927735,-0.166015 1.416016,-0.166015 0.768229,0 1.367188,0.198568 1.796875,0.595703 0.429688,0.397135 0.644531,0.947266 0.644531,1.65039 0,0.800782 -0.234375,1.41276 -0.703125,1.835938 -0.46224,0.429688 -1.132812,0.644531 -2.011718,0.644531 -0.345053,0 -0.706381,-0.032552 -1.083985,-0.097656 -0.371094,-0.065104 -0.764974,-0.159506 -1.18164,-0.283203 z m 9.130859,-13.876953 z m 5.263672,11.777344 c -0.540365,0 -0.93099,-0.374349 -1.171875,-1.123047 -0.234375,-0.742188 -0.351563,-1.979166 -0.351563,-3.710938 0,-1.731771 0.117188,-2.96875 0.351563,-3.710937 0.240885,-0.742187 0.63151,-1.113281 1.171875,-1.113281 0.533855,0 0.917969,0.374349 1.152344,1.123047 0.240886,0.755209 0.361328,1.988931 0.361328,3.701171 0,1.712241 -0.120442,2.945964 -0.361328,3.701172 -0.234375,0.755208 -0.618489,1.132813 -1.152344,1.132813 z m -0.01953,2.34375 c 1.464843,0 2.591144,-0.618489 3.378906,-1.855469 0.787762,-1.230469 1.18164,-3.004557 1.18164,-5.322266 0,-2.304687 -0.397136,-4.075521 -1.191406,-5.3125 -0.787761,-1.236978 -1.910808,-1.855468 -3.36914,-1.855468 -1.477866,0 -2.604166,0.611978 -3.378907,1.835937 -0.77474,1.230469 -1.162109,3.007813 -1.162109,5.332031 0,2.337241 0.387369,4.117839 1.162109,5.341797 0.774741,1.223958 1.901041,1.835938 3.378907,1.835938 z m 5.263672,-14.121094 z M 42.75586,1.123047 C 42.215497,1.123047 41.824872,0.748698 41.583985,0 41.34961,-0.742188 41.232423,-1.979166 41.232423,-3.710938 c 0,-1.731771 0.117187,-2.96875 0.351562,-3.710937 0.240887,-0.742187 0.631512,-1.113281 1.171875,-1.113281 0.533856,0 0.917969,0.374349 1.152344,1.123047 0.240887,0.755209 0.361328,1.988931 0.361328,3.701171 0,1.712241 -0.120441,2.945964 -0.361328,3.701172 -0.234375,0.755208 -0.618488,1.132813 -1.152344,1.132813 z m -0.01953,2.34375 c 1.464844,0 2.591145,-0.618489 3.378906,-1.855469 0.787762,-1.230469 1.181641,-3.004557 1.181641,-5.322266 0,-2.304687 -0.397137,-4.075521 -1.191406,-5.3125 -0.787762,-1.236978 -1.910809,-1.855468 -3.369141,-1.855468 -1.477863,0 -2.604168,0.611978 -3.378906,1.835937 -0.774738,1.230469 -1.16211,3.007813 -1.16211,5.332031 0,2.337241 0.387372,4.117839 1.16211,5.341797 0.774738,1.223958 1.901043,1.835938 3.378906,1.835938 z" /></g><g
               id="g106"
               transform="translate(151,61.654297)"><text
                 id="text104"
                 style="font-variant:normal;font-weight:normal;font-size:20px;font-family:Arial;-inkscape-font-specification:Arial;writing-mode:lr-tb;fill:#000000;fill-opacity:1;fill-rule:nonzero;stroke:none"
                 transform="matrix(1,0,0,-1,0.695312,-10.654297)"><tspan
                   id="tspan102"
                   y="0"
                   x="0 10.49804 15.76172 26.25976 36.757801">2 500</tspan></text>
</g><g
               id="g110"
               transform="translate(86.25,76.25)"><path
                 id="path108"
                 d="M 22.5,11.25 C 22.5,5.036797 17.463203,0 11.25,0 5.036797,0 0,5.036797 0,11.25 0,17.463203 5.036797,22.5 11.25,22.5 17.463203,22.5 22.5,17.463203 22.5,11.25 Z" /></g><g
               id="g114"
               transform="rotate(-90,87,9)"><path
                 id="path112"
                 style="fill:#ededed;fill-opacity:1;fill-rule:nonzero;stroke:none"
                 d="m 0,18.5 c -0.276142,0 -0.5,-0.223858 -0.5,-0.5 0,-0.276142 0.223858,-0.5 0.5,-0.5 z m 17,-1 c 0.276142,0 0.5,0.223858 0.5,0.5 0,0.276142 -0.223858,0.5 -0.5,0.5 z m -17,0 h 17 v 1 H 0 Z" /></g><g
               id="g118"
               transform="rotate(-90,88.75,7.25)"><path
                 id="path116"
                 style="fill:#ededed;fill-opacity:1;fill-rule:nonzero;stroke:none"
                 d="m 0,18.5 c -0.276142,0 -0.5,-0.223858 -0.5,-0.5 0,-0.276142 0.223858,-0.5 0.5,-0.5 z m 17,-1 c 0.276142,0 0.5,0.223858 0.5,0.5 0,0.276142 -0.223858,0.5 -0.5,0.5 z m -17,0 h 17 v 1 H 0 Z" /></g><g
               id="g122"
               transform="rotate(-180,51.383789,46.5)"><path
                 id="path120"
                 style="fill:#ededed;fill-opacity:1;fill-rule:nonzero;stroke:none"
                 d="M 0.5,2 C 0.223858,2 0,1.776142 0,1.5 0,1.223858 0.223858,1 0.5,1 Z M 7.267857,1 c 0.276143,0 0.5,0.223858 0.5,0.5 0,0.276142 -0.223857,0.5 -0.5,0.5 z M 0.5,1 H 7.267857 V 2 H 0.5 Z" /></g><g
               id="g126"
               transform="rotate(-180,50.178711,44.5)"><path
                 id="path124"
                 style="fill:#ededed;fill-opacity:1;fill-rule:nonzero;stroke:none"
                 d="M 0.5,2 C 0.223858,2 0,1.776142 0,1.5 0,1.223858 0.223858,1 0.5,1 Z M 4.857143,1 c 0.276143,0 0.5,0.223858 0.5,0.5 0,0.276142 -0.223857,0.5 -0.5,0.5 z M 0.5,1 H 4.857143 V 2 H 0.5 Z" /></g><g
               id="g130"
               transform="rotate(-180,50.125,42)"><path
                 id="path128"
                 style="fill:#ededed;fill-opacity:1;fill-rule:nonzero;stroke:none"
                 d="M 0.5,2 C 0.223858,2 0,1.776142 0,1.5 0,1.223858 0.223858,1 0.5,1 Z M 6.75,1 C 7.026143,1 7.25,1.223858 7.25,1.5 7.25,1.776142 7.026143,2 6.75,2 Z M 0.5,1 H 6.75 V 2 H 0.5 Z" /></g><g
               id="g138"><g
                 id="g136"
                 clip-path="url(#clipPath44)"><g
                   id="g134"
                   transform="translate(93,87)"><path
                     id="path132"
                     style="fill:#ededed;fill-opacity:1;fill-rule:nonzero;stroke:none"
                     d="M 4,2.5 C 4,1.671573 3.328427,1 2.5,1 V -1 C 4.432997,-1 6,0.567003 6,2.5 Z M 2.5,1 C 1.671573,1 1,1.671573 1,2.5 H -1 C -1,0.567003 0.567003,-1 2.5,-1 Z M 1,2.5 C 1,3.328427 1.671573,4 2.5,4 V 6 C 0.567003,6 -1,4.432997 -1,2.5 Z M 2.5,4 C 3.328427,4 4,3.328427 4,2.5 H 6 C 6,4.432997 4.432997,6 2.5,6 Z" /></g></g></g><g
               id="g146"><g
                 id="g144"
                 clip-path="url(#clipPath48)"><g
                   id="g142"
                   transform="translate(97,82)"><path
                     id="path140"
                     style="fill:#ededed;fill-opacity:1;fill-rule:nonzero;stroke:none"
                     d="M 5,3 C 5,1.89543 4.10457,1 3,1 v -2 c 2.209139,0 4,1.790861 4,4 z M 3,1 C 1.895431,1 1,1.89543 1,3 H -1 C -1,0.790861 0.790861,-1 3,-1 Z M 1,3 C 1,4.104569 1.895431,5 3,5 V 7 C 0.790861,7 -1,5.209139 -1,3 Z M 3,5 C 4.10457,5 5,4.104569 5,3 H 7 C 7,5.209139 5.209139,7 3,7 Z" /></g></g></g><g
               id="g150"
               transform="translate(96.5,83)"><path
                 id="path148"
                 style="fill:#f2b114;fill-opacity:1;fill-rule:nonzero;stroke:none"
                 d="M 0,4 H 2.5 V 0 H 0 Z" /></g><g
               id="g154"
               transform="translate(96.5,88)"><path
                 id="path152"
                 style="fill:#f2b214;fill-opacity:1;fill-rule:nonzero;stroke:none"
                 d="M 0,3 H 2.5 V 0 H 0 Z" /></g><g
               id="g158"
               transform="translate(113.75,77.250244)"><path
                 id="path156"
                 d="M 3.209595,6.419189 C 1.436985,6.419189 0,4.982204 0,3.209594 0,1.436983 1.436983,-2e-6 3.209594,-2e-6 h 15.323235 c 1.77261,0 3.209595,1.436985 3.209595,3.209596 0,1.77261 -1.436983,3.209595 -3.209595,3.209595 z M 9.72586,1.666779 V 1.24217 H 7.869141 v 0.424609 h 0.685814 c 0.384726,0.591226 0.769452,1.175286 1.154177,1.75218 0.390302,0.580476 0.777815,1.166328 1.162541,1.757555 0.384713,-0.591227 0.769438,-1.177079 1.154164,-1.757555 0.390301,-0.576894 0.777815,-1.160954 1.16254,-1.75218 h 0.685814 V 1.24217 h -1.856718 v 0.424609 h 0.468361 c -0.11709,0.179159 -0.23418,0.356527 -0.351271,0.532103 -0.06016,0.094716 -0.121126,0.189954 -0.182907,0.285712 H 9.78902 L 9.600406,2.198882 9.249134,1.666779 Z m 1.053813,2.343406 c 0.0056,0.01075 0.01394,0.028666 0.02509,0.053748 0.01673,0.025082 0.03624,0.066289 0.05854,0.12362 l 0.08362,-0.177368 0.560361,-0.854591 h -1.271256 c 0.07806,0.125412 0.161698,0.263365 0.250909,0.413859 0.09479,0.154077 0.192363,0.300987 0.292726,0.440732 z M 17.069992,1.24217 v 0.444019 h -1.212957 v 1.309574 h 0.446878 0.22344 c 0.05675,0.00375 0.134774,0.00562 0.23408,0.00562 L 18.32551,1.242169 h 1.553446 v 0.444019 h -1.000158 l -1.191687,1.348918 c 0.510719,0.059951 0.897312,0.183602 1.159767,0.370952 0.269545,0.18735 0.404318,0.421537 0.404318,0.702561 0,0.191097 -0.08512,0.354091 -0.25536,0.488983 C 18.825598,4.732494 18.612797,4.84303 18.35743,4.929211 18.10207,5.015392 17.825432,5.077217 17.527512,5.114687 17.236687,5.155904 16.970686,5.176513 16.729513,5.176513 H 14.495117 V 4.732494 h 0.478799 V 1.686188 H 14.495117 V 1.242169 Z m -1.212957,3.490325 h 0.936319 c 0.219893,0 0.425598,-0.016862 0.617119,-0.050584 0.198612,-0.033723 0.368851,-0.078688 0.510717,-0.134892 0.134774,-0.059952 0.241173,-0.127398 0.319201,-0.202338 0.08512,-0.07494 0.12768,-0.153627 0.12768,-0.236061 0,-0.071193 -0.02483,-0.146133 -0.07448,-0.224819 C 18.243937,3.805114 18.158817,3.733921 18.038231,3.670222 17.917645,3.606523 17.754498,3.552192 17.548792,3.507228 17.350178,3.466011 17.09482,3.445402 16.782713,3.445402 H 15.857035 Z M 5.544892,1.303996 C 5.257099,1.262779 4.962286,1.24217 4.660454,1.24217 H 2.070312 V 1.686189 H 2.544121 V 4.732495 H 2.070312 v 0.444019 h 2.40062 c 0.343948,0 0.656309,-0.018735 0.937083,-0.056205 C 5.695808,5.082839 5.941482,5.02476 6.145042,4.946074 6.341584,4.867386 6.49601,4.764344 6.608319,4.636947 6.720629,4.513296 6.776784,4.365289 6.776784,4.192927 6.776784,3.960614 6.671494,3.756403 6.460913,3.580294 6.257352,3.404185 5.944991,3.284282 5.523834,3.220583 5.720376,3.198101 5.909894,3.160631 6.092397,3.108173 6.28192,3.055715 6.446875,2.988269 6.587262,2.905835 6.720629,2.823401 6.829429,2.727853 6.913661,2.61919 6.997894,2.510527 7.040009,2.38875 7.040009,2.253859 7.040009,2.085244 6.973326,1.937238 6.839958,1.80984 6.706591,1.686189 6.531107,1.583147 6.313507,1.500713 6.088888,1.414532 5.832682,1.34896 5.544892,1.303996 Z M 4.439345,3.001384 H 3.418029 V 1.686189 h 1.168722 c 0.2176,0 0.421161,0.013115 0.610683,0.039344 0.189523,0.026228 0.357987,0.067445 0.505393,0.12365 0.140384,0.052458 0.252694,0.118031 0.336925,0.196717 0.084233,0.078687 0.126349,0.172362 0.126349,0.281025 0,0.116157 -0.049136,0.217325 -0.147407,0.303506 C 5.920424,2.716612 5.794075,2.787805 5.639653,2.84401 5.478209,2.896468 5.292195,2.935811 5.081615,2.96204 4.871035,2.988269 4.656944,3.001384 4.439345,3.001384 Z M 4.534106,4.732495 H 3.418029 V 3.445402 h 1.137135 c 0.414142,0 0.740541,0.061826 0.979199,0.185476 0.245673,0.123651 0.368512,0.286645 0.368512,0.488983 0,0.116157 -0.038607,0.213579 -0.115819,0.292266 C 5.716866,4.494561 5.615086,4.560133 5.481718,4.608844 5.362389,4.650061 5.222002,4.680037 5.060557,4.698771 4.899112,4.721253 4.723628,4.732495 4.534106,4.732495 Z" /></g><g
               id="g162"
               transform="translate(113.75,84.290283)"><path
                 id="path160"
                 d="M 3.209595,6.419189 C 1.436985,6.419189 0,4.982204 0,3.209594 0,1.436983 1.436983,-2e-6 3.209594,-2e-6 h 15.323235 c 1.77261,0 3.209595,1.436985 3.209595,3.209596 0,1.77261 -1.436983,3.209595 -3.209595,3.209595 z M 9.72586,1.667267 V 1.242659 H 7.869141 v 0.424608 h 0.685814 c 0.384726,0.591226 0.769452,1.175286 1.154177,1.75218 0.390302,0.580477 0.777815,1.166328 1.162541,1.757555 0.384713,-0.591227 0.769438,-1.177078 1.154164,-1.757555 0.390301,-0.576894 0.777815,-1.160954 1.16254,-1.75218 h 0.685814 V 1.242659 h -1.856718 v 0.424608 h 0.468361 c -0.11709,0.179159 -0.23418,0.356527 -0.351271,0.532103 -0.06016,0.094716 -0.121126,0.189954 -0.182907,0.285713 H 9.78902 L 9.600406,2.19937 9.249134,1.667267 Z m 1.053813,2.343407 c 0.0056,0.010749 0.01394,0.028665 0.02509,0.053747 0.01673,0.025082 0.03624,0.066289 0.05854,0.12362 l 0.08362,-0.177367 0.560361,-0.854592 h -1.271256 c 0.07806,0.125412 0.161698,0.263365 0.250909,0.413859 0.09479,0.154077 0.192363,0.300988 0.292726,0.440733 z m 6.290319,-2.768015 v 0.444018 h -1.212957 v 1.309574 h 0.446878 0.22344 c 0.05675,0.00375 0.134774,0.00562 0.23408,0.00562 L 18.32551,1.242658 h 1.553446 v 0.444018 h -1.000158 l -1.191687,1.348918 c 0.510719,0.059952 0.897312,0.183603 1.159767,0.370952 0.269545,0.18735 0.404318,0.421537 0.404318,0.702561 0,0.191097 -0.08512,0.354092 -0.25536,0.488983 C 18.825598,4.732983 18.612797,4.843519 18.35743,4.9297 18.10207,5.015881 17.825432,5.077706 17.527512,5.115176 17.236687,5.156394 16.970686,5.177002 16.729513,5.177002 H 14.495117 V 4.732983 h 0.478799 V 1.686677 H 14.495117 V 1.242659 Z m -1.212957,3.490324 h 0.936319 c 0.219893,0 0.425598,-0.016861 0.617119,-0.050584 0.198612,-0.033723 0.368851,-0.078687 0.510717,-0.134892 0.134774,-0.059952 0.241173,-0.127398 0.319201,-0.202338 0.08512,-0.07494 0.12768,-0.153626 0.12768,-0.236061 0,-0.071192 -0.02483,-0.146132 -0.07448,-0.224819 C 18.243937,3.805602 18.158817,3.734409 18.038231,3.67071 17.917645,3.607011 17.754498,3.55268 17.548792,3.507716 17.350178,3.466499 17.09482,3.44589 16.782713,3.44589 H 15.857035 Z M 5.544892,1.304484 C 5.257099,1.263268 4.962286,1.242659 4.660454,1.242659 H 2.070312 V 1.686677 H 2.544121 V 4.732983 H 2.070312 v 0.444019 h 2.40062 c 0.343948,0 0.656309,-0.018735 0.937083,-0.056205 C 5.695808,5.083327 5.941482,5.025249 6.145042,4.946562 6.341584,4.867875 6.49601,4.764832 6.608319,4.637435 6.720629,4.513784 6.776784,4.365777 6.776784,4.193416 6.776784,3.961102 6.671494,3.756891 6.460913,3.580782 6.257352,3.404674 5.944991,3.28477 5.523834,3.221071 5.720376,3.198589 5.909894,3.161119 6.092397,3.108661 6.28192,3.056203 6.446875,2.988757 6.587262,2.906323 6.720629,2.82389 6.829429,2.728341 6.913661,2.619678 6.997894,2.511016 7.040009,2.389238 7.040009,2.254347 7.040009,2.085732 6.973326,1.937726 6.839958,1.810328 6.706591,1.686677 6.531107,1.583635 6.313507,1.501201 6.088888,1.41502 5.832682,1.349448 5.544892,1.304484 Z M 4.439345,3.001872 H 3.418029 V 1.686677 h 1.168722 c 0.2176,0 0.421161,0.013115 0.610683,0.039344 0.189523,0.026229 0.357987,0.067446 0.505393,0.12365 0.140384,0.052458 0.252694,0.118031 0.336925,0.196718 0.084233,0.078686 0.126349,0.172361 0.126349,0.281025 0,0.116156 -0.049136,0.217325 -0.147407,0.303505 C 5.920424,2.7171 5.794075,2.788293 5.639653,2.844498 5.478209,2.896956 5.292195,2.9363 5.081615,2.962528 4.871035,2.988758 4.656944,3.001872 4.439345,3.001872 Z M 4.534106,4.732983 H 3.418029 V 3.44589 h 1.137135 c 0.414142,0 0.740541,0.061826 0.979199,0.185477 0.245673,0.123651 0.368512,0.286645 0.368512,0.488982 0,0.116157 -0.038607,0.213579 -0.115819,0.292266 C 5.716866,4.495049 5.615086,4.560621 5.481718,4.609332 5.362389,4.650549 5.222002,4.680525 5.060557,4.69926 4.899112,4.721742 4.723628,4.732983 4.534106,4.732983 Z" /></g><g
               id="g166"
               transform="translate(113.75,91.330811)"><path
                 id="path164"
                 d="M 3.209595,6.419189 C 1.436985,6.419189 0,4.982204 0,3.209594 0,1.436983 1.436983,-2e-6 3.209594,-2e-6 h 15.323235 c 1.77261,0 3.209595,1.436985 3.209595,3.209596 0,1.77261 -1.436983,3.209595 -3.209595,3.209595 z M 9.72586,1.667267 V 1.242659 H 7.869141 v 0.424608 h 0.685814 c 0.384726,0.591226 0.769452,1.175286 1.154177,1.75218 0.390302,0.580477 0.777815,1.166328 1.162541,1.757555 0.384713,-0.591227 0.769438,-1.177078 1.154164,-1.757555 0.390301,-0.576894 0.777815,-1.160954 1.16254,-1.75218 h 0.685814 V 1.242659 h -1.856718 v 0.424608 h 0.468361 c -0.11709,0.179159 -0.23418,0.356527 -0.351271,0.532103 -0.06016,0.094716 -0.121126,0.189954 -0.182907,0.285713 H 9.78902 L 9.600406,2.19937 9.249134,1.667267 Z m 1.053813,2.343407 c 0.0056,0.010749 0.01394,0.028665 0.02509,0.053747 0.01673,0.025082 0.03624,0.066289 0.05854,0.12362 l 0.08362,-0.177367 0.560361,-0.854592 h -1.271256 c 0.07806,0.125412 0.161698,0.263365 0.250909,0.413859 0.09479,0.154077 0.192363,0.300988 0.292726,0.440733 z m 6.290319,-2.768015 v 0.444018 h -1.212957 v 1.309574 h 0.446878 0.22344 c 0.05675,0.00375 0.134774,0.00562 0.23408,0.00562 L 18.32551,1.242658 h 1.553446 v 0.444018 h -1.000158 l -1.191687,1.348918 c 0.510719,0.059952 0.897312,0.183603 1.159767,0.370952 0.269545,0.18735 0.404318,0.421537 0.404318,0.702561 0,0.191097 -0.08512,0.354092 -0.25536,0.488983 C 18.825598,4.732983 18.612797,4.843519 18.35743,4.9297 18.10207,5.015881 17.825432,5.077706 17.527512,5.115176 17.236687,5.156394 16.970686,5.177002 16.729513,5.177002 H 14.495117 V 4.732983 h 0.478799 V 1.686677 H 14.495117 V 1.242659 Z m -1.212957,3.490324 h 0.936319 c 0.219893,0 0.425598,-0.016861 0.617119,-0.050584 0.198612,-0.033723 0.368851,-0.078687 0.510717,-0.134892 0.134774,-0.059952 0.241173,-0.127398 0.319201,-0.202338 0.08512,-0.07494 0.12768,-0.153626 0.12768,-0.236061 0,-0.071192 -0.02483,-0.146132 -0.07448,-0.224819 C 18.243937,3.805602 18.158817,3.734409 18.038231,3.67071 17.917645,3.607011 17.754498,3.55268 17.548792,3.507716 17.350178,3.466499 17.09482,3.44589 16.782713,3.44589 H 15.857035 Z M 5.544892,1.304484 C 5.257099,1.263268 4.962286,1.242659 4.660454,1.242659 H 2.070312 V 1.686677 H 2.544121 V 4.732983 H 2.070312 v 0.444019 h 2.40062 c 0.343948,0 0.656309,-0.018735 0.937083,-0.056205 C 5.695808,5.083327 5.941482,5.025249 6.145042,4.946562 6.341584,4.867875 6.49601,4.764832 6.608319,4.637435 6.720629,4.513784 6.776784,4.365777 6.776784,4.193416 6.776784,3.961102 6.671494,3.756891 6.460913,3.580782 6.257352,3.404674 5.944991,3.28477 5.523834,3.221071 5.720376,3.198589 5.909894,3.161119 6.092397,3.108661 6.28192,3.056203 6.446875,2.988757 6.587262,2.906323 6.720629,2.82389 6.829429,2.728341 6.913661,2.619678 6.997894,2.511016 7.040009,2.389238 7.040009,2.254347 7.040009,2.085732 6.973326,1.937726 6.839958,1.810328 6.706591,1.686677 6.531107,1.583635 6.313507,1.501201 6.088888,1.41502 5.832682,1.349448 5.544892,1.304484 Z M 4.439345,3.001872 H 3.418029 V 1.686677 h 1.168722 c 0.2176,0 0.421161,0.013115 0.610683,0.039344 0.189523,0.026229 0.357987,0.067446 0.505393,0.12365 0.140384,0.052458 0.252694,0.118031 0.336925,0.196718 0.084233,0.078686 0.126349,0.172361 0.126349,0.281025 0,0.116156 -0.049136,0.217325 -0.147407,0.303505 C 5.920424,2.7171 5.794075,2.788293 5.639653,2.844498 5.478209,2.896956 5.292195,2.9363 5.081615,2.962528 4.871035,2.988758 4.656944,3.001872 4.439345,3.001872 Z M 4.534106,4.732983 H 3.418029 V 3.44589 h 1.137135 c 0.414142,0 0.740541,0.061826 0.979199,0.185477 0.245673,0.123651 0.368512,0.286645 0.368512,0.488982 0,0.116157 -0.038607,0.213579 -0.115819,0.292266 C 5.716866,4.495049 5.615086,4.560621 5.481718,4.609332 5.362389,4.650549 5.222002,4.680525 5.060557,4.69926 4.899112,4.721742 4.723628,4.732983 4.534106,4.732983 Z" /></g><g
               id="g170"
               transform="translate(59.25,77.61792)"><path
                 id="path168"
                 d="m 15.198675,0.13208 c 0,2.248665 1.900763,10.670815 7.301325,17.084791 l -2.533113,2.397864 c -4.023179,-2.696953 -8.046358,-0.149397 -10.877483,0 -2.831126,0.149398 -3.773037,-0.688811 -5.513245,-1.648531 v 1.198932 H 0 v -8.69226 h 3.576159 c -0.042195,3.191434 4.619205,1.948268 7.748344,1.648534 3.129139,-0.299733 2.816268,0.296412 4.619205,1.049066 C 13.656923,10.796467 9.983443,8.524608 7.003311,6.72621 4.023179,4.927812 3.999563,2.857496 4.023179,0.13208 Z" /></g><g
               id="g174"
               transform="translate(151,90.654297)"><path
                 id="path172"
                 style="fill:#343a4e;fill-opacity:1;fill-rule:nonzero;stroke:none"
                 d="M 0.695312,-10.654297 Z M 5.578125,3.222656 H 7.833984 V -10.654297 H 4.972656 V -0.332031 L 3.195312,-2.070312 1.779297,0.087891 Z m 10.898437,-13.876953 z m 5.263672,11.777344 c -0.540365,0 -0.93099,-0.374349 -1.171875,-1.123047 -0.234375,-0.742188 -0.351562,-1.979166 -0.351562,-3.710938 0,-1.731771 0.117187,-2.96875 0.351562,-3.710937 0.240885,-0.742187 0.63151,-1.113281 1.171875,-1.113281 0.533854,0 0.917969,0.374349 1.152344,1.123047 0.240885,0.755209 0.361328,1.988931 0.361328,3.701171 0,1.712241 -0.120443,2.945964 -0.361328,3.701172 -0.234375,0.755208 -0.61849,1.132813 -1.152344,1.132813 z m -0.01953,2.34375 c 1.464844,0 2.591147,-0.618489 3.378906,-1.855469 0.78776,-1.230469 1.181641,-3.004557 1.181641,-5.322266 0,-2.304687 -0.397135,-4.075521 -1.191406,-5.3125 -0.78776,-1.236978 -1.910807,-1.855468 -3.369141,-1.855468 -1.477865,0 -2.604166,0.611978 -3.378906,1.835937 -0.77474,1.230469 -1.162109,3.007813 -1.162109,5.332031 0,2.337241 0.387369,4.117839 1.162109,5.341797 0.77474,1.223958 1.901041,1.835938 3.378906,1.835938 z m 5.263672,-14.121094 z M 32.248048,1.123047 C 31.707683,1.123047 31.317058,0.748698 31.076173,0 30.841798,-0.742188 30.72461,-1.979166 30.72461,-3.710938 c 0,-1.731771 0.117188,-2.96875 0.351563,-3.710937 0.240885,-0.742187 0.63151,-1.113281 1.171875,-1.113281 0.533855,0 0.917969,0.374349 1.152344,1.123047 0.240886,0.755209 0.361328,1.988931 0.361328,3.701171 0,1.712241 -0.120442,2.945964 -0.361328,3.701172 -0.234375,0.755208 -0.618489,1.132813 -1.152344,1.132813 z m -0.01953,2.34375 c 1.464843,0 2.591144,-0.618489 3.378906,-1.855469 0.787762,-1.230469 1.18164,-3.004557 1.18164,-5.322266 0,-2.304687 -0.397136,-4.075521 -1.191406,-5.3125 -0.787761,-1.236978 -1.910808,-1.855468 -3.36914,-1.855468 -1.477866,0 -2.604166,0.611978 -3.378907,1.835937 -0.77474,1.230469 -1.162109,3.007813 -1.162109,5.332031 0,2.337241 0.387369,4.117839 1.162109,5.341797 0.774741,1.223958 1.901041,1.835938 3.378907,1.835938 z m 5.263672,-14.121094 z m 5.263671,11.777344 c -0.540363,0 -0.930988,-0.374349 -1.171875,-1.123047 -0.234375,-0.742188 -0.351562,-1.979166 -0.351562,-3.710938 0,-1.731771 0.117187,-2.96875 0.351562,-3.710937 0.240887,-0.742187 0.631512,-1.113281 1.171875,-1.113281 0.533856,0 0.917969,0.374349 1.152344,1.123047 0.240887,0.755209 0.361328,1.988931 0.361328,3.701171 0,1.712241 -0.120441,2.945964 -0.361328,3.701172 -0.234375,0.755208 -0.618488,1.132813 -1.152344,1.132813 z m -0.01953,2.34375 c 1.464844,0 2.591145,-0.618489 3.378906,-1.855469 0.787762,-1.230469 1.181641,-3.004557 1.181641,-5.322266 0,-2.304687 -0.397137,-4.075521 -1.191406,-5.3125 -0.787762,-1.236978 -1.910809,-1.855468 -3.369141,-1.855468 -1.477863,0 -2.604168,0.611978 -3.378906,1.835937 -0.774738,1.230469 -1.16211,3.007813 -1.16211,5.332031 0,2.337241 0.387372,4.117839 1.16211,5.341797 0.774738,1.223958 1.901043,1.835938 3.378906,1.835938 z" /></g><g
               id="g180"
               transform="translate(151,90.654297)"><text
                 id="text178"
                 style="font-variant:normal;font-weight:normal;font-size:20px;font-family:Arial;-inkscape-font-specification:Arial;writing-mode:lr-tb;fill:#000000;fill-opacity:1;fill-rule:nonzero;stroke:none"
                 transform="matrix(1,0,0,-1,0.695312,-10.654297)"><tspan
                   id="tspan176"
                   y="0"
                   x="0 10.49804 15.76172 26.25976 36.757801">1 000</tspan></text>
</g><g
               id="g184"
               transform="translate(61.5,105.5)"><path
                 id="path182"
                 d="M 10.843413,0 C 10.062156,0 9.324506,0.173651 8.672647,0.481718 8.02079,0.173653 7.283144,0 6.501887,0 4.505735,0 3.109576,1.144366 2.071118,2.746479 -0.120287,6.127334 -0.140075,9.15493 0.103592,11.786972 0.347258,14.419014 2.252221,16.25 4.902377,16.25 c 1.669066,0 3.139099,-0.792566 3.998774,-1.995126 0.467835,0.654434 1.116433,1.187447 1.879497,1.537379 0.639111,0.293089 1.358521,0.457747 2.119279,0.457747 2.650156,0 4.658545,-2.002157 4.79854,-4.463028 C 17.926321,7.781691 17.439514,5.326114 15.412806,2.746479 13.813295,0.710591 12.839565,0 10.843413,0 Z" /></g><g
               id="g188"
               transform="rotate(-7.3580802,972.44795,-448.07351)"><path
                 id="path186"
                 style="fill:#41bc7d;fill-opacity:1;fill-rule:nonzero;stroke:none"
                 d="M 0,6.013916 C 0.797927,2.02439 2.393782,0.656515 3.989636,2.366248 5.471502,4.418061 3.76164,5.900038 0,6.013916 Z" /></g><g
               id="g192"
               transform="translate(69.5,121)"><path
                 id="path190"
                 style="fill:#41bc7d;fill-opacity:1;fill-rule:nonzero;stroke:none"
                 d="M 3.602886,6.5 C 5.121007,6.49742 5.785007,6.337346 5.748582,5.017544 3.71312,3.797946 2.472565,2.064343 1.581039,0 H 0 c 0.664422,2.469106 1.770905,4.529758 3.602886,6.5 z" /></g><g
               id="g196"
               transform="translate(113.25,108)"><path
                 id="path194"
                 d="M 10,5 C 10,2.238576 7.761424,0 5,0 2.238576,0 0,2.238576 0,5 c 0,2.761424 2.238576,5 5,5 2.761424,0 5,-2.238576 5,-5 z" /></g><g
               id="g200"
               transform="translate(125.25,108)"><path
                 id="path198"
                 d="M 10.25,5 C 10.25,2.238576 7.955459,0 5.125,0 2.294541,0 0,2.238576 0,5 0,7.761424 2.294541,10 5.125,10 7.955459,10 10.25,7.761424 10.25,5 Z" /></g><g
               id="g204"
               transform="translate(121.5,116.69434)"><path
                 id="path202"
                 style="fill:#41bc7d;fill-opacity:1;fill-rule:nonzero;stroke:none"
                 d="m 3.649038,7.949178 c -0.520446,0.120373 -0.820779,0.162081 -1.4375,0 C 1.832609,5.219702 1.501842,3.686121 0,0.920707 0.575188,0.601824 0.853219,0.414978 1.216346,0.055664 c 0.797545,1.437758 1.10869,2.257789 1.4375,3.676431 0,0 0.202008,0.067763 0.331731,0 C 3.527882,2.222537 3.844136,1.382055 4.754807,0.055664 5.086651,0.489942 5.306448,0.701603 5.75,1.028837 4.164104,3.60919 3.720619,5.131751 3.649038,7.949178 Z" /></g><g
               id="g208"
               transform="rotate(87.02702,-1.4593286,125.46875)"><path
                 id="path206"
                 style="fill:#41bc7d;fill-opacity:1;fill-rule:nonzero;stroke:none"
                 d="M 0,5.465576 C 0.759535,1.668009 2.278604,0.365949 3.797673,1.993418 5.208238,3.946507 3.580647,5.357177 0,5.465576 Z" /></g><g
               id="g212"
               transform="translate(86.5,110.5)"><path
                 id="path210"
                 style="fill:#41bc7d;fill-opacity:1;fill-rule:nonzero;stroke:none"
                 d="M 21.75,11 C 21.75,4.924868 16.881098,0 10.875,0 4.868903,0 0,4.924868 0,11 Z" /></g><g
               id="g216"
               transform="translate(87.75,112)"><path
                 id="path214"
                 d="M 19.25,9.5 C 19.25,4.253294 14.940741,0 9.625,0 4.309259,0 0,4.253294 0,9.5 Z" /></g><g
               id="g220"
               transform="rotate(-43.246148,193.73483,-62.703554)"><path
                 id="path218"
                 style="fill:#09120d;fill-opacity:1;fill-rule:nonzero;stroke:none"
                 d="M 0,2.464111 C 0.256979,1.17925 0.770938,0.738714 1.284897,1.289349 1.762144,1.950153 1.211468,2.427436 0,2.464111 Z" /></g><g
               id="g224"
               transform="rotate(1.4056639,-4714.0565,4172.7893)"><path
                 id="path222"
                 style="fill:#09120d;fill-opacity:1;fill-rule:nonzero;stroke:none"
                 d="M 0,1.768066 C 0.256979,0.483205 0.770938,0.042669 1.284897,0.593304 1.762144,1.254108 1.211468,1.731391 0,1.768066 Z" /></g><g
               id="g228"
               transform="rotate(-84.611181,111.00982,8.8303413)"><path
                 id="path226"
                 style="fill:#09120d;fill-opacity:1;fill-rule:nonzero;stroke:none"
                 d="M 0,1.916504 C 0.256979,0.631643 0.770938,0.191107 1.284897,0.741741 1.762144,1.402545 1.211468,1.879828 0,1.916504 Z" /></g><g
               id="g232"
               transform="translate(167,119.6543)"><path
                 id="path230"
                 style="fill:#343a4e;fill-opacity:1;fill-rule:nonzero;stroke:none"
                 d="M 0.476562,-10.654297 Z M 1.853516,3.222656 H 9.314453 V 0.966797 H 4.539062 v -2.65625 c 0.169271,0.026041 0.341797,0.045573 0.517579,0.058594 0.182291,0.01302 0.374349,0.019531 0.576171,0.019531 1.334636,0 2.389324,-0.400391 3.164063,-1.201172 0.774739,-0.794271 1.162109,-1.86849 1.162109,-3.222656 0,-1.445313 -0.472005,-2.613932 -1.416015,-3.50586 -0.9375,-0.891927 -2.174479,-1.33789 -3.710938,-1.33789 -0.553385,0 -1.103515,0.04883 -1.65039,0.146484 -0.540365,0.09115 -1.067709,0.231119 -1.582032,0.419922 l 0.136719,2.5 c 0.377604,-0.208334 0.791016,-0.367838 1.240234,-0.478516 0.45573,-0.110677 0.927735,-0.166015 1.416016,-0.166015 0.768229,0 1.367188,0.198568 1.796875,0.595703 0.429688,0.397135 0.644531,0.947266 0.644531,1.65039 0,0.800782 -0.234375,1.41276 -0.703125,1.835938 -0.462239,0.429688 -1.132812,0.644531 -2.011718,0.644531 -0.345052,0 -0.706381,-0.032552 -1.083985,-0.097656 -0.371094,-0.065104 -0.764974,-0.159506 -1.18164,-0.283203 z m 9.130859,-13.876953 z m 5.263672,11.777344 c -0.540364,0 -0.930989,-0.374349 -1.171875,-1.123047 -0.234375,-0.742188 -0.351563,-1.979166 -0.351563,-3.710938 0,-1.731771 0.117188,-2.96875 0.351563,-3.710937 0.240886,-0.742187 0.631511,-1.113281 1.171875,-1.113281 0.533853,0 0.917969,0.374349 1.152344,1.123047 0.240884,0.755209 0.361328,1.988931 0.361328,3.701171 0,1.712241 -0.120444,2.945964 -0.361328,3.701172 -0.234375,0.755208 -0.618491,1.132813 -1.152344,1.132813 z m -0.01953,2.34375 c 1.464843,0 2.591146,-0.618489 3.378906,-1.855469 0.78776,-1.230469 1.18164,-3.004557 1.18164,-5.322266 0,-2.304687 -0.397134,-4.075521 -1.191406,-5.3125 -0.78776,-1.236978 -1.910806,-1.855468 -3.36914,-1.855468 -1.477865,0 -2.604167,0.611978 -3.378907,1.835937 -0.774739,1.230469 -1.162109,3.007813 -1.162109,5.332031 0,2.337241 0.38737,4.117839 1.162109,5.341797 0.77474,1.223958 1.901042,1.835938 3.378907,1.835938 z m 5.263672,-14.121094 z M 26.75586,1.123047 C 26.215495,1.123047 25.82487,0.748698 25.583985,0 25.34961,-0.742188 25.232423,-1.979166 25.232423,-3.710938 c 0,-1.731771 0.117187,-2.96875 0.351562,-3.710937 0.240885,-0.742187 0.63151,-1.113281 1.171875,-1.113281 0.533854,0 0.917969,0.374349 1.152344,1.123047 0.240885,0.755209 0.361328,1.988931 0.361328,3.701171 0,1.712241 -0.120443,2.945964 -0.361328,3.701172 -0.234375,0.755208 -0.61849,1.132813 -1.152344,1.132813 z m -0.01953,2.34375 c 1.464844,0 2.591147,-0.618489 3.378906,-1.855469 0.78776,-1.230469 1.181641,-3.004557 1.181641,-5.322266 0,-2.304687 -0.397135,-4.075521 -1.191406,-5.3125 -0.78776,-1.236978 -1.910807,-1.855468 -3.369141,-1.855468 -1.477865,0 -2.604166,0.611978 -3.378906,1.835937 -0.77474,1.230469 -1.16211,3.007813 -1.16211,5.332031 0,2.337241 0.38737,4.117839 1.16211,5.341797 0.77474,1.223958 1.901041,1.835938 3.378906,1.835938 z" /></g><g
               id="g238"
               transform="translate(167,119.6543)"><text
                 id="text236"
                 style="font-variant:normal;font-weight:normal;font-size:20px;font-family:Arial;-inkscape-font-specification:Arial;writing-mode:lr-tb;fill:#000000;fill-opacity:1;fill-rule:nonzero;stroke:none"
                 transform="matrix(1,0,0,-1,0.476562,-10.654297)"><tspan
                   id="tspan234"
                   y="0"
                   x="0 10.49804 20.99608">500</tspan></text>
</g><g
               id="g242"
               transform="translate(88,134.5)"><path
                 id="path240"
                 d="M 17.5,8.75 C 17.5,3.917508 13.582492,0 8.75,0 3.917508,0 0,3.917508 0,8.75 c 0,4.832492 3.917508,8.75 8.75,8.75 4.832492,0 8.75,-3.917508 8.75,-8.75 z" /></g><g
               id="g246"
               transform="translate(96.75,150.25)"><path
                 id="path244"
                 style="fill:#41bc7d;fill-opacity:1;fill-rule:nonzero;stroke:none"
                 d="m 0.132429,6.25 c -0.191843,-1.233136 -0.160612,-2.087049 0,-3.729839 C 3.283201,2.081841 4.596531,1.526394 6.16753,0 c 0.126566,0.909863 0.092004,1.317815 0,2.016129 C 4.341939,3.574716 2.227301,4.834005 0.132429,6.25 Z" /></g><g
               id="g250"
               transform="translate(60.25,134.5)"><path
                 id="path248"
                 d="m 10,0 c 5.108634,0 9.25,4.029437 9.25,9 0,1.455065 0,2.208565 0.538452,3.183685 0.06289,0.113884 0.133116,0.230791 0.211548,0.352192 0.159767,0.326229 0.25,0.696553 0.25,1.089123 0,1.311676 -1,2.375 -2.25,2.375 l -0.02786,-1.76e-4 c -1.471224,-0.008 -2.185952,0.19862 -3.332757,0.788027 -0.145526,0.07479 -0.29801,0.155753 -0.45988,0.243218 C 12.924165,17.650755 11.504001,18 10,18 4.891366,18 0.75,13.970563 0.75,9 0.75,7.468814 0.971967,6.825498 0.370138,5.680542 0.333264,5.610392 0.293299,5.538359 0.25,5.464123 0.090233,5.137893 0,4.76757 0,4.375 0,3.063324 1.007359,2 2.25,2 3.5,2 3.875,2.125 4.625,1.674532 6.139918,0.620365 7.9955,0 10,0 Z" /></g><g
               id="g254"
               transform="translate(70.875,150.99243)"><path
                 id="path252"
                 style="fill:#41bc7d;fill-opacity:1;fill-rule:nonzero;stroke:none"
                 d="m 0,5.507568 0.374831,-3.25 c 0,0 3.086115,-0.100098 5.750028,-2.125 1.499948,-0.090653 1.500254,-0.132494 2.625164,0 0.116794,0.883209 -0.685484,2.608176 -2.750001,3.25 C 3.986317,3.904831 0,5.507568 0,5.507568 Z" /></g><g
               id="g258"
               transform="translate(113.5,143.84082)"><path
                 id="path256"
                 d="M 1.202652,5.645849 C 7.068772,2.984759 10.233811,2.969287 15.525145,7.15918 L 16.618464,6.51061 C 13.587682,1.958202 11.451977,-7.4e-5 4.263948,1.105859 L 3.607956,0.457289 C 1.398007,1.133765 0.859104,2.397755 0,4.781089 Z" /></g><g
               id="g262"
               transform="translate(113.5,140.40674)"><path
                 id="path260"
                 d="m 4.482612,3.675181 c 6.968344,-0.64857 9.296007,1.054767 12.901177,6.269511 h 0.983988 C 16.995865,4.497508 16.016792,1.6057 8.965224,0.540425 L 8.199901,-0.64862 C 5.331441,0.164412 4.709418,1.071876 3.389292,2.594231 Z" /></g><g
               id="g266"
               transform="translate(113.5,135.43457)"><path
                 id="path264"
                 d="M 20.773081,15.349239 C 24.818365,6.485505 18.367777,-0.216361 8.637228,3.242599 l 0.327996,1.405235 c 7.200095,1.899874 8.918708,4.499396 10.277208,10.269026 z" /></g><g
               id="g270"
               transform="translate(129.25,150.85254)"><path
                 id="path268"
                 style="fill:#41bc7d;fill-opacity:1;fill-rule:nonzero;stroke:none"
                 d="M 4.071429,2.397461 4.5,0.575826 C 2.528365,-4.7e-5 1.543876,0.009412 0,0.575826 l 0.75,1.821635 z" /></g><g
               id="g274"
               transform="translate(167,148.6543)"><path
                 id="path272"
                 style="fill:#343a4e;fill-opacity:1;fill-rule:nonzero;stroke:none"
                 d="M 0.476562,-10.654297 Z M 5.359375,3.222656 H 7.615234 V -10.654297 H 4.753906 V -0.332031 L 2.976562,-2.070312 1.560547,0.087891 Z m 5.625,-13.876953 z m 5.263672,11.777344 c -0.540364,0 -0.930989,-0.374349 -1.171875,-1.123047 -0.234375,-0.742188 -0.351563,-1.979166 -0.351563,-3.710938 0,-1.731771 0.117188,-2.96875 0.351563,-3.710937 0.240886,-0.742187 0.631511,-1.113281 1.171875,-1.113281 0.533853,0 0.917969,0.374349 1.152344,1.123047 0.240884,0.755209 0.361328,1.988931 0.361328,3.701171 0,1.712241 -0.120444,2.945964 -0.361328,3.701172 -0.234375,0.755208 -0.618491,1.132813 -1.152344,1.132813 z m -0.01953,2.34375 c 1.464843,0 2.591146,-0.618489 3.378906,-1.855469 0.78776,-1.230469 1.18164,-3.004557 1.18164,-5.322266 0,-2.304687 -0.397134,-4.075521 -1.191406,-5.3125 -0.78776,-1.236978 -1.910806,-1.855468 -3.36914,-1.855468 -1.477865,0 -2.604167,0.611978 -3.378907,1.835937 -0.774739,1.230469 -1.162109,3.007813 -1.162109,5.332031 0,2.337241 0.38737,4.117839 1.162109,5.341797 0.77474,1.223958 1.901042,1.835938 3.378907,1.835938 z m 5.263672,-14.121094 z M 26.75586,1.123047 C 26.215495,1.123047 25.82487,0.748698 25.583985,0 25.34961,-0.742188 25.232423,-1.979166 25.232423,-3.710938 c 0,-1.731771 0.117187,-2.96875 0.351562,-3.710937 0.240885,-0.742187 0.63151,-1.113281 1.171875,-1.113281 0.533854,0 0.917969,0.374349 1.152344,1.123047 0.240885,0.755209 0.361328,1.988931 0.361328,3.701171 0,1.712241 -0.120443,2.945964 -0.361328,3.701172 -0.234375,0.755208 -0.61849,1.132813 -1.152344,1.132813 z m -0.01953,2.34375 c 1.464844,0 2.591147,-0.618489 3.378906,-1.855469 0.78776,-1.230469 1.181641,-3.004557 1.181641,-5.322266 0,-2.304687 -0.397135,-4.075521 -1.191406,-5.3125 -0.78776,-1.236978 -1.910807,-1.855468 -3.369141,-1.855468 -1.477865,0 -2.604166,0.611978 -3.378906,1.835937 -0.77474,1.230469 -1.16211,3.007813 -1.16211,5.332031 0,2.337241 0.38737,4.117839 1.16211,5.341797 0.77474,1.223958 1.901041,1.835938 3.378906,1.835938 z" /></g><g
               id="g280"
               transform="translate(167,148.6543)"><text
                 id="text278"
                 style="font-variant:normal;font-weight:normal;font-size:20px;font-family:Arial;-inkscape-font-specification:Arial;writing-mode:lr-tb;fill:#000000;fill-opacity:1;fill-rule:nonzero;stroke:none"
                 transform="matrix(1,0,0,-1,0.476562,-10.654297)"><tspan
                   id="tspan276"
                   y="0"
                   x="0 10.49804 20.99608">100</tspan></text>
</g><g
               id="g284"
               transform="translate(86,178.6543)"><path
                 id="path282"
                 style="fill:#343a4e;fill-opacity:1;fill-rule:nonzero;stroke:none"
                 d="M 0.984375,-10.654297 Z M 2.361328,3.222656 H 9.822266 V 0.966797 H 5.046875 v -2.65625 c 0.169271,0.026041 0.341797,0.045573 0.517578,0.058594 0.182292,0.01302 0.374349,0.019531 0.576172,0.019531 1.334636,0 2.389323,-0.400391 3.164063,-1.201172 0.774739,-0.794271 1.162109,-1.86849 1.162109,-3.222656 0,-1.445313 -0.472005,-2.613932 -1.416016,-3.50586 -0.9375,-0.891927 -2.174479,-1.33789 -3.710937,-1.33789 -0.553386,0 -1.103516,0.04883 -1.650391,0.146484 -0.540365,0.09115 -1.067708,0.231119 -1.582031,0.419922 l 0.136719,2.5 c 0.377604,-0.208334 0.791015,-0.367838 1.240234,-0.478516 0.455729,-0.110677 0.927734,-0.166015 1.416016,-0.166015 0.768229,0 1.367187,0.198568 1.796875,0.595703 0.429687,0.397135 0.644531,0.947266 0.644531,1.65039 0,0.800782 -0.234375,1.41276 -0.703125,1.835938 -0.46224,0.429688 -1.132813,0.644531 -2.011719,0.644531 -0.345052,0 -0.70638,-0.032552 -1.083984,-0.097656 C 3.171875,-3.893229 2.777995,-3.987631 2.361328,-4.111328 Z m 9.13086,-13.876953 z M 16.755859,1.123047 C 16.215494,1.123047 15.82487,0.748698 15.583984,0 c -0.234375,-0.742188 -0.351562,-1.979166 -0.351562,-3.710938 0,-1.731771 0.117187,-2.96875 0.351562,-3.710937 0.240886,-0.742187 0.63151,-1.113281 1.171875,-1.113281 0.533854,0 0.917969,0.374349 1.152344,1.123047 0.240885,0.755209 0.361328,1.988931 0.361328,3.701171 0,1.712241 -0.120443,2.945964 -0.361328,3.701172 -0.234375,0.755208 -0.61849,1.132813 -1.152344,1.132813 z m -0.01953,2.34375 c 1.464844,0 2.591147,-0.618489 3.378906,-1.855469 0.78776,-1.230469 1.181641,-3.004557 1.181641,-5.322266 0,-2.304687 -0.397135,-4.075521 -1.191406,-5.3125 -0.78776,-1.236978 -1.910807,-1.855468 -3.369141,-1.855468 -1.477864,0 -2.604167,0.611978 -3.378906,1.835937 -0.774739,1.230469 -1.16211,3.007813 -1.16211,5.332031 0,2.337241 0.387371,4.117839 1.16211,5.341797 0.774739,1.223958 1.901042,1.835938 3.378906,1.835938 z" /></g><g
               id="g290"
               transform="translate(86,178.6543)"><text
                 id="text288"
                 style="font-variant:normal;font-weight:normal;font-size:20px;font-family:Arial;-inkscape-font-specification:Arial;writing-mode:lr-tb;fill:#000000;fill-opacity:1;fill-rule:nonzero;stroke:none"
                 transform="matrix(1,0,0,-1,0.984375,-10.654297)"><tspan
                   id="tspan286"
                   y="0"
                   x="0 10.49804">50</tspan></text>
</g><g
               id="g294"
               transform="translate(145,173.82031)"><path
                 id="path292"
                 style="fill:#343a4e;fill-opacity:1;fill-rule:nonzero;stroke:none"
                 d="M 0.328125,-5.820312 Z M 5.210938,8.056641 H 7.466797 V -5.820312 H 4.605469 V 4.501953 L 2.828125,2.763672 1.412109,4.921875 Z M 16.109375,-5.820312 Z m 8.701172,13.662109 -0.185547,-2.5 c -0.488281,0.214844 -0.963541,0.377604 -1.425781,0.488281 -0.46224,0.110677 -0.891928,0.166016 -1.289063,0.166016 -0.611978,0 -1.08724,-0.123698 -1.425781,-0.371094 -0.332031,-0.247396 -0.498047,-0.595703 -0.498047,-1.044922 0,-0.416667 0.139975,-0.768229 0.419922,-1.054687 0.279947,-0.286458 0.852865,-0.634766 1.71875,-1.044922 1.445312,-0.696615 2.379557,-1.334635 2.802734,-1.914063 0.429688,-0.579427 0.644532,-1.341146 0.644532,-2.285156 0,-1.334635 -0.439454,-2.389322 -1.31836,-3.164062 -0.878906,-0.774741 -2.080078,-1.16211 -3.603515,-1.16211 -0.527344,0 -1.080729,0.052084 -1.660157,0.15625 -0.579427,0.097656 -1.207681,0.247397 -1.884765,0.449219 l 0.24414,2.5 c 0.585938,-0.286459 1.139323,-0.498047 1.660157,-0.634766 0.520834,-0.136719 1.022134,-0.205078 1.503906,-0.205078 0.63151,0 1.123047,0.143229 1.474609,0.429688 0.358073,0.292968 0.53711,0.696615 0.53711,1.210937 0,0.722656 -0.738932,1.458334 -2.216797,2.207031 -0.182291,0.091147 -0.31901,0.159506 -0.410156,0.205079 -1.171876,0.592447 -1.953126,1.165365 -2.34375,1.71875 -0.390626,0.553384 -0.585938,1.26302 -0.585938,2.128906 0,1.302083 0.426432,2.324218 1.279297,3.066406 0.859375,0.742188 2.047525,1.113281 3.564453,1.113281 0.46224,0 0.940756,-0.039062 1.435547,-0.117187 0.494791,-0.071615 1.015625,-0.185547 1.5625,-0.341797 z m 1.474609,-13.662109 z m 4.257813,1.416015 v -5.771484 h -3.03711 v 12.03125 c 0,0.097656 -0.01628,0.553385 -0.04883,1.367187 -0.01953,0.533855 -0.03581,0.973308 -0.04883,1.31836 h 2.929688 c 0.01953,-0.169271 0.03581,-0.371094 0.04883,-0.605469 0.01302,-0.234375 0.02604,-0.566406 0.03906,-0.996094 0.332031,0.618489 0.725912,1.074219 1.181641,1.367188 0.462238,0.299479 1.002605,0.449218 1.621094,0.449218 1.165363,0 2.060546,-0.462239 2.685546,-1.386718 0.631512,-0.924479 0.947266,-2.26237 0.947266,-4.013672 0,-1.764323 -0.3125,-3.105469 -0.9375,-4.023438 -0.618488,-0.917969 -1.529949,-1.376953 -2.734375,-1.376953 -0.585937,0 -1.087238,0.130209 -1.503906,0.390625 -0.416666,0.260416 -0.797526,0.677084 -1.142578,1.25 z m 0,3.320313 c 0,-0.839844 0.136719,-1.490885 0.410156,-1.953125 0.273437,-0.455729 0.657553,-0.683594 1.152344,-0.683594 0.507812,0 0.895183,0.260416 1.162109,0.78125 0.266926,0.520834 0.400391,1.285807 0.400391,2.294922 0,1.028646 -0.133465,1.80664 -0.400391,2.333984 -0.260418,0.527344 -0.647785,0.791016 -1.162109,0.791016 -0.494791,0 -0.878907,-0.231119 -1.152344,-0.69336 C 30.679688,1.331381 30.542969,0.683594 30.542969,-0.15625 Z m 7.03125,-4.736328 z M 38.794922,4.541016 H 41.8125 V -5.820312 h -3.017578 z m 0,4.46289 H 41.8125 V 6.298828 h -3.017578 z m 4.248047,-14.824218 z m 9.84375,7.080078 v -7.080078 h -3.046875 v 6.396484 c 0,0.566406 -0.0944,0.979818 -0.283203,1.240234 -0.182293,0.266928 -0.472004,0.400391 -0.869141,0.400391 -0.449219,0 -0.79427,-0.182291 -1.035156,-0.546875 C 47.417969,1.305338 47.300781,0.77474 47.300781,0.078125 v -5.898437 h -3.037109 v 8.115234 c 0,0.598959 -0.0098,1.054687 -0.0293,1.367187 -0.01302,0.3125 -0.03581,0.605469 -0.06836,0.878907 h 2.773437 c 0.03906,-0.3125 0.06511,-0.598958 0.07813,-0.859375 0.01953,-0.253907 0.0293,-0.494792 0.0293,-0.722657 0.234375,0.559896 0.608723,0.999349 1.123047,1.31836 0.520832,0.31901 1.113281,0.478515 1.777344,0.478515 0.957031,0 1.686199,-0.296223 2.1875,-0.888671 0.5013,-0.592449 0.751953,-1.461588 0.751953,-2.607422 z" /></g><g
               id="g300"
               transform="translate(145,173.82031)"><text
                 id="text298"
                 style="font-variant:normal;font-weight:normal;font-size:20px;font-family:Arial;-inkscape-font-specification:Arial;writing-mode:lr-tb;fill:#000000;fill-opacity:1;fill-rule:nonzero;stroke:none"
                 transform="matrix(1,0,0,-1,0.328125,-5.820312)"><tspan
                   id="tspan296"
                   y="0"
                   x="0 10.49804 15.76172 25.9375 37.216801 42.675781">1 Spin</tspan></text>
</g><g
               id="g306"><g
                 id="g304"
                 transform="translate(60,166.99976)"><path
                   id="path302"
                   style="fill:#b1c9f8;fill-opacity:0.98999999;fill-rule:evenodd;stroke:none"
                   d="m 17.568413,11.43939 0.217634,5.658484 0.134222,-0.0052 -0.0034,0.0052 h -5.571711 l 5.223241,-5.65851 z M 10.984319,17.0979 H 4.665715 l 0.653648,-5.664952 5.664926,5.664926 z m 0.678793,-0.735418 -5.32806,-5.328058 H 16.58132 Z M 0,10.034424 H 4.630834 L 9.288873,1.185584 Z M 11.043026,5.1e-5 c 0.01154,0.036011 0.02737,0.071272 0.04766,0.105097 l 5.957564,9.929276 H 5.760921 Z m 2.162658,1.686444 8.763053,8.347929 h -3.788351 l 0.02504,-0.01502 -0.257248,-0.428748 -4.742495,-7.904157 z m 5.347893,9.347929 h 3.319584 l -3.134796,4.804457 z m -18.458001,0 3.622525,5.551962 0.640611,-5.551962 z" /></g></g><g
               id="g310"
               transform="translate(120,162.72192)"><path
                 id="path308"
                 style="fill:#41bc7d;fill-opacity:1;fill-rule:nonzero;stroke:none"
                 d="M 2.262394,14.582439 C 2.291647,14.546829 2.274915,14.492599 2.23096,14.478734 0.923441,14.066315 0.007154,12.951568 3.9e-5,11.698989 -0.007245,10.416783 1.007653,8.487751 2.933034,8.733267 c 1.57448,0.200771 5.737501,1.637852 7.202625,2.155001 0.07181,0.02535 0.120782,-0.07626 0.05725,-0.118239 C 7.224923,8.80896 3.995814,6.412195 3.725007,5.199497 3.440076,3.923552 4.425807,2.106031 5.827542,1.689791 c 1.365501,-0.40548 1.686954,-0.102419 2.63301,0.648451 0.0361,0.02865 0.090054,0.01102 0.103188,-0.03315 0.390697,-1.313942 1.490268,-2.248463 2.7428,-2.276407 1.282156,-0.028605 3.228178,0.953872 3.014668,2.882696 -0.173574,1.568065 -1.476953,5.703914 -1.958435,7.196157 -0.02349,0.07279 0.08007,0.120387 0.119945,0.05512 1.849886,-3.027568 4.119155,-6.290111 5.31887,-6.604114 1.26499,-0.331089 3.117508,0.587704 3.58453,1.973101 0.454948,1.349586 0.163721,1.681785 -0.552393,2.654337 -0.02733,0.03711 -0.0077,0.090379 0.03688,0.101895 1.327538,0.342579 2.301611,1.407223 2.375092,2.657665 0.07522,1.280019 -0.836031,3.260104 -2.771717,3.116921 -1.644901,-0.121673 -6.215216,-1.344695 -7.551237,-1.709405 -0.06995,-0.01909 -0.111968,0.07589 -0.05231,0.117087 2.960235,2.043813 6.230636,4.569909 6.478139,5.807252 0.256434,1.281975 -0.769546,3.077089 -2.180206,3.462008 -1.374196,0.374969 -1.688819,0.06482 -2.61791,-0.706927 -0.03545,-0.02945 -0.08979,-0.01303 -0.103902,0.03084 -0.419875,1.304915 -1.539993,2.214714 -2.792837,2.214756 -1.282476,4.4e-5 -3.206124,-1.02553 -2.949695,-2.949119 0.211821,-1.588959 1.648851,-5.802321 2.142414,-7.220156 0.02476,-0.07112 -0.07519,-0.118449 -0.117779,-0.05634 -2.013716,2.936734 -4.460916,6.05987 -5.683601,6.311534 C 3.764298,19.627609 1.96307,18.611979 1.570119,17.203789 1.187325,15.831999 1.495748,15.515692 2.262394,14.582439 Z" /></g><g
               id="g322"><g
                 id="g314"
                 transform="translate(502,30)"><path
                   id="path312"
                   style="fill:#ededed;fill-opacity:1;fill-rule:nonzero;stroke:none"
                   d="m 0,27 c 0,5.522846 4.477152,10 10,10 h 49 c 5.522842,0 10,-4.477154 10,-10 V 10 C 69,4.477154 64.52285,0 59,0 H 10.000002 C 4.477154,0 0,4.477154 0,10 Z" /></g><g
                 id="g320"
                 clip-path="url(#clipPath52)"><g
                   id="g318"
                   transform="translate(502,30)"><path
                     id="path316"
                     style="fill:#ffcd1e;fill-opacity:1;fill-rule:nonzero;stroke:none"
                     d="M 10,32 H 59 V 42 H 10 Z M 64,27 V 10 H 74 V 27 Z M 59,5 H 10.000002 V -5 H 59 Z M 5,10 V 27 H -5 V 10 Z M 10.000002,5 C 7.238577,5 5,7.238577 5,10 H -5 C -5,1.715729 1.715732,-5 10.000002,-5 Z M 64,10 C 64,7.238577 61.761425,5 59,5 V -5 c 8.284271,0 15,6.715729 15,15 z m -5,22 c 2.761425,0 5,-2.238577 5,-5 h 10 c 0,8.284271 -6.715729,15 -15,15 z M 10,42 C 1.715728,42 -5,35.284271 -5,27 H 5 c 0,2.761423 2.238577,5 5,5 z" /></g></g></g><g
               id="g334"><g
                 id="g326"
                 transform="translate(231,71)"><path
                   id="path324"
                   style="fill:#ededed;fill-opacity:1;fill-rule:nonzero;stroke:none"
                   d="m 0,40 c 0,5.52285 4.477153,10 10,10 h 204 c 5.52284,0 10,-4.477154 10,-10 V 10 C 224,4.477154 219.52284,0 214,0 H 10.000002 C 4.477155,0 0,4.477154 0,10 Z" /></g><g
                 id="g332"
                 clip-path="url(#clipPath56)"><g
                   id="g330"
                   transform="translate(231,71)"><path
                     id="path328"
                     style="fill:#ffcd1e;fill-opacity:1;fill-rule:nonzero;stroke:none"
                     d="M 10,42 H 214 V 58 H 10 Z M 216,40 V 10 h 16 V 40 Z M 214,8 H 10.000002 V -8 H 214 Z M 8,10 V 40 H -8 V 10 Z M 10.000002,8 C 8.895431,8 8,8.895432 8,10 H -8 C -8,0.058872 0.058878,-8 10.000002,-8 Z M 216,10 c 0,-1.104568 -0.89543,-2 -2,-2 V -8 c 9.94113,0 18,8.058872 18,18 z m -2,32 c 1.10457,0 2,-0.895432 2,-2 h 16 c 0,9.941128 -8.05888,18 -18,18 z M 10,58 C 0.058876,58 -8,49.941128 -8,40 H 8 c 0,1.104568 0.89543,2 2,2 z" /></g></g></g><g
               id="g346"><g
                 id="g338"
                 transform="translate(231,147)"><path
                   id="path336"
                   style="fill:#ededed;fill-opacity:1;fill-rule:nonzero;stroke:none"
                   d="m 0,40 c 0,5.52285 4.477153,10 10,10 h 204 c 5.52284,0 10,-4.477154 10,-10 V 10 C 224,4.477154 219.52284,0 214,0 H 10.000002 C 4.477155,0 0,4.477154 0,10 Z" /></g><g
                 id="g344"
                 clip-path="url(#clipPath60)"><g
                   id="g342"
                   transform="translate(231,147)"><path
                     id="path340"
                     style="fill:#b62345;fill-opacity:1;fill-rule:nonzero;stroke:none"
                     d="M 10,42 H 214 V 58 H 10 Z M 216,40 V 10 h 16 V 40 Z M 214,8 H 10.000002 V -8 H 214 Z M 8,10 V 40 H -8 V 10 Z M 10.000002,8 C 8.895431,8 8,8.895432 8,10 H -8 C -8,0.058872 0.058878,-8 10.000002,-8 Z M 216,10 c 0,-1.104568 -0.89543,-2 -2,-2 V -8 c 9.94113,0 18,8.058872 18,18 z m -2,32 c 1.10457,0 2,-0.895432 2,-2 h 16 c 0,9.941128 -8.05888,18 -18,18 z M 10,58 C 0.058876,58 -8,49.941128 -8,40 H 8 c 0,1.104568 0.89543,2 2,2 z" /></g></g></g><g
               id="g354"><g
                 id="g352"
                 clip-path="url(#clipPath64)"><g
                   id="g350"
                   transform="translate(43,223)"><path
                     id="path348"
                     style="fill:#ffcd1e;fill-opacity:1;fill-rule:nonzero;stroke:none"
                     d="m 10,225 h 535 v 30 H 10 Z m 530,5 V 10 h 30 V 230 Z M 545,15 H 9.999994 V -15 H 545 Z M 15,10 V 230 H -15 V 10 Z M 9.999994,15 C 12.76143,15 15,12.761414 15,10 H -15 C -15,-3.807114 -3.807137,-15 9.999994,-15 Z M 540,10 c 0,2.761414 2.23859,5 5,5 v -30 c 13.80713,0 25,11.192902 25,25 z m 5,215 c -2.76141,0 -5,2.23859 -5,5 h 30 c 0,13.8071 -11.19287,25 -25,25 z M 10,255 c -13.807127,0 -25,-11.1929 -25,-25 h 30 c 0,-2.76141 -2.238567,-5 -5,-5 z" /></g></g></g><g
               id="g358"
               transform="rotate(-90,207.51868,156.48157)"><path
                 id="path356"
                 style="fill:#ffcd1e;fill-opacity:1;fill-rule:nonzero;stroke:none"
                 d="m 18.101381,27.487003 c 1.564574,2.520857 5.232664,2.520855 6.797238,-2e-6 L 36.327763,9.072247 C 37.981564,6.407631 36.065262,2.962891 32.929142,2.962891 H 10.070848 c -3.136117,0 -5.052411,3.44474 -3.398612,6.109357 z" /></g><g
               id="g362"
               transform="matrix(0,-1,-1,0,590.96289,364.00024)"><path
                 id="path360"
                 style="fill:#ffcd1e;fill-opacity:1;fill-rule:nonzero;stroke:none"
                 d="m 18.101381,27.487003 c 1.564574,2.520857 5.232664,2.520855 6.797238,-2e-6 L 36.327763,9.072247 C 37.981564,6.407631 36.065262,2.962891 32.929142,2.962891 H 10.070848 c -3.136117,0 -5.052411,3.44474 -3.398612,6.109357 z" /></g><g
               id="g374"><g
                 id="g366"
                 transform="translate(43,485)"><path
                   id="path364"
                   style="fill:#ededed;fill-opacity:1;fill-rule:nonzero;stroke:none"
                   d="m 0,80 c 0,5.52285 4.477153,10 10,10 h 535 c 5.52283,0 10,-4.47715 10,-10 V 10 C 555,4.47715 550.52283,0 545,0 H 9.999994 C 4.477147,0 0,4.47715 0,10 Z" /></g><g
                 id="g372"
                 clip-path="url(#clipPath68)"><g
                   id="g370"
                   transform="translate(43,485)"><path
                     id="path368"
                     style="fill:#b62345;fill-opacity:1;fill-rule:nonzero;stroke:none"
                     d="m 10,75 h 535 v 30 H 10 Z m 530,5 V 10 h 30 v 70 z m 5,-65 H 9.999994 V -15 H 545 Z M 15,10 V 80 H -15 V 10 Z M 9.999994,15 C 12.76143,15 15,12.761414 15,10 H -15 C -15,-3.807106 -3.807136,-15 9.999994,-15 Z M 540,10 c 0,2.761421 2.23859,5 5,5 v -30 c 13.80713,0 25,11.192879 25,25 z m 5,65 c -2.76141,0 -5,2.238586 -5,5 h 30 c 0,13.807106 -11.19287,25 -25,25 z M 10,105 C -3.807117,105 -15,93.807121 -15,80 h 30 c 0,-2.761429 -2.238578,-5 -5,-5 z" /></g></g></g><g
               id="g378"
               transform="translate(196,509.34253)"><path
                 id="path376"
                 style="fill:#343a4e;fill-opacity:1;fill-rule:nonzero;stroke:none"
                 d="m 0.489258,0.657471 z m 8.126221,36.427002 h 8.408203 V 14.141357 c 0,-5.058593 -0.803223,-8.673095 -2.409668,-10.843505 C 13.007568,1.144531 10.384277,0.067871 6.744141,0.067871 5.855469,0.067871 4.949707,0.15332 4.026855,0.324219 3.104004,0.495117 2.155518,0.74292 1.181396,1.067627 L 1.540283,7.783936 C 2.035889,7.595947 2.505859,7.450684 2.950195,7.348145 3.411621,7.262695 3.847412,7.219971 4.257568,7.219971 c 1.435547,0 2.520752,0.427246 3.255616,1.281738 0.734863,0.854492 1.102295,2.110596 1.102295,3.768311 v 1.768798 z M 28.410645,0.657471 Z m 16.021728,29.249267 -4.35791,-14.816894 h 8.22876 z m -4.691162,7.177735 h 9.664307 L 60.710449,0.657471 h -8.664551 l -2.10205,8.12622 H 38.22876 L 36.02417,0.657471 H 27.897949 Z M 68.175293,0.657471 Z M 95.783936,35.982178 95.373779,29.16333 c -1.11084,0.683594 -2.213134,1.179199 -3.306884,1.486816 -1.09375,0.307618 -2.298584,0.461426 -3.614502,0.461426 -3.041993,0 -5.391846,-1.05957 -7.049561,-3.178711 -1.640625,-2.11914 -2.460937,-5.118408 -2.460937,-8.997802 0,-3.964844 0.845947,-7.023926 2.537841,-9.177247 1.708985,-2.15332 4.135743,-3.22998 7.280274,-3.22998 1.145019,0 2.281494,0.170898 3.409424,0.512695 1.127929,0.341797 2.281494,0.871582 3.460693,1.589356 L 95.989014,1.605957 C 94.690186,1.093262 93.331543,0.70874 91.913086,0.452393 90.494629,0.196045 89.007812,0.067871 87.452637,0.067871 c -5.297852,0 -9.510498,1.70044 -12.63794,5.101318 -3.127441,3.400879 -4.691162,7.989502 -4.691162,13.76587 0,5.690918 1.546631,10.245361 4.639893,13.66333 3.110351,3.417968 7.246093,5.126953 12.407226,5.126953 1.435547,0 2.862549,-0.145264 4.281006,-0.435791 1.435547,-0.290528 2.879639,-0.726319 4.332276,-1.307373 z M 105.27393,0.657471 Z m 3.6145,36.427002 h 8.35693 V 22.139404 l 9.12598,14.945069 h 9.25415 L 124.60254,20.139893 136.57397,0.657471 h -9.86938 l -9.45923,16.739502 V 0.657471 h -8.35693 z M 143.44922,0.657471 Z m 11.97143,30.351562 v -10.86914 h 1.94825 c 1.86279,0 3.18725,0.418701 3.97338,1.256103 0.80323,0.854492 1.20484,2.272949 1.20484,4.255371 0,1.931153 -0.40161,3.306885 -1.20484,4.127197 -0.80322,0.820313 -2.19604,1.230469 -4.17846,1.230469 z m -8.35693,6.07544 h 9.10034 c 2.46094,0 4.39209,-0.128174 5.79346,-0.384522 1.41846,-0.239258 2.59766,-0.632324 3.5376,-1.179199 1.70898,-0.991211 2.99926,-2.341309 3.87085,-4.050293 0.88867,-1.708984 1.333,-3.717041 1.333,-6.02417 0,-3.811035 -1.11083,-6.673584 -3.33252,-8.587646 -2.22168,-1.914063 -5.5371,-2.871094 -9.94628,-2.871094 h -1.99952 V 0.657471 h -8.35693 z M 179.77881,0.657471 Z m 17.38037,30.915527 c -2.10205,0 -3.72559,-1.102295 -4.87061,-3.306885 -1.12793,-2.20459 -1.69189,-5.332031 -1.69189,-9.382324 0,-4.050293 0.56396,-7.177734 1.69189,-9.382324 1.14502,-2.1875 2.76856,-3.28125 4.87061,-3.28125 2.10205,0 3.71704,1.09375 4.84497,3.28125 1.14502,2.20459 1.71753,5.332031 1.71753,9.382324 0,4.050293 -0.57251,7.177734 -1.71753,9.382324 -1.14502,2.20459 -2.76001,3.306885 -4.84497,3.306885 z m 0,6.152344 c 4.85351,0 8.63892,-1.657715 11.3562,-4.973145 2.71729,-3.315429 4.07593,-7.938232 4.07593,-13.868408 0,-5.947266 -1.35864,-10.570068 -4.07593,-13.868408 -2.71728,-3.29834 -6.50269,-4.94751 -11.3562,-4.94751 -4.8877,0 -8.68164,1.640625 -11.38184,4.921875 -2.70019,3.29834 -4.05029,7.929688 -4.05029,13.894043 0,5.930176 1.35864,10.552979 4.07593,13.868408 2.71728,3.31543 6.50268,4.973145 11.3562,4.973145 z M 222.41455,0.657471 Z m 0.89722,36.427002 h 24.25049 v -6.511231 h -7.92115 V 0.657471 h -8.4082 v 29.915771 h -7.92114 z" /></g><g
               id="g384"
               transform="translate(196,509.34253)"><text
                 id="text382"
                 style="font-variant:normal;font-weight:normal;font-size:52.5px;font-family:Arial;-inkscape-font-specification:Arial;writing-mode:lr-tb;fill:#000000;fill-opacity:1;fill-rule:nonzero;stroke:none"
                 transform="matrix(1,0,0,-1,0.489258,0.657471)"><tspan
                   id="tspan380"
                   y="0"
                   x="0 27.921391 67.686058 104.78468 142.95995 179.28952 221.92525">JACKPOT</tspan></text>
</g></g></g></g></g></g></svg>