<svg width="640" height="600" viewBox="0 0 640 600" fill="none" xmlns="http://www.w3.org/2000/svg">
<g clip-path="url(#clip0_2_6497)">
<path fill-rule="evenodd" clip-rule="evenodd" d="M640 369.616V603H-8V369.616V-11H640V369.616ZM49 140.234V369.616H592V140.234H49Z" fill="#0B1123"/>
<rect x="47" y="396" width="161" height="170" rx="11" fill="#EDEDED" stroke="#B62345" stroke-width="8"/>
<path d="M74.4487 551.25C74.4487 549.001 76.3494 540.579 81.75 534.165L79.2169 531.767C75.1937 534.464 71.1705 531.917 68.3394 531.767C65.5083 531.618 64.5664 532.456 62.8262 533.416V532.217H59.25V540.909H62.8262C62.784 537.718 67.4454 538.961 70.5745 539.261C73.7036 539.56 73.3908 538.964 75.1937 538.212C72.9069 540.586 69.2334 542.857 66.2533 544.656C63.2732 546.454 63.2496 548.525 63.2732 551.25H74.4487Z" fill="url(#paint0_linear_2_6497)"/>
<path d="M101.449 551.25C101.449 549.001 103.349 540.579 108.75 534.165L106.217 531.767C102.194 534.464 98.1705 531.917 95.3394 531.767C92.5083 531.618 91.5664 532.456 89.8262 533.416V532.217H86.25V540.909H89.8262C89.784 537.718 94.4454 538.961 97.5745 539.261C100.704 539.56 100.391 538.964 102.194 538.212C99.9069 540.586 96.2334 542.857 93.2533 544.656C90.2732 546.454 90.2496 548.525 90.2732 551.25H101.449Z" fill="url(#paint1_linear_2_6497)"/>
<path d="M128.449 551.25C128.449 549.001 130.349 540.579 135.75 534.165L133.217 531.767C129.194 534.464 125.171 531.917 122.339 531.767C119.508 531.618 118.566 532.456 116.826 533.416V532.217H113.25V540.909H116.826C116.784 537.718 121.445 538.961 124.575 539.261C127.704 539.56 127.391 538.964 129.194 538.212C126.907 540.586 123.233 542.857 120.253 544.656C117.273 546.454 117.25 548.525 117.273 551.25H128.449Z" fill="url(#paint2_linear_2_6497)"/>
<path d="M155.934 546.637H160.914V549H152.594V546.5C154.391 544.755 155.676 543.32 156.451 542.193C157.226 541.061 157.613 540.071 157.613 539.225C157.613 538.658 157.444 538.209 157.105 537.877C156.767 537.545 156.311 537.379 155.738 537.379C155.328 537.379 154.892 537.46 154.43 537.623C153.967 537.779 153.495 538.01 153.014 538.316L152.799 535.719C153.333 535.458 153.906 535.257 154.518 535.113C155.13 534.97 155.735 534.898 156.334 534.898C157.656 534.898 158.707 535.243 159.488 535.934C160.27 536.624 160.66 537.558 160.66 538.736C160.66 539.843 160.276 541.041 159.508 542.33C158.74 543.613 157.548 545.048 155.934 546.637ZM168.854 535.123H176.314V537.379H171.539V540.035C171.708 540.009 171.881 539.99 172.057 539.977C172.239 539.964 172.431 539.957 172.633 539.957C173.967 539.957 175.022 540.357 175.797 541.158C176.572 541.952 176.959 543.027 176.959 544.381C176.959 545.826 176.487 546.995 175.543 547.887C174.605 548.779 173.368 549.225 171.832 549.225C171.279 549.225 170.729 549.176 170.182 549.078C169.641 548.987 169.114 548.847 168.6 548.658L168.736 546.158C169.114 546.367 169.527 546.526 169.977 546.637C170.432 546.747 170.904 546.803 171.393 546.803C172.161 546.803 172.76 546.604 173.189 546.207C173.619 545.81 173.834 545.26 173.834 544.557C173.834 543.756 173.6 543.144 173.131 542.721C172.669 542.291 171.998 542.076 171.119 542.076C170.774 542.076 170.413 542.109 170.035 542.174C169.664 542.239 169.27 542.333 168.854 542.457V535.123ZM183.248 537.223C182.708 537.223 182.317 537.597 182.076 538.346C181.842 539.088 181.725 540.325 181.725 542.057C181.725 543.788 181.842 545.025 182.076 545.768C182.317 546.51 182.708 546.881 183.248 546.881C183.782 546.881 184.166 546.507 184.4 545.758C184.641 545.003 184.762 543.769 184.762 542.057C184.762 540.344 184.641 539.111 184.4 538.355C184.166 537.6 183.782 537.223 183.248 537.223ZM183.229 534.879C184.693 534.879 185.82 535.497 186.607 536.734C187.395 537.965 187.789 539.739 187.789 542.057C187.789 544.361 187.392 546.132 186.598 547.369C185.81 548.606 184.687 549.225 183.229 549.225C181.751 549.225 180.624 548.613 179.85 547.389C179.075 546.158 178.688 544.381 178.688 542.057C178.688 539.719 179.075 537.939 179.85 536.715C180.624 535.491 181.751 534.879 183.229 534.879ZM193.756 537.223C193.215 537.223 192.825 537.597 192.584 538.346C192.35 539.088 192.232 540.325 192.232 542.057C192.232 543.788 192.35 545.025 192.584 545.768C192.825 546.51 193.215 546.881 193.756 546.881C194.29 546.881 194.674 546.507 194.908 545.758C195.149 545.003 195.27 543.769 195.27 542.057C195.27 540.344 195.149 539.111 194.908 538.355C194.674 537.6 194.29 537.223 193.756 537.223ZM193.736 534.879C195.201 534.879 196.327 535.497 197.115 536.734C197.903 537.965 198.297 539.739 198.297 542.057C198.297 544.361 197.9 546.132 197.105 547.369C196.318 548.606 195.195 549.225 193.736 549.225C192.258 549.225 191.132 548.613 190.357 547.389C189.583 546.158 189.195 544.381 189.195 542.057C189.195 539.719 189.583 537.939 190.357 536.715C191.132 535.491 192.258 534.879 193.736 534.879Z" fill="#343A4E"/>
<path d="M108.75 512.5C108.75 518.713 103.713 523.75 97.5 523.75C91.2868 523.75 86.25 518.713 86.25 512.5C86.25 506.287 91.2868 501.25 97.5 501.25C103.713 501.25 108.75 506.287 108.75 512.5Z" fill="url(#paint3_linear_2_6497)"/>
<path d="M96 504V521" stroke="#EDEDED" stroke-linecap="round"/>
<path d="M99.5 504V521" stroke="#EDEDED" stroke-linecap="round"/>
<line x1="102.268" y1="508.5" x2="95.4997" y2="508.5" stroke="#EDEDED" stroke-linecap="round"/>
<line x1="99.8574" y1="512.5" x2="95.5003" y2="512.5" stroke="#EDEDED" stroke-linecap="round"/>
<line x1="99.75" y1="517.5" x2="93.5" y2="517.5" stroke="#EDEDED" stroke-linecap="round"/>
<path d="M97.5 510.5C97.5 511.605 96.6046 512.5 95.5 512.5C94.3954 512.5 93.5 511.605 93.5 510.5C93.5 509.395 94.3954 508.5 95.5 508.5C96.6046 508.5 97.5 509.395 97.5 510.5Z" stroke="#EDEDED" stroke-linejoin="round"/>
<path d="M102.5 515C102.5 516.381 101.381 517.5 100 517.5C98.6193 517.5 97.5 516.381 97.5 515C97.5 513.619 98.6193 512.5 100 512.5C101.381 512.5 102.5 513.619 102.5 515Z" stroke="#EDEDED" stroke-linejoin="round"/>
<rect x="96.5" y="513" width="2.5" height="4" fill="#F2B114"/>
<rect x="96.5" y="509" width="2.5" height="3" fill="#F2B214"/>
<path fill-rule="evenodd" clip-rule="evenodd" d="M116.96 516.331C115.187 516.331 113.75 517.768 113.75 519.54C113.75 521.313 115.187 522.75 116.96 522.75H132.283C134.055 522.75 135.492 521.313 135.492 519.54C135.492 517.768 134.055 516.331 132.283 516.331H116.96ZM123.476 521.083V521.508H121.619V521.083H122.305C122.69 520.492 123.074 519.908 123.459 519.331C123.849 518.75 124.237 518.164 124.622 517.573C125.006 518.164 125.391 518.75 125.776 519.331C126.166 519.908 126.554 520.492 126.938 521.083H127.624V521.508H125.767V521.083H126.236C126.119 520.904 126.002 520.726 125.885 520.551C125.824 520.456 125.763 520.361 125.702 520.265H123.539L123.35 520.551L122.999 521.083H123.476ZM124.53 518.74C124.535 518.729 124.544 518.711 124.555 518.686C124.571 518.661 124.591 518.62 124.613 518.562L124.697 518.74L125.257 519.594H123.986C124.064 519.469 124.148 519.331 124.237 519.18C124.332 519.026 124.429 518.879 124.53 518.74ZM130.82 521.508V521.064H129.607V519.754H130.054H130.277C130.334 519.75 130.412 519.748 130.511 519.748L132.076 521.508H133.629V521.064H132.629L131.437 519.715C131.948 519.655 132.334 519.531 132.597 519.344C132.866 519.156 133.001 518.922 133.001 518.641C133.001 518.45 132.916 518.287 132.746 518.152C132.576 518.017 132.363 517.907 132.107 517.821C131.852 517.734 131.575 517.673 131.278 517.635C130.987 517.594 130.721 517.573 130.48 517.573H128.245V518.017H128.724V521.064H128.245V521.508H130.82ZM129.607 518.017H130.543C130.763 518.017 130.969 518.034 131.16 518.068C131.359 518.102 131.529 518.147 131.671 518.203C131.806 518.263 131.912 518.33 131.99 518.405C132.076 518.48 132.118 518.559 132.118 518.641C132.118 518.712 132.093 518.787 132.044 518.866C131.994 518.945 131.909 519.016 131.788 519.08C131.668 519.143 131.504 519.198 131.299 519.243C131.1 519.284 130.845 519.304 130.533 519.304H129.607V518.017ZM119.295 521.446C119.007 521.487 118.712 521.508 118.41 521.508H115.82V521.064H116.294V518.017H115.82V517.573H118.221C118.565 517.573 118.877 517.592 119.158 517.629C119.446 517.667 119.691 517.725 119.895 517.804C120.092 517.882 120.246 517.985 120.358 518.113C120.471 518.236 120.527 518.384 120.527 518.557C120.527 518.789 120.421 518.993 120.211 519.169C120.007 519.346 119.695 519.465 119.274 519.529C119.47 519.552 119.66 519.589 119.842 519.642C120.032 519.694 120.197 519.761 120.337 519.844C120.471 519.926 120.579 520.022 120.664 520.131C120.748 520.239 120.79 520.361 120.79 520.496C120.79 520.665 120.723 520.813 120.59 520.94C120.457 521.064 120.281 521.167 120.064 521.249C119.839 521.335 119.583 521.401 119.295 521.446ZM118.189 519.748H117.168V521.064H118.337C118.554 521.064 118.758 521.05 118.947 521.024C119.137 520.998 119.305 520.957 119.453 520.901C119.593 520.848 119.706 520.783 119.79 520.704C119.874 520.625 119.916 520.531 119.916 520.423C119.916 520.307 119.867 520.206 119.769 520.119C119.67 520.033 119.544 519.962 119.39 519.906C119.228 519.853 119.042 519.814 118.832 519.788C118.621 519.761 118.407 519.748 118.189 519.748ZM118.284 518.017H117.168V519.304H118.305C118.719 519.304 119.046 519.243 119.284 519.119C119.53 518.995 119.653 518.832 119.653 518.63C119.653 518.514 119.614 518.416 119.537 518.338C119.467 518.255 119.365 518.19 119.232 518.141C119.112 518.1 118.972 518.07 118.811 518.051C118.649 518.029 118.474 518.017 118.284 518.017Z" fill="url(#paint4_linear_2_6497)"/>
<path fill-rule="evenodd" clip-rule="evenodd" d="M116.96 509.291C115.187 509.291 113.75 510.728 113.75 512.5C113.75 514.273 115.187 515.71 116.96 515.71H132.283C134.055 515.71 135.492 514.273 135.492 512.5C135.492 510.728 134.055 509.291 132.283 509.291H116.96ZM123.476 514.042V514.467H121.619V514.042H122.305C122.69 513.451 123.074 512.867 123.459 512.29C123.849 511.71 124.237 511.124 124.622 510.533C125.006 511.124 125.391 511.71 125.776 512.29C126.166 512.867 126.554 513.451 126.938 514.042H127.624V514.467H125.767V514.042H126.236C126.119 513.863 126.002 513.686 125.885 513.51C125.824 513.416 125.763 513.32 125.702 513.225H123.539L123.35 513.51L122.999 514.042H123.476ZM124.53 511.699C124.535 511.688 124.544 511.67 124.555 511.645C124.571 511.62 124.591 511.579 124.613 511.522L124.697 511.699L125.257 512.554H123.986C124.064 512.428 124.148 512.29 124.237 512.14C124.332 511.986 124.429 511.839 124.53 511.699ZM130.82 514.467V514.023H129.607V512.713H130.054H130.277C130.334 512.71 130.412 512.708 130.511 512.708L132.076 514.467H133.629V514.023H132.629L131.437 512.674C131.948 512.614 132.334 512.491 132.597 512.303C132.866 512.116 133.001 511.882 133.001 511.601C133.001 511.41 132.916 511.247 132.746 511.112C132.576 510.977 132.363 510.866 132.107 510.78C131.852 510.694 131.575 510.632 131.278 510.595C130.987 510.553 130.721 510.533 130.48 510.533H128.245V510.977H128.724V514.023H128.245V514.467H130.82ZM129.607 510.977H130.543C130.763 510.977 130.969 510.994 131.16 511.027C131.359 511.061 131.529 511.106 131.671 511.162C131.806 511.222 131.912 511.29 131.99 511.365C132.076 511.439 132.118 511.518 132.118 511.601C132.118 511.672 132.093 511.747 132.044 511.825C131.994 511.904 131.909 511.975 131.788 512.039C131.668 512.103 131.504 512.157 131.299 512.202C131.1 512.243 130.845 512.264 130.533 512.264H129.607V510.977ZM119.295 514.405C119.007 514.446 118.712 514.467 118.41 514.467H115.82V514.023H116.294V510.977H115.82V510.533H118.221C118.565 510.533 118.877 510.551 119.158 510.589C119.446 510.626 119.691 510.684 119.895 510.763C120.092 510.842 120.246 510.945 120.358 511.072C120.471 511.196 120.527 511.344 120.527 511.516C120.527 511.749 120.421 511.953 120.211 512.129C120.007 512.305 119.695 512.425 119.274 512.489C119.47 512.511 119.66 512.549 119.842 512.601C120.032 512.654 120.197 512.721 120.337 512.803C120.471 512.886 120.579 512.981 120.664 513.09C120.748 513.199 120.79 513.32 120.79 513.455C120.79 513.624 120.723 513.772 120.59 513.899C120.457 514.023 120.281 514.126 120.064 514.209C119.839 514.295 119.583 514.36 119.295 514.405ZM118.189 512.708H117.168V514.023H118.337C118.554 514.023 118.758 514.01 118.947 513.984C119.137 513.957 119.305 513.916 119.453 513.86C119.593 513.808 119.706 513.742 119.79 513.663C119.874 513.585 119.916 513.491 119.916 513.382C119.916 513.266 119.867 513.165 119.769 513.079C119.67 512.993 119.544 512.921 119.39 512.865C119.228 512.813 119.042 512.773 118.832 512.747C118.621 512.721 118.407 512.708 118.189 512.708ZM118.284 510.977H117.168V512.264H118.305C118.719 512.264 119.046 512.202 119.284 512.078C119.53 511.955 119.653 511.792 119.653 511.589C119.653 511.473 119.614 511.376 119.537 511.297C119.467 511.215 119.365 511.149 119.232 511.1C119.112 511.059 118.972 511.029 118.811 511.01C118.649 510.988 118.474 510.977 118.284 510.977Z" fill="url(#paint5_linear_2_6497)"/>
<path fill-rule="evenodd" clip-rule="evenodd" d="M116.96 502.25C115.187 502.25 113.75 503.687 113.75 505.46C113.75 507.232 115.187 508.669 116.96 508.669H132.283C134.055 508.669 135.492 507.232 135.492 505.46C135.492 503.687 134.055 502.25 132.283 502.25H116.96ZM123.476 507.002V507.427H121.619V507.002H122.305C122.69 506.411 123.074 505.827 123.459 505.25C123.849 504.669 124.237 504.083 124.622 503.492C125.006 504.083 125.391 504.669 125.776 505.25C126.166 505.827 126.554 506.411 126.938 507.002H127.624V507.427H125.767V507.002H126.236C126.119 506.823 126.002 506.645 125.885 506.47C125.824 506.375 125.763 506.28 125.702 506.184H123.539L123.35 506.47L122.999 507.002H123.476ZM124.53 504.659C124.535 504.648 124.544 504.63 124.555 504.605C124.571 504.58 124.591 504.538 124.613 504.481L124.697 504.659L125.257 505.513H123.986C124.064 505.388 124.148 505.25 124.237 505.099C124.332 504.945 124.429 504.798 124.53 504.659ZM130.82 507.427V506.983H129.607V505.673H130.054H130.277C130.334 505.669 130.412 505.667 130.511 505.667L132.076 507.427H133.629V506.983H132.629L131.437 505.634C131.948 505.574 132.334 505.45 132.597 505.263C132.866 505.075 133.001 504.841 133.001 504.56C133.001 504.369 132.916 504.206 132.746 504.071C132.576 503.936 132.363 503.826 132.107 503.739C131.852 503.653 131.575 503.591 131.278 503.554C130.987 503.513 130.721 503.492 130.48 503.492H128.245V503.936H128.724V506.983H128.245V507.427H130.82ZM129.607 503.936H130.543C130.763 503.936 130.969 503.953 131.16 503.987C131.359 504.021 131.529 504.065 131.671 504.122C131.806 504.182 131.912 504.249 131.99 504.324C132.076 504.399 132.118 504.478 132.118 504.56C132.118 504.631 132.093 504.706 132.044 504.785C131.994 504.864 131.909 504.935 131.788 504.998C131.668 505.062 131.504 505.117 131.299 505.161C131.1 505.203 130.845 505.223 130.533 505.223H129.607V503.936ZM119.295 507.365C119.007 507.406 118.712 507.427 118.41 507.427H115.82V506.983H116.294V503.936H115.82V503.492H118.221C118.565 503.492 118.877 503.511 119.158 503.548C119.446 503.586 119.691 503.644 119.895 503.723C120.092 503.801 120.246 503.904 120.358 504.032C120.471 504.155 120.527 504.303 120.527 504.476C120.527 504.708 120.421 504.912 120.211 505.088C120.007 505.265 119.695 505.384 119.274 505.448C119.47 505.471 119.66 505.508 119.842 505.561C120.032 505.613 120.197 505.68 120.337 505.763C120.471 505.845 120.579 505.941 120.664 506.05C120.748 506.158 120.79 506.28 120.79 506.415C120.79 506.583 120.723 506.731 120.59 506.859C120.457 506.983 120.281 507.086 120.064 507.168C119.839 507.254 119.583 507.32 119.295 507.365ZM118.189 505.667H117.168V506.983H118.337C118.554 506.983 118.758 506.969 118.947 506.943C119.137 506.917 119.305 506.876 119.453 506.82C119.593 506.767 119.706 506.701 119.79 506.623C119.874 506.544 119.916 506.45 119.916 506.342C119.916 506.226 119.867 506.124 119.769 506.038C119.67 505.952 119.544 505.881 119.39 505.825C119.228 505.772 119.042 505.733 118.832 505.707C118.621 505.68 118.407 505.667 118.189 505.667ZM118.284 503.936H117.168V505.223H118.305C118.719 505.223 119.046 505.161 119.284 505.038C119.53 504.914 119.653 504.751 119.653 504.549C119.653 504.433 119.614 504.335 119.537 504.257C119.467 504.174 119.365 504.109 119.232 504.06C119.112 504.019 118.972 503.989 118.811 503.97C118.649 503.947 118.474 503.936 118.284 503.936Z" fill="url(#paint6_linear_2_6497)"/>
<path d="M74.4487 522.25C74.4487 520.001 76.3494 511.579 81.75 505.165L79.2169 502.767C75.1937 505.464 71.1705 502.917 68.3394 502.767C65.5083 502.618 64.5664 503.456 62.8262 504.416V503.217H59.25V511.909H62.8262C62.784 508.718 67.4454 509.961 70.5745 510.261C73.7036 510.56 73.3908 509.964 75.1937 509.212C72.9069 511.586 69.2334 513.857 66.2533 515.656C63.2732 517.454 63.2496 519.525 63.2732 522.25H74.4487Z" fill="url(#paint7_linear_2_6497)"/>
<path d="M156.578 506.123H158.834V520H155.973V509.678L154.195 511.416L152.779 509.258L156.578 506.123ZM172.74 508.223C172.2 508.223 171.809 508.597 171.568 509.346C171.334 510.088 171.217 511.325 171.217 513.057C171.217 514.788 171.334 516.025 171.568 516.768C171.809 517.51 172.2 517.881 172.74 517.881C173.274 517.881 173.658 517.507 173.893 516.758C174.133 516.003 174.254 514.769 174.254 513.057C174.254 511.344 174.133 510.111 173.893 509.355C173.658 508.6 173.274 508.223 172.74 508.223ZM172.721 505.879C174.186 505.879 175.312 506.497 176.1 507.734C176.887 508.965 177.281 510.739 177.281 513.057C177.281 515.361 176.884 517.132 176.09 518.369C175.302 519.606 174.179 520.225 172.721 520.225C171.243 520.225 170.117 519.613 169.342 518.389C168.567 517.158 168.18 515.381 168.18 513.057C168.18 510.719 168.567 508.939 169.342 507.715C170.117 506.491 171.243 505.879 172.721 505.879ZM183.248 508.223C182.708 508.223 182.317 508.597 182.076 509.346C181.842 510.088 181.725 511.325 181.725 513.057C181.725 514.788 181.842 516.025 182.076 516.768C182.317 517.51 182.708 517.881 183.248 517.881C183.782 517.881 184.166 517.507 184.4 516.758C184.641 516.003 184.762 514.769 184.762 513.057C184.762 511.344 184.641 510.111 184.4 509.355C184.166 508.6 183.782 508.223 183.248 508.223ZM183.229 505.879C184.693 505.879 185.82 506.497 186.607 507.734C187.395 508.965 187.789 510.739 187.789 513.057C187.789 515.361 187.392 517.132 186.598 518.369C185.81 519.606 184.687 520.225 183.229 520.225C181.751 520.225 180.624 519.613 179.85 518.389C179.075 517.158 178.688 515.381 178.688 513.057C178.688 510.719 179.075 508.939 179.85 507.715C180.624 506.491 181.751 505.879 183.229 505.879ZM193.756 508.223C193.215 508.223 192.825 508.597 192.584 509.346C192.35 510.088 192.232 511.325 192.232 513.057C192.232 514.788 192.35 516.025 192.584 516.768C192.825 517.51 193.215 517.881 193.756 517.881C194.29 517.881 194.674 517.507 194.908 516.758C195.149 516.003 195.27 514.769 195.27 513.057C195.27 511.344 195.149 510.111 194.908 509.355C194.674 508.6 194.29 508.223 193.756 508.223ZM193.736 505.879C195.201 505.879 196.327 506.497 197.115 507.734C197.903 508.965 198.297 510.739 198.297 513.057C198.297 515.361 197.9 517.132 197.105 518.369C196.318 519.606 195.195 520.225 193.736 520.225C192.258 520.225 191.132 519.613 190.357 518.389C189.583 517.158 189.195 515.381 189.195 513.057C189.195 510.719 189.583 508.939 190.357 507.715C191.132 506.491 192.258 505.879 193.736 505.879Z" fill="#343A4E"/>
<path d="M72.3434 494.5C71.5622 494.5 70.8245 494.326 70.1726 494.018C69.5208 494.326 68.7831 494.5 68.0019 494.5C66.0057 494.5 64.6096 493.356 63.5711 491.754C61.3797 488.373 61.3599 485.345 61.6036 482.713C61.8473 480.081 63.7522 478.25 66.4024 478.25C68.0714 478.25 69.5415 479.043 70.4012 480.245C70.869 479.591 71.5176 479.058 72.2806 478.708C72.9198 478.415 73.6392 478.25 74.3999 478.25C77.0501 478.25 79.0585 480.252 79.1985 482.713C79.4263 486.718 78.9395 489.174 76.9128 491.754C75.3133 493.789 74.3396 494.5 72.3434 494.5Z" fill="url(#paint8_linear_2_6497)"/>
<path d="M66.1631 473.184C66.4435 477.243 67.851 478.804 69.6527 477.313C71.3851 475.468 69.8792 473.779 66.1631 473.184Z" fill="#41BC7D"/>
<path d="M73.1029 472.5C74.621 472.503 75.285 472.663 75.2486 473.982C73.2131 475.202 71.9726 476.936 71.081 479H69.5C70.1644 476.531 71.2709 474.47 73.1029 472.5Z" fill="#41BC7D"/>
<circle cx="118.25" cy="487" r="5" fill="url(#paint9_linear_2_6497)"/>
<ellipse cx="130.375" cy="487" rx="5.125" ry="5" fill="url(#paint10_linear_2_6497)"/>
<path d="M125.149 475.356C124.629 475.236 124.328 475.194 123.712 475.356C123.333 478.086 123.002 479.62 121.5 482.385C122.075 482.704 122.353 482.891 122.716 483.25C123.514 481.812 123.825 480.992 124.154 479.574C124.154 479.574 124.356 479.506 124.486 479.574C125.028 481.083 125.344 481.924 126.255 483.25C126.587 482.816 126.806 482.604 127.25 482.277C125.664 479.696 125.221 478.174 125.149 475.356Z" fill="#41BC7D"/>
<path d="M118.458 479.298C122.29 478.736 123.669 477.287 122.122 475.685C120.245 474.175 118.752 475.728 118.458 479.298Z" fill="#41BC7D"/>
<path d="M108.25 478.5C108.25 484.575 103.381 489.5 97.375 489.5C91.3689 489.5 86.5 484.575 86.5 478.5H108.25Z" fill="#41BC7D"/>
<path d="M107 478.5C107 483.747 102.691 488 97.375 488C92.0593 488 87.75 483.747 87.75 478.5H107Z" fill="url(#paint11_linear_2_6497)"/>
<path d="M97.2637 482.5C96.5706 483.612 96.6431 484.285 97.3947 484.236C98.1951 484.082 98.121 483.357 97.2637 482.5Z" fill="#09120D"/>
<path d="M100.9 481.336C101.189 482.614 101.713 483.042 102.214 482.479C102.675 481.807 102.112 481.343 100.9 481.336Z" fill="#09120D"/>
<path d="M93.7012 481.3C92.4461 481.676 92.0558 482.229 92.6523 482.689C93.355 483.102 93.7784 482.509 93.7012 481.3Z" fill="#09120D"/>
<path d="M168.854 477.123H176.314V479.379H171.539V482.035C171.708 482.009 171.881 481.99 172.057 481.977C172.239 481.964 172.431 481.957 172.633 481.957C173.967 481.957 175.022 482.357 175.797 483.158C176.572 483.952 176.959 485.027 176.959 486.381C176.959 487.826 176.487 488.995 175.543 489.887C174.605 490.779 173.368 491.225 171.832 491.225C171.279 491.225 170.729 491.176 170.182 491.078C169.641 490.987 169.114 490.847 168.6 490.658L168.736 488.158C169.114 488.367 169.527 488.526 169.977 488.637C170.432 488.747 170.904 488.803 171.393 488.803C172.161 488.803 172.76 488.604 173.189 488.207C173.619 487.81 173.834 487.26 173.834 486.557C173.834 485.756 173.6 485.144 173.131 484.721C172.669 484.291 171.998 484.076 171.119 484.076C170.774 484.076 170.413 484.109 170.035 484.174C169.664 484.239 169.27 484.333 168.854 484.457V477.123ZM183.248 479.223C182.708 479.223 182.317 479.597 182.076 480.346C181.842 481.088 181.725 482.325 181.725 484.057C181.725 485.788 181.842 487.025 182.076 487.768C182.317 488.51 182.708 488.881 183.248 488.881C183.782 488.881 184.166 488.507 184.4 487.758C184.641 487.003 184.762 485.769 184.762 484.057C184.762 482.344 184.641 481.111 184.4 480.355C184.166 479.6 183.782 479.223 183.248 479.223ZM183.229 476.879C184.693 476.879 185.82 477.497 186.607 478.734C187.395 479.965 187.789 481.739 187.789 484.057C187.789 486.361 187.392 488.132 186.598 489.369C185.81 490.606 184.687 491.225 183.229 491.225C181.751 491.225 180.624 490.613 179.85 489.389C179.075 488.158 178.688 486.381 178.688 484.057C178.688 481.719 179.075 479.939 179.85 478.715C180.624 477.491 181.751 476.879 183.229 476.879ZM193.756 479.223C193.215 479.223 192.825 479.597 192.584 480.346C192.35 481.088 192.232 482.325 192.232 484.057C192.232 485.788 192.35 487.025 192.584 487.768C192.825 488.51 193.215 488.881 193.756 488.881C194.29 488.881 194.674 488.507 194.908 487.758C195.149 487.003 195.27 485.769 195.27 484.057C195.27 482.344 195.149 481.111 194.908 480.355C194.674 479.6 194.29 479.223 193.756 479.223ZM193.736 476.879C195.201 476.879 196.327 477.497 197.115 478.734C197.903 479.965 198.297 481.739 198.297 484.057C198.297 486.361 197.9 488.132 197.105 489.369C196.318 490.606 195.195 491.225 193.736 491.225C192.258 491.225 191.132 490.613 190.357 489.389C189.583 488.158 189.195 486.381 189.195 484.057C189.195 481.719 189.583 479.939 190.357 478.715C191.132 477.491 192.258 476.879 193.736 476.879Z" fill="#343A4E"/>
<circle cx="96.75" cy="456.75" r="8.75" fill="url(#paint12_linear_2_6497)"/>
<path d="M96.8824 443.5C96.6906 444.733 96.7218 445.587 96.8824 447.23C100.033 447.668 101.347 448.224 102.918 449.75C103.044 448.84 103.01 448.432 102.918 447.734C101.092 446.175 98.9773 444.916 96.8824 443.5Z" fill="#41BC7D"/>
<path d="M70.25 465.5C75.3586 465.5 79.5 461.471 79.5 456.5C79.5 455.045 79.5 454.291 80.0385 453.316C80.1013 453.202 80.1716 453.086 80.25 452.964C80.4098 452.638 80.5 452.268 80.5 451.875C80.5 450.563 79.5 449.5 78.25 449.5L78.2221 449.5C76.7509 449.508 76.0362 449.302 74.8894 448.712C74.7439 448.637 74.5914 448.556 74.4295 448.469C73.1742 447.849 71.754 447.5 70.25 447.5C65.1414 447.5 61 451.529 61 456.5C61 458.031 61.222 458.675 60.6201 459.819C60.5833 459.89 60.5433 459.962 60.5 460.036C60.3402 460.362 60.25 460.732 60.25 461.125C60.25 462.437 61.2574 463.5 62.5 463.5C63.75 463.5 64.125 463.375 64.875 463.825C66.3899 464.88 68.2455 465.5 70.25 465.5Z" fill="url(#paint13_linear_2_6497)"/>
<path d="M70.875 443.5L71.2498 446.75C71.2498 446.75 74.3359 446.85 76.9999 448.875C78.4998 448.966 78.5001 449.007 79.625 448.875C79.7418 447.992 78.9395 446.267 76.875 445.625C74.8613 445.103 70.875 443.5 70.875 443.5Z" fill="#41BC7D"/>
<path d="M114.703 450.513C120.569 453.174 123.734 453.19 129.025 449L130.118 449.649C127.088 454.201 124.952 456.159 117.764 455.053L117.108 455.702C114.898 455.025 114.359 453.761 113.5 451.378L114.703 450.513Z" fill="url(#paint14_linear_2_6497)"/>
<path d="M117.983 455.918C124.951 456.567 127.279 454.863 130.884 449.649H131.868C130.496 455.096 129.517 457.988 122.465 459.053L121.7 460.242C118.831 459.429 118.209 458.521 116.889 456.999L117.983 455.918Z" fill="url(#paint15_linear_2_6497)"/>
<path d="M134.273 449.216C138.318 458.08 131.868 464.782 122.137 461.323L122.465 459.918C129.665 458.018 131.384 455.418 132.742 449.649L134.273 449.216Z" fill="url(#paint16_linear_2_6497)"/>
<path d="M133.321 446.75L133.75 448.572C131.778 449.148 130.794 449.138 129.25 448.572L130 446.75H133.321Z" fill="#41BC7D"/>
<path d="M172.359 448.123H174.615V462H171.754V451.678L169.977 453.416L168.561 451.258L172.359 448.123ZM183.248 450.223C182.708 450.223 182.317 450.597 182.076 451.346C181.842 452.088 181.725 453.325 181.725 455.057C181.725 456.788 181.842 458.025 182.076 458.768C182.317 459.51 182.708 459.881 183.248 459.881C183.782 459.881 184.166 459.507 184.4 458.758C184.641 458.003 184.762 456.769 184.762 455.057C184.762 453.344 184.641 452.111 184.4 451.355C184.166 450.6 183.782 450.223 183.248 450.223ZM183.229 447.879C184.693 447.879 185.82 448.497 186.607 449.734C187.395 450.965 187.789 452.739 187.789 455.057C187.789 457.361 187.392 459.132 186.598 460.369C185.81 461.606 184.687 462.225 183.229 462.225C181.751 462.225 180.624 461.613 179.85 460.389C179.075 459.158 178.688 457.381 178.688 455.057C178.688 452.719 179.075 450.939 179.85 449.715C180.624 448.491 181.751 447.879 183.229 447.879ZM193.756 450.223C193.215 450.223 192.825 450.597 192.584 451.346C192.35 452.088 192.232 453.325 192.232 455.057C192.232 456.788 192.35 458.025 192.584 458.768C192.825 459.51 193.215 459.881 193.756 459.881C194.29 459.881 194.674 459.507 194.908 458.758C195.149 458.003 195.27 456.769 195.27 455.057C195.27 453.344 195.149 452.111 194.908 451.355C194.674 450.6 194.29 450.223 193.756 450.223ZM193.736 447.879C195.201 447.879 196.327 448.497 197.115 449.734C197.903 450.965 198.297 452.739 198.297 455.057C198.297 457.361 197.9 459.132 197.105 460.369C196.318 461.606 195.195 462.225 193.736 462.225C192.258 462.225 191.132 461.613 190.357 460.389C189.583 459.158 189.195 457.381 189.195 455.057C189.195 452.719 189.583 450.939 190.357 449.715C191.132 448.491 192.258 447.879 193.736 447.879Z" fill="#343A4E"/>
<path d="M88.3613 418.123H95.8223V420.379H91.0469V423.035C91.2161 423.009 91.3887 422.99 91.5645 422.977C91.7467 422.964 91.9388 422.957 92.1406 422.957C93.4753 422.957 94.5299 423.357 95.3047 424.158C96.0794 424.952 96.4668 426.027 96.4668 427.381C96.4668 428.826 95.9948 429.995 95.0508 430.887C94.1133 431.779 92.8763 432.225 91.3398 432.225C90.7865 432.225 90.2363 432.176 89.6895 432.078C89.1491 431.987 88.6217 431.847 88.1074 431.658L88.2441 429.158C88.6217 429.367 89.0352 429.526 89.4844 429.637C89.9401 429.747 90.4121 429.803 90.9004 429.803C91.6686 429.803 92.2676 429.604 92.6973 429.207C93.127 428.81 93.3418 428.26 93.3418 427.557C93.3418 426.756 93.1074 426.144 92.6387 425.721C92.1764 425.291 91.5059 425.076 90.627 425.076C90.2819 425.076 89.9206 425.109 89.543 425.174C89.1719 425.239 88.778 425.333 88.3613 425.457V418.123ZM102.756 420.223C102.215 420.223 101.825 420.597 101.584 421.346C101.35 422.088 101.232 423.325 101.232 425.057C101.232 426.788 101.35 428.025 101.584 428.768C101.825 429.51 102.215 429.881 102.756 429.881C103.29 429.881 103.674 429.507 103.908 428.758C104.149 428.003 104.27 426.769 104.27 425.057C104.27 423.344 104.149 422.111 103.908 421.355C103.674 420.6 103.29 420.223 102.756 420.223ZM102.736 417.879C104.201 417.879 105.327 418.497 106.115 419.734C106.903 420.965 107.297 422.739 107.297 425.057C107.297 427.361 106.9 429.132 106.105 430.369C105.318 431.606 104.195 432.225 102.736 432.225C101.258 432.225 100.132 431.613 99.3574 430.389C98.5827 429.158 98.1953 427.381 98.1953 425.057C98.1953 422.719 98.5827 420.939 99.3574 419.715C100.132 418.491 101.258 417.879 102.736 417.879Z" fill="#343A4E"/>
<path d="M150.211 418.123H152.467V432H149.605V421.678L147.828 423.416L146.412 421.258L150.211 418.123ZM169.811 418.338L169.625 420.838C169.137 420.623 168.661 420.46 168.199 420.35C167.737 420.239 167.307 420.184 166.91 420.184C166.298 420.184 165.823 420.307 165.484 420.555C165.152 420.802 164.986 421.15 164.986 421.6C164.986 422.016 165.126 422.368 165.406 422.654C165.686 422.941 166.259 423.289 167.125 423.699C168.57 424.396 169.505 425.034 169.928 425.613C170.357 426.193 170.572 426.954 170.572 427.898C170.572 429.233 170.133 430.288 169.254 431.062C168.375 431.837 167.174 432.225 165.65 432.225C165.123 432.225 164.57 432.173 163.99 432.068C163.411 431.971 162.783 431.821 162.105 431.619L162.35 429.119C162.936 429.406 163.489 429.617 164.01 429.754C164.531 429.891 165.032 429.959 165.514 429.959C166.145 429.959 166.637 429.816 166.988 429.529C167.346 429.236 167.525 428.833 167.525 428.318C167.525 427.596 166.786 426.86 165.309 426.111C165.126 426.02 164.99 425.952 164.898 425.906C163.727 425.314 162.945 424.741 162.555 424.188C162.164 423.634 161.969 422.924 161.969 422.059C161.969 420.757 162.395 419.734 163.248 418.992C164.107 418.25 165.296 417.879 166.812 417.879C167.275 417.879 167.753 417.918 168.248 417.996C168.743 418.068 169.264 418.182 169.811 418.338ZM175.543 430.584V436.355H172.506V424.324C172.506 424.227 172.49 423.771 172.457 422.957C172.438 422.423 172.421 421.984 172.408 421.639H175.338C175.357 421.808 175.374 422.01 175.387 422.244C175.4 422.479 175.413 422.811 175.426 423.24C175.758 422.622 176.152 422.166 176.607 421.873C177.07 421.574 177.61 421.424 178.229 421.424C179.394 421.424 180.289 421.886 180.914 422.811C181.546 423.735 181.861 425.073 181.861 426.824C181.861 428.589 181.549 429.93 180.924 430.848C180.305 431.766 179.394 432.225 178.189 432.225C177.604 432.225 177.102 432.094 176.686 431.834C176.269 431.574 175.888 431.157 175.543 430.584ZM175.543 427.264C175.543 428.104 175.68 428.755 175.953 429.217C176.227 429.673 176.611 429.9 177.105 429.9C177.613 429.9 178.001 429.64 178.268 429.119C178.535 428.598 178.668 427.833 178.668 426.824C178.668 425.796 178.535 425.018 178.268 424.49C178.007 423.963 177.62 423.699 177.105 423.699C176.611 423.699 176.227 423.93 175.953 424.393C175.68 424.848 175.543 425.496 175.543 426.336V427.264ZM183.795 421.639H186.812V432H183.795V421.639ZM183.795 417.176H186.812V419.881H183.795V417.176ZM197.887 424.92V432H194.84V425.604C194.84 425.037 194.745 424.624 194.557 424.363C194.374 424.096 194.085 423.963 193.688 423.963C193.238 423.963 192.893 424.145 192.652 424.51C192.418 424.874 192.301 425.405 192.301 426.102V432H189.264V423.885C189.264 423.286 189.254 422.83 189.234 422.518C189.221 422.205 189.199 421.912 189.166 421.639H191.939C191.979 421.951 192.005 422.238 192.018 422.498C192.037 422.752 192.047 422.993 192.047 423.221C192.281 422.661 192.656 422.221 193.17 421.902C193.691 421.583 194.283 421.424 194.947 421.424C195.904 421.424 196.633 421.72 197.135 422.312C197.636 422.905 197.887 423.774 197.887 424.92Z" fill="#343A4E"/>
<path fill-rule="evenodd" clip-rule="evenodd" d="M77.5684 421.561L77.786 415.902L77.9203 415.908L77.9169 415.902H72.3452L77.5684 421.561ZM70.9843 415.902H64.6657L65.3194 421.567L70.9843 415.902L70.9843 415.902ZM71.6631 416.638L66.3351 421.966H76.5813L71.6631 416.638ZM60 422.966H64.6308L69.2889 431.815L60 422.966ZM71.043 433C71.0546 432.964 71.0704 432.929 71.0907 432.895L77.0483 422.966H65.7609L71.043 433ZM73.2057 431.314L81.9687 422.966H78.1804L78.2054 422.981L77.9482 423.41L73.2057 431.314ZM78.5536 421.966H81.8732L78.7384 417.161L78.5536 421.966ZM60.0956 421.966L63.7181 416.414L64.3587 421.966H60.0956Z" fill="#B1C9F8" fill-opacity="0.99"/>
<path d="M122.262 422.696C122.292 422.731 122.275 422.785 122.231 422.799C120.923 423.212 120.007 424.327 120 425.579C119.993 426.861 121.008 428.79 122.933 428.545C124.508 428.344 128.671 426.907 130.136 426.39C130.207 426.364 130.256 426.466 130.193 426.508C127.225 428.469 123.996 430.866 123.725 432.079C123.44 433.355 124.426 435.172 125.828 435.588C127.193 435.994 127.514 435.691 128.461 434.94C128.497 434.911 128.551 434.929 128.564 434.973C128.954 436.287 130.054 437.221 131.307 437.249C132.589 437.278 134.535 436.296 134.321 434.367C134.148 432.799 132.844 428.663 132.363 427.171C132.339 427.098 132.443 427.05 132.483 427.115C134.333 430.143 136.602 433.406 137.802 433.72C139.067 434.051 140.919 433.132 141.386 431.746C141.841 430.397 141.55 430.065 140.834 429.092C140.806 429.055 140.826 429.002 140.871 428.99C142.198 428.648 143.172 427.583 143.246 426.333C143.321 425.053 142.41 423.072 140.474 423.216C138.829 423.337 134.259 424.56 132.923 424.925C132.853 424.944 132.811 424.849 132.87 424.808C135.831 422.764 139.101 420.238 139.349 419.001C139.605 417.719 138.579 415.924 137.168 415.539C135.794 415.164 135.48 415.474 134.55 416.246C134.515 416.275 134.461 416.259 134.447 416.215C134.027 414.91 132.907 414 131.654 414C130.371 414 128.448 415.026 128.704 416.949C128.916 418.538 130.353 422.751 130.846 424.169C130.871 424.24 130.771 424.288 130.729 424.226C128.715 421.289 126.268 418.166 125.045 417.914C123.764 417.65 121.963 418.666 121.57 420.074C121.187 421.446 121.496 421.762 122.262 422.696Z" fill="#41BC7D"/>
<rect x="504.5" y="535.5" width="64" height="32" rx="7.5" fill="#EDEDED" stroke="#FFCD1E" stroke-width="5"/>
<rect x="235" y="483" width="216" height="42" rx="6" fill="#EDEDED" stroke="#FFCD1E" stroke-width="8"/>
<rect x="235" y="407" width="216" height="42" rx="6" fill="#EDEDED" stroke="#B62345" stroke-width="8"/>
<circle cx="536.5" cy="453.5" r="61.5" fill="#B62345"/>
<circle cx="536.924" cy="453.076" r="50.8966" fill="#FFCD1E"/>
<path d="M511.369 441.697L511.017 446.447C510.089 446.039 509.186 445.73 508.308 445.52C507.43 445.309 506.613 445.204 505.859 445.204C504.696 445.204 503.793 445.439 503.15 445.909C502.519 446.379 502.203 447.041 502.203 447.895C502.203 448.686 502.469 449.354 503.001 449.898C503.533 450.443 504.622 451.104 506.267 451.884C509.013 453.207 510.788 454.42 511.592 455.521C512.408 456.621 512.817 458.069 512.817 459.862C512.817 462.398 511.982 464.402 510.312 465.874C508.642 467.346 506.36 468.082 503.465 468.082C502.463 468.082 501.412 467.983 500.311 467.785C499.21 467.6 498.016 467.315 496.73 466.932L497.194 462.182C498.307 462.726 499.358 463.128 500.348 463.388C501.338 463.647 502.29 463.777 503.205 463.777C504.405 463.777 505.339 463.505 506.007 462.961C506.687 462.404 507.028 461.637 507.028 460.66C507.028 459.287 505.624 457.889 502.816 456.467C502.469 456.294 502.21 456.164 502.036 456.077C499.81 454.951 498.325 453.863 497.583 452.812C496.841 451.76 496.47 450.412 496.47 448.767C496.47 446.293 497.28 444.351 498.901 442.94C500.533 441.53 502.791 440.825 505.673 440.825C506.551 440.825 507.461 440.899 508.401 441.048C509.341 441.184 510.33 441.4 511.369 441.697ZM524.356 445.687V453.554H525.766C527.115 453.554 528.073 453.251 528.642 452.645C529.224 452.026 529.514 450.999 529.514 449.564C529.514 448.167 529.224 447.171 528.642 446.577C528.061 445.983 527.053 445.687 525.618 445.687H524.356ZM518.307 441.289H524.894C526.676 441.289 528.073 441.382 529.088 441.567C530.114 441.741 530.968 442.025 531.648 442.421C532.885 443.138 533.819 444.116 534.45 445.353C535.093 446.59 535.415 448.043 535.415 449.713C535.415 452.471 534.611 454.543 533.003 455.929C531.395 457.314 528.995 458.007 525.803 458.007H524.356V467.655H518.307V441.289ZM540.423 441.289H546.472V467.655H540.423V441.289ZM553.224 441.289H560.182L568.124 460.512V441.289H573.301V467.655H566.343L558.364 448.396V467.655H553.224V441.289Z" fill="#EDEDED"/>
<mask id="path-52-inside-1_2_6497" fill="white">
<rect x="43" y="137" width="555" height="240" rx="10"/>
</mask>
<rect x="43" y="137" width="555" height="240" rx="10" stroke="#FFCD1E" stroke-width="30" mask="url(#path-52-inside-1_2_6497)"/>
<path d="M78.5241 254.101C81.045 255.666 81.045 259.334 78.5241 260.898L60.1094 272.328C57.4447 273.981 54 272.065 54 268.929V246.071C54 242.934 57.4447 241.018 60.1094 242.672L78.5241 254.101Z" fill="#FFCD1E"/>
<path d="M563.476 254.101C560.955 255.666 560.955 259.334 563.476 260.898L581.891 272.328C584.555 273.981 588 272.065 588 268.929V246.071C588 242.934 584.555 241.018 581.891 242.672L563.476 254.101Z" fill="#FFCD1E"/>
<mask id="path-55-inside-2_2_6497" fill="white">
<rect x="43" y="25" width="555" height="90" rx="10"/>
</mask>
<rect x="43" y="25" width="555" height="90" rx="10" fill="#EDEDED" stroke="#B62345" stroke-width="30" mask="url(#path-55-inside-2_2_6497)"/>
<path d="M204.615 53.573H213.024V76.5161C213.024 81.5747 212.22 85.1892 210.614 87.3596C209.008 89.5129 206.384 90.5896 202.744 90.5896C201.855 90.5896 200.95 90.5042 200.027 90.3333C199.104 90.1624 198.156 89.9146 197.181 89.5898L197.54 82.8735C198.036 83.0615 198.506 83.2068 198.95 83.3093C199.412 83.3948 199.847 83.4375 200.258 83.4375C201.693 83.4375 202.778 83.0103 203.513 82.1558C204.248 81.3013 204.615 80.0452 204.615 78.3875V76.6187V53.573ZM240.432 60.7507L236.074 75.5676H244.303L240.432 60.7507ZM235.741 53.573H245.406L256.71 90H248.046L245.944 81.8738H234.229L232.024 90H223.898L235.741 53.573ZM291.784 54.6753L291.374 61.4941C290.263 60.8105 289.161 60.3149 288.067 60.0073C286.973 59.6997 285.768 59.5459 284.452 59.5459C281.41 59.5459 279.061 60.6055 277.403 62.7246C275.762 64.8438 274.942 67.843 274.942 71.7224C274.942 75.6873 275.788 78.7463 277.48 80.8997C279.189 83.053 281.615 84.1296 284.76 84.1296C285.905 84.1296 287.042 83.9587 288.169 83.6169C289.297 83.2751 290.451 82.7454 291.63 82.0276L291.989 89.0515C290.69 89.5642 289.332 89.9487 287.913 90.2051C286.495 90.4614 285.008 90.5896 283.453 90.5896C278.155 90.5896 273.942 88.8892 270.815 85.4883C267.687 82.0874 266.124 77.4988 266.124 71.7224C266.124 66.0315 267.67 61.4771 270.763 58.0591C273.874 54.6411 278.01 52.9321 283.171 52.9321C284.606 52.9321 286.033 53.0774 287.452 53.3679C288.887 53.6584 290.331 54.0942 291.784 54.6753ZM304.888 53.573H313.245V68.5181L322.371 53.573H331.625L320.603 70.5176L332.574 90H322.705L313.245 73.2605V90H304.888V53.573ZM351.421 59.6484V70.5176H353.369C355.232 70.5176 356.556 70.0989 357.342 69.2615C358.146 68.407 358.547 66.9885 358.547 65.0061C358.547 63.075 358.146 61.6992 357.342 60.8789C356.539 60.0586 355.146 59.6484 353.164 59.6484H351.421ZM343.064 53.573H352.164C354.625 53.573 356.556 53.7012 357.958 53.9575C359.376 54.1968 360.555 54.5898 361.495 55.1367C363.204 56.1279 364.494 57.478 365.366 59.187C366.255 60.896 366.699 62.9041 366.699 65.2112C366.699 69.0222 365.588 71.8848 363.366 73.7988C361.145 75.7129 357.829 76.6699 353.42 76.6699H351.421V90H343.064V53.573ZM393.159 59.0845C391.057 59.0845 389.434 60.1868 388.289 62.3914C387.161 64.5959 386.597 67.7234 386.597 71.7737C386.597 75.824 387.161 78.9514 388.289 81.156C389.434 83.3435 391.057 84.4373 393.159 84.4373C395.261 84.4373 396.876 83.3435 398.004 81.156C399.149 78.9514 399.722 75.824 399.722 71.7737C399.722 67.7234 399.149 64.5959 398.004 62.3914C396.859 60.1868 395.244 59.0845 393.159 59.0845ZM393.159 52.9321C398.013 52.9321 401.798 54.5898 404.515 57.9053C407.233 61.2207 408.591 65.8435 408.591 71.7737C408.591 77.7209 407.233 82.3438 404.515 85.6421C401.798 88.9404 398.013 90.5896 393.159 90.5896C388.271 90.5896 384.478 88.949 381.777 85.6677C379.077 82.3694 377.727 77.738 377.727 71.7737C377.727 65.8435 379.086 61.2207 381.803 57.9053C384.52 54.5898 388.306 52.9321 393.159 52.9321ZM419.312 53.573H443.562V60.0842H435.641V90H427.233V60.0842H419.312V53.573Z" fill="#343A4E"/>
</g>
<defs>
<linearGradient id="paint0_linear_2_6497" x1="59.25" y1="531.75" x2="78.1363" y2="551.124" gradientUnits="userSpaceOnUse">
<stop stop-color="#FEC73B"/>
<stop offset="1" stop-color="#F29E20"/>
</linearGradient>
<linearGradient id="paint1_linear_2_6497" x1="86.25" y1="531.75" x2="105.136" y2="551.124" gradientUnits="userSpaceOnUse">
<stop stop-color="#FEC73B"/>
<stop offset="1" stop-color="#F29E20"/>
</linearGradient>
<linearGradient id="paint2_linear_2_6497" x1="113.25" y1="531.75" x2="132.136" y2="551.124" gradientUnits="userSpaceOnUse">
<stop stop-color="#FEC73B"/>
<stop offset="1" stop-color="#F29E20"/>
</linearGradient>
<linearGradient id="paint3_linear_2_6497" x1="86.25" y1="501.25" x2="108.75" y2="523.75" gradientUnits="userSpaceOnUse">
<stop stop-color="#F3B415"/>
<stop offset="1" stop-color="#F2B014"/>
</linearGradient>
<linearGradient id="paint4_linear_2_6497" x1="113.543" y1="516.46" x2="117.523" y2="528.869" gradientUnits="userSpaceOnUse">
<stop stop-color="#FC6868"/>
<stop offset="1" stop-color="#E82A2A"/>
</linearGradient>
<linearGradient id="paint5_linear_2_6497" x1="113.543" y1="509.42" x2="117.523" y2="521.829" gradientUnits="userSpaceOnUse">
<stop stop-color="#FC6868"/>
<stop offset="1" stop-color="#E82A2A"/>
</linearGradient>
<linearGradient id="paint6_linear_2_6497" x1="113.543" y1="502.38" x2="117.523" y2="514.788" gradientUnits="userSpaceOnUse">
<stop stop-color="#FC6868"/>
<stop offset="1" stop-color="#E82A2A"/>
</linearGradient>
<linearGradient id="paint7_linear_2_6497" x1="59.25" y1="502.75" x2="78.1363" y2="522.124" gradientUnits="userSpaceOnUse">
<stop stop-color="#FEC73B"/>
<stop offset="1" stop-color="#F29E20"/>
</linearGradient>
<linearGradient id="paint8_linear_2_6497" x1="62.2998" y1="479.852" x2="78.0856" y2="492.072" gradientUnits="userSpaceOnUse">
<stop stop-color="#DC2041"/>
<stop offset="1" stop-color="#BB203F"/>
</linearGradient>
<linearGradient id="paint9_linear_2_6497" x1="114.527" y1="484.128" x2="121.973" y2="492" gradientUnits="userSpaceOnUse">
<stop stop-color="#DC2041"/>
<stop offset="1" stop-color="#BB203F"/>
</linearGradient>
<linearGradient id="paint10_linear_2_6497" x1="126.668" y1="483.702" x2="134.117" y2="491.12" gradientUnits="userSpaceOnUse">
<stop stop-color="#DC2041"/>
<stop offset="1" stop-color="#BB203F"/>
</linearGradient>
<linearGradient id="paint11_linear_2_6497" x1="87.75" y1="478.5" x2="106.979" y2="488.041" gradientUnits="userSpaceOnUse">
<stop stop-color="#C8293F"/>
<stop offset="1" stop-color="#BB213F"/>
</linearGradient>
<linearGradient id="paint12_linear_2_6497" x1="89.4244" y1="451.663" x2="105.5" y2="462.244" gradientUnits="userSpaceOnUse">
<stop stop-color="#EF951F"/>
<stop offset="1" stop-color="#B93D08"/>
<stop offset="1" stop-color="#C84D04"/>
</linearGradient>
<linearGradient id="paint13_linear_2_6497" x1="64" y1="449.125" x2="76.125" y2="463.75" gradientUnits="userSpaceOnUse">
<stop stop-color="#FFEA2F"/>
<stop offset="1" stop-color="#F0A11E"/>
</linearGradient>
<linearGradient id="paint14_linear_2_6497" x1="121.153" y1="447.811" x2="132.687" y2="462.747" gradientUnits="userSpaceOnUse">
<stop stop-color="#FFDF21"/>
<stop offset="1" stop-color="#F0A611"/>
</linearGradient>
<linearGradient id="paint15_linear_2_6497" x1="121.153" y1="447.811" x2="132.687" y2="462.747" gradientUnits="userSpaceOnUse">
<stop stop-color="#FFDF21"/>
<stop offset="1" stop-color="#F0A611"/>
</linearGradient>
<linearGradient id="paint16_linear_2_6497" x1="121.153" y1="447.811" x2="132.687" y2="462.747" gradientUnits="userSpaceOnUse">
<stop stop-color="#FFDF21"/>
<stop offset="1" stop-color="#F0A611"/>
</linearGradient>
<clipPath id="clip0_2_6497">
<rect width="640" height="600" fill="white"/>
</clipPath>
</defs>
</svg>
